<?xml version="1.0" standalone="no"?>
<!DOCTYPE svg PUBLIC "-//W3C//DTD SVG 1.1//EN" "http://www.w3.org/Graphics/SVG/1.1/DTD/svg11.dtd" >
<svg xmlns="http://www.w3.org/2000/svg" xmlns:xlink="http://www.w3.org/1999/xlink" version="1.1">
<metadata>
Created by FontForge 20200427 at Tue Mar 10 19:04:03 2015
 By www
Copyright (c) 2013 by Marcus Sterz. All rights reserved.
</metadata>
<defs>
<font id="SubstanceW00-Bold" horiz-adv-x="691" >
  <font-face 
    font-family="SubstanceW00-Bold"
    font-weight="700"
    font-stretch="normal"
    units-per-em="1000"
    panose-1="1 0 0 0 0 0 0 0 0 0"
    ascent="800"
    descent="-200"
    x-height="496"
    cap-height="700"
    bbox="-77 -301 1332 932"
    underline-thickness="50"
    underline-position="-175"
    unicode-range="U+0020-FB02"
  />
<missing-glyph horiz-adv-x="500" 
d="M0 700h500v-700h-500v700zM420 650h-340l170 -255zM450 95v510l-170 -255zM420 50l-170 255l-170 -255h340zM50 95l170 255l-170 255v-510z" />
    <glyph glyph-name="uniFB01" unicode="fi" horiz-adv-x="606" 
d="M541 495v-496h-125v399h-196v-399h-126v399h-65v97h65v29q0 43 10 77t34 56.5t64 34.5t100 12q10 0 17 -0.5t15 -1.5v-97q-15 5 -31 5q-25 0 -41 -4t-25.5 -14t-13 -26.5t-3.5 -40.5v-29zM541 559h-125v124h125v-124z" />
    <glyph glyph-name="uniFB02" unicode="fl" horiz-adv-x="606" 
d="M95 525q0 43 10 77t34 56.5t64 34.5t100 12q35 0 64 -2.5t56.5 -8.5t56 -15t62.5 -22v-657h-125v588q-22 11 -50 17t-60 6q-46 0 -66 -19.5t-20 -66.5v-29h111v-97h-111v-399h-126v399h-65v97h65v29z" />
    <glyph glyph-name="f_f.liga" unicode="ff" horiz-adv-x="676" 
d="M654 604q-15 5 -32 5q-48 0 -65 -18t-17 -67v-29h111v-97h-111v-399h-126v399h-195v-399h-126v399h-65v97h65v29q0 43 10 77t34 56.5t64 34.5t100 12q10 0 17 -0.5t15 -1.5v-97q-15 5 -31 5q-25 0 -41 -4t-25.5 -14t-13 -26.5t-3.5 -40.5v-29h195v29q0 43 10 77t34 56.5
t63.5 34.5t99.5 12q10 0 17.5 -0.5t15.5 -1.5v-99z" />
    <glyph glyph-name="f_f_i.liga" unicode="ffi" horiz-adv-x="927" 
d="M862 494v-496h-126v399h-195v-399h-126v399h-195v-399h-126v399h-65v97h65v29q0 43 10 77t34 56.5t64 34.5t100 12q10 0 17 -0.5t15 -1.5v-97q-15 5 -31 5q-25 0 -41 -4t-25.5 -14t-13 -26.5t-3.5 -40.5v-29h195v29q0 43 10 77t34 56.5t63.5 34.5t99.5 12q10 0 17.5 -0.5
t15.5 -1.5v-97q-15 5 -32 5q-48 0 -65 -18t-17 -67v-29zM862 558h-126v124h126v-124z" />
    <glyph glyph-name="f_f_l.liga" unicode="ffl" horiz-adv-x="927" 
d="M415 524q0 43 10 77t34 56.5t63.5 34.5t99.5 12q35 0 64.5 -2.5t57 -8t56 -14.5t61.5 -21v-659h-126v589q-21 10 -48.5 16t-59.5 6q-46 0 -66 -19.5t-20 -66.5v-29h109v-97h-109v-399h-126v399h-195v-399h-126v399h-65v97h65v29q0 43 10 77t34 56.5t64 34.5t100 12
q10 0 17 -0.5t15 -1.5v-97q-15 5 -31 5q-25 0 -41 -4t-25.5 -14t-13 -26.5t-3.5 -40.5v-29h195v28z" />
    <glyph glyph-name=".notdef" horiz-adv-x="500" 
d="M0 700h500v-700h-500v700zM420 650h-340l170 -255zM450 95v510l-170 -255zM420 50l-170 255l-170 -255h340zM50 95l170 255l-170 255v-510z" />
    <glyph glyph-name=".null" horiz-adv-x="0" 
 />
    <glyph glyph-name="nonmarkingreturn" horiz-adv-x="333" 
 />
    <glyph glyph-name="space" unicode=" " horiz-adv-x="272" 
 />
    <glyph glyph-name="exclam" unicode="!" horiz-adv-x="306" 
d="M100 224l-29 476h162l-29 -476h-104zM77 0v156h149v-156h-149z" />
    <glyph glyph-name="quotedbl" unicode="&#x22;" horiz-adv-x="337" 
d="M66 475l-18 225h100l-18 -225h-64zM207 475l-17 225h100l-18 -225h-65z" />
    <glyph glyph-name="numbersign" unicode="#" horiz-adv-x="681" 
d="M499 212h140v-80h-159l-30 -133h-97l30 133h-152l-30 -133h-96l30 133h-94v80h112l28 124h-140v80h159l30 133h97l-30 -133h152l30 133h97l-30 -133h94v-80h-112zM278 336l-28 -124h152l28 124h-152z" />
    <glyph glyph-name="dollar" unicode="$" horiz-adv-x="658" 
d="M466 490q-3 21 -12 39.5t-26.5 32.5t-42.5 22.5t-59 8.5q-25 0 -47.5 -5t-39 -15.5t-26 -25.5t-9.5 -34q0 -35 31.5 -55t78.5 -33.5t101.5 -27t101.5 -35.5t78.5 -58.5t31.5 -96.5q0 -46 -19 -82t-53 -61.5t-81 -41t-102 -19.5v-72h-94v72q-115 10 -178 65.5t-65 142.5
h146q8 -58 50 -81t102 -23q67 0 104.5 27.5t37.5 68.5q0 28 -18 45.5t-48 30t-67.5 21t-77.5 18.5t-77.5 23.5t-67.5 34.5t-48 52t-18 76q0 44 17 78t47 58.5t70.5 39t88.5 19.5v72h94v-73q107 -11 165.5 -66t62.5 -143z" />
    <glyph glyph-name="percent" unicode="%" horiz-adv-x="959" 
d="M238 710q54 0 90 -14.5t58 -39.5t31 -58.5t9 -70.5t-9 -70t-31 -58t-58 -39.5t-90 -14.5t-90 14.5t-57.5 39.5t-31 58t-9.5 70t9.5 70.5t31 58.5t57.5 39.5t90 14.5zM200 0l454 700h106l-453 -700h-107zM239 635q-29 0 -48 -8.5t-30 -23t-16 -34.5t-5 -42t5 -41.5t16 -34
t30 -23t48 -8.5q28 0 47.5 8.5t30.5 23t16 34t5 41.5t-5 42t-16 34.5t-30.5 23t-47.5 8.5zM722 355q54 0 90 -14.5t57.5 -39.5t30.5 -58.5t9 -70.5t-9 -70t-30.5 -58t-57.5 -39.5t-90 -14.5t-90 14.5t-57.5 39.5t-31 58t-9.5 70t9.5 70.5t31 58.5t57.5 39.5t90 14.5z
M723 280q-29 0 -48 -8.5t-30 -23t-16 -34.5t-5 -42t5 -41.5t16 -34t30 -23t48 -8.5q28 0 47.5 8.5t30.5 23t16 34t5 41.5t-5 42t-16 34.5t-30.5 23t-47.5 8.5z" />
    <glyph glyph-name="ampersand" unicode="&#x26;" horiz-adv-x="687" 
d="M478 56q-37 -31 -86.5 -48t-111.5 -17q-54 0 -99.5 14t-77.5 39.5t-50 61.5t-18 80q0 67 35 114t93 70q-24 38 -38 80.5t-14 91.5q0 47 17.5 79.5t47 52t67.5 28t79 8.5q43 0 81 -12t66.5 -33.5t45 -52.5t16.5 -69q0 -47 -20 -81.5t-51 -59t-69.5 -40t-74.5 -24.5
q32 -38 70.5 -76.5t83.5 -78.5q20 34 28 72t9 72h103q-1 -57 -17.5 -110.5t-51.5 -96.5l142 -120h-146zM319 617q-17 0 -33.5 -4.5t-29.5 -14t-21.5 -26t-8.5 -40.5q0 -32 10.5 -63.5t30.5 -63.5q32 14 59.5 29.5t47.5 32.5t31 36t11 40q0 19 -8.5 33t-22 23t-30.5 13.5
t-35 4.5h-1zM300 88q29 0 55.5 7t51.5 23q-27 24 -57 51t-63 58q-20 19 -39 38.5t-36 39.5q-27 -17 -45 -40.5t-18 -55.5q0 -25 10.5 -47t30.5 -38t47.5 -25.5t62.5 -9.5v-1z" />
    <glyph glyph-name="quotesingle" unicode="'" horiz-adv-x="195" 
d="M66 475l-18 225h100l-18 -225h-64z" />
    <glyph glyph-name="parenleft" unicode="(" horiz-adv-x="319" 
d="M297 763q-50 -102 -76 -218t-26 -245t26 -245t76 -218h-82q-78 98 -116 213.5t-38 249.5t38 249.5t116 213.5h82z" />
    <glyph glyph-name="parenright" unicode=")" horiz-adv-x="319" 
d="M22 -163q50 102 76.5 218t26.5 245t-26.5 245t-76.5 218h82q79 -98 117 -213.5t38 -249.5t-38 -249.5t-117 -213.5h-82z" />
    <glyph glyph-name="asterisk" unicode="*" horiz-adv-x="420" 
d="M357 415l-88 -64l-58 120l-61 -120l-87 64l95 92l-130 19l32 103l118 -60l-22 130h108l-23 -130l119 61l32 -103l-130 -19z" />
    <glyph glyph-name="plus" unicode="+" horiz-adv-x="446" 
d="M275 270v-122h-105v122h-133v96h133v122h105v-122h134v-96h-134z" />
    <glyph glyph-name="comma" unicode="," horiz-adv-x="280" 
d="M213 0l-67 -119h-86l65 119h-60v156h149z" />
    <glyph glyph-name="hyphen" unicode="-" horiz-adv-x="320" 
d="M12 243v96h296v-96h-296z" />
    <glyph glyph-name="period" unicode="." horiz-adv-x="280" 
d="M65 0v156h149v-156h-149z" />
    <glyph glyph-name="slash" unicode="/" horiz-adv-x="466" 
d="M-1 -111l363 922h104l-362 -922h-105z" />
    <glyph glyph-name="zero" unicode="0" horiz-adv-x="694" 
d="M346 710q85 0 141.5 -28.5t90.5 -77t48.5 -114t14.5 -140.5t-14.5 -140.5t-48.5 -114t-90.5 -77t-141.5 -28.5q-84 0 -140.5 28.5t-90.5 77t-48.5 114t-14.5 140.5t14.5 140.5t48.5 114t90.5 77t140.5 28.5zM346 598q-44 0 -73.5 -20t-47 -53.5t-24.5 -79t-7 -96.5
t7 -96.5t24.5 -79.5t47 -53.5t73.5 -19.5q45 0 75 20t47.5 53.5t25 79t7.5 96.5t-7.5 96.5t-25 79t-47.5 53.5t-75 20z" />
    <glyph glyph-name="one" unicode="1" horiz-adv-x="456" 
d="M371 -1h-139v551l-136 -98l-70 93l212 155h133v-701z" />
    <glyph glyph-name="two" unicode="2" horiz-adv-x="606" 
d="M33 490q4 105 75 161.5t196 56.5q55 0 105 -13t87 -38.5t59 -64t22 -89.5q0 -71 -39 -131t-97.5 -109.5t-126.5 -87.5t-126 -65h388v-112h-545v121q34 17 77 41t88 52.5t88 61.5t76.5 69t54 74.5t20.5 78.5q0 51 -36.5 76.5t-97.5 25.5q-35 0 -59.5 -8.5t-40.5 -23
t-25 -33.5t-12 -41z" />
    <glyph glyph-name="three" unicode="3" horiz-adv-x="639" 
d="M52 494q1 47 17 87t49 69t83 45.5t118 16.5q45 0 90 -10t81 -31.5t58.5 -56.5t22.5 -85q0 -57 -30 -95t-76 -59q29 -11 54.5 -27t44.5 -37.5t30 -50t11 -62.5q0 -56 -26 -95.5t-67.5 -64.5t-92.5 -36t-101 -11q-62 0 -113.5 14.5t-89.5 42.5t-61 68.5t-26 92.5h136
q4 -21 14.5 -40.5t29 -34.5t46 -23.5t66.5 -8.5q31 0 58 7.5t47 22t31 34.5t11 45q0 49 -40 76t-126 29v112q67 2 99 20t32 63q0 24 -10.5 40.5t-27.5 27t-38.5 15.5t-43.5 5q-35 0 -59.5 -9t-40 -24t-23 -34.5t-9.5 -39.5z" />
    <glyph glyph-name="four" unicode="4" horiz-adv-x="679" 
d="M531 163v-162h-139v162h-371v123l246 415h147l-263 -427h240v184h139v-184h129v-112z" />
    <glyph glyph-name="five" unicode="5" horiz-adv-x="668" 
d="M200 421q27 23 68.5 35t98.5 12q56 0 104.5 -16.5t84.5 -47.5t56.5 -75t20.5 -98q0 -66 -28 -112.5t-71.5 -75.5t-97.5 -42t-106 -13q-74 0 -129 19t-92 50t-56 70t-22 79h139q3 -20 14.5 -39t31.5 -34t48.5 -24t66.5 -9q31 0 61 7.5t53 23.5t37 42t14 64q0 33 -13 57.5
t-35 41t-50.5 24.5t-59.5 8q-50 0 -86.5 -15t-65.5 -47h-132l53 394h459v-112h-345z" />
    <glyph glyph-name="six" unicode="6" horiz-adv-x="686" 
d="M484 492q-4 18 -13.5 36t-25 32t-37.5 22.5t-51 8.5q-70 0 -116 -55.5t-51 -164.5l-1 -15q23 35 73 59.5t131 24.5q65 0 112 -18t77 -48t44.5 -68.5t14.5 -80.5q0 -48 -18.5 -90.5t-54.5 -74.5t-89 -51t-122 -19q-61 0 -116 17t-97 56.5t-67 104.5t-25 162q0 75 17.5 144
t54.5 121.5t95 83.5t139 31q51 0 95.5 -15t79.5 -43t57 -68.5t28 -91.5h-134zM356 101q38 0 65.5 9.5t45.5 26t26.5 38.5t8.5 46t-8.5 46t-26.5 38t-45.5 25.5t-65.5 9.5q-39 0 -66.5 -10t-45.5 -26.5t-26.5 -38.5t-8.5 -46q0 -49 37.5 -83.5t109.5 -34.5z" />
    <glyph glyph-name="seven" unicode="7" horiz-adv-x="577" 
d="M559 579q-57 -54 -101.5 -119.5t-75.5 -139.5t-47.5 -155t-16.5 -165h-141q0 89 21.5 173.5t57 160t82 140t96.5 114.5h-416v112h540z" />
    <glyph glyph-name="eight" unicode="8" horiz-adv-x="684" 
d="M501 389q74 -26 111.5 -75.5t37.5 -109.5q0 -59 -27.5 -99.5t-71.5 -66t-99 -36.5t-110 -11q-54 0 -109 11t-98.5 36.5t-71 66t-27.5 99.5q0 60 37.5 109t110.5 75q-50 25 -75.5 64.5t-25.5 87.5t23 80.5t60 52.5t83 29t92 9q45 0 91.5 -9t84.5 -29t62 -52.5t24 -80.5
t-26 -87.5t-77 -64.5zM344 605q-24 0 -48.5 -4.5t-44 -14t-31.5 -25.5t-12 -40q0 -38 35 -64t101 -26t101 26t35 64q0 24 -12.5 40t-32.5 25.5t-44 14t-48 4.5h1zM343 102q29 0 58 6.5t52.5 20.5t38.5 36t15 54q0 49 -41.5 82t-121.5 33t-121.5 -33t-41.5 -82
q0 -32 14.5 -54t38 -36t52.5 -20.5t58 -6.5h-1z" />
    <glyph glyph-name="nine" unicode="9" horiz-adv-x="686" 
d="M201 208q4 -18 13.5 -36t25 -32t37.5 -22.5t51 -8.5q70 0 116 55.5t51 164.5l1 15q-23 -35 -73 -59.5t-131 -24.5q-65 0 -112 18t-77 48t-44.5 68.5t-14.5 80.5q0 48 18.5 90.5t54.5 74.5t89 51t122 19q61 0 116 -17t97 -56.5t67 -104.5t25 -162q0 -75 -17.5 -144
t-54.5 -121.5t-95 -83.5t-139 -31q-51 0 -95.5 15t-79.5 43t-57 68.5t-28 91.5h134zM329 360q39 0 66.5 10t45.5 26.5t26.5 38.5t8.5 46q0 49 -37.5 83.5t-109.5 34.5q-38 0 -65.5 -10t-45.5 -26.5t-26.5 -38t-8.5 -45.5t8.5 -46t26.5 -38t45.5 -25.5t65.5 -9.5z" />
    <glyph glyph-name="colon" unicode=":" horiz-adv-x="280" 
d="M65 340v156h149v-156h-149zM65 0v156h149v-156h-149z" />
    <glyph glyph-name="semicolon" unicode=";" horiz-adv-x="280" 
d="M214 340h-149v156h149v-156zM213 155v-156l-67 -119h-86l65 119h-60v156h148z" />
    <glyph glyph-name="less" unicode="&#x3c;" horiz-adv-x="456" 
d="M111 319l299 -99v-106l-380 135v140l380 134v-106z" />
    <glyph glyph-name="equal" unicode="=" horiz-adv-x="445" 
d="M43 350v96h358v-96h-358zM43 190v97h358v-97h-358z" />
    <glyph glyph-name="greater" unicode="&#x3e;" horiz-adv-x="456" 
d="M426 246l-380 -134v106l300 99l-300 99v106l380 -134v-142z" />
    <glyph glyph-name="question" unicode="?" horiz-adv-x="642" 
d="M44 491q1 60 23 101.5t60 67.5t88.5 37.5t107.5 11.5q55 0 105 -13t87.5 -39t60 -65t22.5 -92q0 -48 -19.5 -82.5t-50.5 -57.5t-70.5 -35t-78.5 -16l-6 -85h-103l-11 147q98 7 155.5 37t57.5 89q0 48 -39.5 78.5t-111.5 30.5q-70 0 -111 -29.5t-43 -84.5zM396 154v-156
h-149v156h149z" />
    <glyph glyph-name="at" unicode="@" horiz-adv-x="1117" 
d="M792 -170q-53 -24 -112.5 -34.5t-124.5 -10.5q-142 0 -237.5 36.5t-153 99t-82 147t-24.5 180.5t24 180.5t81.5 147t153 99t237.5 36.5q143 0 239.5 -36.5t155.5 -99.5t84 -147t25 -180q0 -128 -43.5 -192.5t-137.5 -64.5q-121 0 -159 123q-21 -56 -67.5 -90t-129.5 -34
q-63 0 -105 20.5t-66.5 55.5t-35 82t-10.5 100t9.5 100t33 82t63 55.5t99.5 20.5t100.5 -20t66.5 -55v65h111v-248q0 -99 23 -142.5t79 -43.5q57 0 80.5 43.5t23.5 142.5q0 96 -22 171t-73.5 127t-136 79.5t-208.5 27.5q-122 0 -204.5 -30t-132 -83.5t-70.5 -128t-21 -164.5
q0 -89 23 -163.5t74 -128t133 -83t200 -29.5q65 0 126 14t111 40v-67zM553 93q35 0 58.5 12.5t38 33.5t20.5 49t6 60t-6 60t-20.5 49t-38 33.5t-58.5 12.5q-36 0 -59.5 -12.5t-37.5 -33.5t-20 -49t-6 -60t6 -60t20 -49t37.5 -33.5t59.5 -12.5z" />
    <glyph glyph-name="A" unicode="A" horiz-adv-x="692" 
d="M201 143l-56 -143h-141l273 700h137l273 -700h-140l-56 143h-290zM356 489q-3 9 -6 18.5t-5 18.5q-2 -9 -5 -18.5t-6 -18.5l-90 -234h204z" />
    <glyph glyph-name="B" unicode="B" horiz-adv-x="656" 
d="M353 700q61 0 107 -14.5t77 -39.5t46.5 -59t15.5 -72q0 -51 -26.5 -90t-80.5 -62q66 -23 99.5 -66.5t33.5 -99.5q0 -41 -17 -77t-51.5 -62.5t-85.5 -42t-118 -15.5h-280v700h280zM351 417q54 0 80 25.5t26 60.5t-26 60t-80 25h-139v-170zM357 110q63 0 94 28t31 69
t-31 69.5t-94 28.5h-145v-195h145z" />
    <glyph glyph-name="C" unicode="C" horiz-adv-x="705" 
d="M525 494q-5 18 -16.5 37t-31 34.5t-47 25t-63.5 9.5q-52 0 -86.5 -20t-54.5 -53.5t-28.5 -79t-8.5 -96.5t8.5 -96.5t28.5 -79t54.5 -53.5t86.5 -20q36 0 63.5 9.5t47 25t31 34.5t16.5 37h136q-4 -42 -23.5 -81.5t-55.5 -70t-89.5 -48.5t-124.5 -18q-92 0 -153 28.5
t-97.5 77t-52 114t-15.5 140.5t15.5 140.5t52 114t97.5 77t153 28.5q71 0 124.5 -18t89.5 -48.5t55.5 -70t23.5 -81.5z" />
    <glyph glyph-name="D" unicode="D" horiz-adv-x="707" 
d="M302 700q111 0 180.5 -25.5t108.5 -72t53 -111t14 -141.5q0 -80 -14 -145t-53 -110.5t-108.5 -70t-180.5 -24.5h-229v700h229zM302 113q66 0 108 14t66 43t33 74t9 107t-9 107t-33 74t-66 43t-108 14h-90v-477z" />
    <glyph glyph-name="E" unicode="E" horiz-adv-x="605" 
d="M212 419h331v-112h-331v-195h351v-112h-490v700h490v-112h-351v-169z" />
    <glyph glyph-name="F" unicode="F" horiz-adv-x="571" 
d="M212 419h313v-112h-313v-307h-139v700h473v-112h-334v-169z" />
    <glyph glyph-name="G" unicode="G" horiz-adv-x="719" 
d="M665 109q-17 -28 -45.5 -50t-65 -37.5t-80 -23.5t-91.5 -8q-96 0 -160 28.5t-102.5 77t-54.5 114t-16 140.5t15.5 140.5t52 114t97.5 77t153 28.5q73 0 126.5 -19.5t88 -50.5t52 -70t20.5 -78h-134q-3 19 -14 38t-29.5 34.5t-46 25t-63.5 9.5q-52 0 -86.5 -20
t-54.5 -53.5t-28.5 -79t-8.5 -96.5q0 -52 9.5 -97.5t33 -79t62.5 -53t98 -19.5q100 2 144 49v109h-103v112h231v-262z" />
    <glyph glyph-name="H" unicode="H" horiz-adv-x="699" 
d="M626 0h-139v307h-275v-307h-139v700h139v-282h275v282h139v-700z" />
    <glyph glyph-name="I" unicode="I" horiz-adv-x="284" 
d="M73 0v700h139v-700h-139z" />
    <glyph glyph-name="J" unicode="J" horiz-adv-x="413" 
d="M343 198q0 -48 -12 -86t-41.5 -64t-78.5 -40t-122 -14q-19 0 -40 1.5t-35 4.5v118q14 -5 33 -8.5t42 -3.5q60 0 87.5 21t27.5 71v502h139v-502z" />
    <glyph glyph-name="K" unicode="K" horiz-adv-x="700" 
d="M213 219v-219h-139v700h139v-306q9 13 18 23.5t17 18.5l274 264h171l-283 -283l283 -417h-158l-215 327z" />
    <glyph glyph-name="L" unicode="L" horiz-adv-x="562" 
d="M539 0h-466v700h139v-588h327v-112z" />
    <glyph glyph-name="M" unicode="M" horiz-adv-x="888" 
d="M682 492q-2 -10 -4.5 -17.5t-4.5 -12.5l-178 -462h-105l-177 462q-2 5 -4.5 12.5t-4.5 17.5v-492h-131v700h186l173 -444q3 -8 6.5 -17.5t5.5 -20.5q2 11 5.5 20.5t6.5 17.5l173 444h186v-700h-132z" />
    <glyph glyph-name="N" unicode="N" horiz-adv-x="740" 
d="M667 0h-142l-293 433q-20 30 -29 48v-480h-131v700h142l293 -433q20 -30 29 -48v480h131v-700z" />
    <glyph glyph-name="O" unicode="O" horiz-adv-x="738" 
d="M368 710q92 0 153.5 -28.5t98.5 -77t52.5 -114t15.5 -140.5t-15.5 -140.5t-52.5 -114t-98.5 -77t-153.5 -28.5t-153 28.5t-97.5 77t-52 114t-15.5 140.5t15.5 140.5t52 114t97.5 77t153 28.5zM369 598q-53 0 -87.5 -20t-54.5 -53.5t-28.5 -79t-8.5 -96.5t8.5 -96.5
t28.5 -79t54.5 -53.5t87.5 -20q52 0 86.5 20t55.5 53.5t29.5 79t8.5 96.5t-8.5 96.5t-29.5 79t-55.5 53.5t-86.5 20z" />
    <glyph glyph-name="P" unicode="P" horiz-adv-x="636" 
d="M359 700q63 0 110 -17.5t78.5 -47t47 -69t15.5 -83.5q0 -45 -15.5 -84.5t-47 -69t-78.5 -46.5t-110 -17h-147v-266h-139v700h286zM351 378q57 0 85.5 30.5t28.5 74.5t-28.5 74.5t-84.5 30.5h-140v-211z" />
    <glyph glyph-name="Q" unicode="Q" horiz-adv-x="738" 
d="M555 -178q-11 -2 -18 -2h-19q-103 0 -151.5 40.5t-51.5 130.5q-76 8 -127 39t-81.5 79t-43.5 109.5t-13 130.5q0 75 15.5 140.5t52 114t97.5 77t153 28.5t153.5 -28.5t98.5 -77t52.5 -114t15.5 -140.5q0 -69 -13 -130t-44 -108.5t-82 -78.5t-127 -39q3 -41 26 -59t69 -18
q22 0 37 5zM369 100q52 0 86.5 20t55.5 53.5t29.5 79t8.5 96.5t-8.5 96.5t-29.5 79t-55.5 53.5t-86.5 20q-53 0 -87.5 -20t-54.5 -53.5t-28.5 -79t-8.5 -96.5t8.5 -96.5t28.5 -79t54.5 -53.5t87.5 -20z" />
    <glyph glyph-name="R" unicode="R" horiz-adv-x="665" 
d="M211 266v-266h-139v700h302q63 0 110 -17.5t78.5 -47t47 -69t15.5 -83.5q0 -72 -40 -128t-121 -78l168 -277h-148l-155 266h-118zM367 379q57 0 86 30.5t29 74.5t-29 74.5t-86 30.5h-156v-211z" />
    <glyph glyph-name="S" unicode="S" horiz-adv-x="658" 
d="M178 212q5 -55 48.5 -81t105.5 -26q67 0 104.5 27.5t37.5 68.5q0 27 -18 44.5t-48 30t-67.5 21.5t-77.5 19t-77.5 24t-67.5 36t-48 54t-18 79q0 50 21 88.5t57 64t84.5 38.5t104.5 13q65 0 116.5 -16t87 -44.5t55.5 -69t22 -89.5h-136q-3 19 -12 38t-26 34t-42.5 24.5
t-60.5 9.5q-25 0 -47.5 -5t-39 -15.5t-26 -25.5t-9.5 -34q0 -35 31.5 -55t78.5 -34t101.5 -28t101.5 -37t78.5 -61t31.5 -100q0 -53 -23 -93t-63.5 -67t-96 -41t-119.5 -14q-69 0 -122 16t-89.5 45t-56.5 69t-21 88z" />
    <glyph glyph-name="T" unicode="T" horiz-adv-x="578" 
d="M359 588v-588h-139v588h-201v112h540v-112h-200z" />
    <glyph glyph-name="U" unicode="U" horiz-adv-x="699" 
d="M628 236q0 -51 -13.5 -95.5t-46 -78t-86 -53t-134.5 -19.5q-80 0 -133.5 19.5t-85.5 53t-45.5 78t-13.5 95.5v464h139v-464q0 -27 6 -51.5t22 -43t43 -29.5t69 -11t69.5 11t43 29.5t21.5 43t6 51.5v464h139v-464z" />
    <glyph glyph-name="V" unicode="V" 
d="M414 0h-138l-273 700h140l190 -491q2 -5 5.5 -15.5t6.5 -22.5q3 12 6.5 22.5t5.5 15.5l189 491h141z" />
    <glyph glyph-name="W" unicode="W" horiz-adv-x="923" 
d="M764 0h-183l-108 448q-2 10 -5 22t-6 35q-3 -23 -6 -35t-5 -22l-107 -448h-183l-147 700h136l107 -519q1 -5 2 -14t3 -23q2 13 3.5 22t2.5 14l117 520h156l117 -520q1 -5 2.5 -14.5t3.5 -23.5q2 14 3 24t2 15l106 519h136z" />
    <glyph glyph-name="X" unicode="X" horiz-adv-x="664" 
d="M331 264l-171 -264h-155l243 355l-235 345h155l164 -252l164 252h148l-229 -345l243 -355h-154z" />
    <glyph glyph-name="Y" unicode="Y" horiz-adv-x="634" 
d="M385 0h-139v295l-242 405h150l149 -242q9 -14 14 -30q5 16 14 30l148 242h150l-243 -406z" />
    <glyph glyph-name="Z" unicode="Z" horiz-adv-x="607" 
d="M202 142q-8 -9 -15.5 -16.5l-13.5 -13.5h400v-112h-540v125l371 433q16 18 30 30h-401v112h541v-125z" />
    <glyph glyph-name="bracketleft" unicode="[" horiz-adv-x="337" 
d="M197 -61h117v-103h-242v927h242v-103h-117v-721z" />
    <glyph glyph-name="backslash" unicode="\" horiz-adv-x="467" 
d="M362 -111l-362 922h105l362 -922h-105z" />
    <glyph glyph-name="bracketright" unicode="]" horiz-adv-x="337" 
d="M265 -163h-243v103h117v720h-117v103h243v-926z" />
    <glyph glyph-name="asciicircum" unicode="^" horiz-adv-x="378" 
d="M190 611l-71 -129h-99l122 218h96l122 -218h-100z" />
    <glyph glyph-name="underscore" unicode="_" horiz-adv-x="489" 
d="M41 -94v84h407v-84h-407z" />
    <glyph glyph-name="grave" unicode="`" horiz-adv-x="200" 
d="M123 540l-122 126h148l51 -126h-77z" />
    <glyph glyph-name="a" unicode="a" horiz-adv-x="570" 
d="M59 336q4 90 61.5 130t170.5 40q45 0 85 -8.5t70 -26.5t47 -47t17 -71v-353h-116v97q-25 -56 -75.5 -81.5t-119.5 -25.5q-80 0 -120 38t-40 97q0 60 34.5 95t86.5 53.5t112 24.5t111 7v47q0 9 -3 20.5t-12.5 22t-28.5 18t-51 7.5q-34 0 -54 -8.5t-31 -21t-15.5 -27.5
t-5.5 -28zM384 234q-44 0 -84 -4.5t-71.5 -14t-50 -26.5t-18.5 -42q0 -31 24.5 -47t63.5 -16q25 0 49.5 7.5t43.5 23t31 39t12 56.5v24z" />
    <glyph glyph-name="b" unicode="b" horiz-adv-x="605" 
d="M191 423q23 38 63.5 60t102.5 22q60 0 99.5 -20.5t63 -55.5t33 -82t9.5 -100t-9.5 -100t-33 -82t-63 -55.5t-99.5 -20.5q-69 0 -111.5 27t-64.5 73v-89h-116v700h126v-277zM314 91q35 0 58.5 12.5t37.5 33.5t20 49.5t6 60.5t-6 60t-20 49t-37.5 33.5t-58.5 12.5
q-36 0 -59.5 -12.5t-37.5 -33.5t-20 -49t-6 -60t6 -60.5t20 -49.5t37.5 -33.5t59.5 -12.5z" />
    <glyph glyph-name="c" unicode="c" horiz-adv-x="561" 
d="M400 328q-5 34 -32 56t-77 22q-35 0 -59 -12.5t-38 -34t-20 -50.5t-6 -62t6 -62t20 -50.5t38 -34t59 -12.5q50 0 77 22.5t32 56.5h126q-4 -38 -20.5 -70t-46 -56t-72 -37.5t-96.5 -13.5q-72 0 -119.5 20.5t-76.5 55.5t-41 82t-12 100t12 100t41 82t76.5 55.5t119.5 20.5
q54 0 96.5 -13.5t72 -37.5t46 -56.5t20.5 -69.5z" />
    <glyph glyph-name="d" unicode="d" horiz-adv-x="605" 
d="M540 0h-116v89q-22 -45 -64.5 -72t-111.5 -27q-60 0 -99.5 20.5t-63 55.5t-33 82t-9.5 100t9.5 100t33 82t63 55.5t99.5 20.5q62 0 102.5 -22t63.5 -60v276h126v-700zM291 92q35 0 58.5 12.5t38 33.5t20.5 49.5t6 60.5t-6 60t-20.5 49t-38 33.5t-58.5 12.5
q-36 0 -59.5 -12.5t-37.5 -33.5t-20 -49t-6 -60t6 -60.5t20 -49.5t37.5 -33.5t59.5 -12.5z" />
    <glyph glyph-name="e" unicode="e" horiz-adv-x="576" 
d="M292 507q67 0 113 -17t75 -50t42 -81t13 -110v-13.5t-1 -16.5h-368q5 -67 33 -101.5t94 -34.5q48 0 77 23t34 61h123q-5 -38 -22 -70.5t-46.5 -56t-71.5 -37t-96 -13.5q-72 0 -119.5 19.5t-76.5 54t-41 81.5t-12 103q0 51 12 97.5t41 82.5t76.5 57t119.5 21v-93
q-60 0 -88.5 -29.5t-35.5 -86.5h245q-2 25 -8 46t-19.5 36.5t-36.5 24.5t-57 9z" />
    <glyph glyph-name="f" unicode="f" horiz-adv-x="356" 
d="M334 605q-7 2 -16 3.5t-16 1.5q-49 0 -65.5 -18t-16.5 -67v-29h111v-97h-111v-399h-126v399h-66v97h66v29q0 43 10 77t34 56.5t63.5 34.5t99.5 12q10 0 17.5 -0.5t15.5 -1.5v-98z" />
    <glyph glyph-name="g" unicode="g" horiz-adv-x="584" 
d="M478 451q25 -23 35.5 -52t10.5 -62q0 -35 -11.5 -66t-39 -54.5t-73 -37.5t-112.5 -14q-74 0 -123 17q-14 -11 -14 -24q0 -20 30.5 -27.5t76.5 -11t100 -9t100 -22.5t76.5 -50.5t30.5 -92.5q0 -32 -14.5 -61t-46.5 -51t-85 -35.5t-129 -13.5q-79 0 -131.5 12.5t-84.5 33
t-45.5 47.5t-13.5 56q0 45 21 79.5t53 59.5q-17 11 -27 26t-10 37q0 26 16.5 47.5t34.5 34.5q-27 23 -38.5 54t-11.5 66q0 34 11.5 65t39 54t73 36.5t113.5 13.5q43 0 76 -5.5t59 -15.5l25 62h110zM287 416q-34 0 -56.5 -6.5t-36 -17t-19 -25.5t-5.5 -31q0 -17 5.5 -31.5
t19 -25t36 -17t56.5 -6.5q33 0 55.5 6.5t36 17t19.5 25t6 31.5q0 16 -6 31t-19.5 25.5t-36 17t-55.5 6.5zM287 -127q78 0 113.5 20.5t35.5 49.5q0 31 -24.5 47.5t-62 25.5t-82.5 13.5t-87 11.5q-24 -16 -36 -41t-12 -48q0 -34 36.5 -57t119.5 -23z" />
    <glyph glyph-name="h" unicode="h" horiz-adv-x="595" 
d="M192 423q20 35 58 58.5t102 23.5q53 0 88.5 -15t56.5 -42t29.5 -63.5t8.5 -79.5v-306h-126v297q0 48 -24 77t-79 29q-33 0 -55 -10t-35.5 -27t-19 -39t-5.5 -47v-279h-126v700h126z" />
    <glyph glyph-name="i" unicode="i" horiz-adv-x="256" 
d="M65 560v124h126v-124h-126zM65 0v496h126v-496h-126z" />
    <glyph glyph-name="j" unicode="j" horiz-adv-x="259" 
d="M68 560v124h126v-124h-126zM195 -39q0 -40 -9 -72.5t-31 -56t-58 -36.5t-91 -13q-21 0 -33 3v96q13 -5 32 -5q37 1 50 22.5t13 61.5v535h126z" />
    <glyph glyph-name="k" unicode="k" horiz-adv-x="566" 
d="M191 145v-145h-126v700h126v-399q17 22 35 41.5t34 35.5l126 118h161l-186 -183l196 -313h-135l-145 230z" />
    <glyph glyph-name="l" unicode="l" horiz-adv-x="256" 
d="M65 0v700h126v-700h-126z" />
    <glyph glyph-name="m" unicode="m" horiz-adv-x="886" 
d="M182 405q17 41 54 69.5t102 28.5q61 0 97 -22.5t53 -61.5q20 37 57.5 61t100.5 24q52 0 86.5 -15t55 -42t29 -63.5t8.5 -79.5v-306h-126v297q0 48 -21 77t-69 29q-28 0 -47.5 -10.5t-31.5 -27.5t-17 -40.5t-5 -48.5v-275h-126v297q0 48 -20.5 77t-68.5 29
q-29 0 -48.5 -10.5t-31.5 -27.5t-17 -40.5t-5 -48.5v-275h-126v496h116z" />
    <glyph glyph-name="n" unicode="n" horiz-adv-x="595" 
d="M182 403q9 21 23 40t34.5 32.5t48.5 21.5t64 8q53 0 88.5 -15t56.5 -42t29.5 -63.5t8.5 -79.5v-306h-126v297q0 48 -24 77t-79 29q-33 0 -55 -10t-35.5 -27t-19 -39t-5.5 -47v-279h-126v496h116z" />
    <glyph glyph-name="o" unicode="o" horiz-adv-x="583" 
d="M291 506q71 0 119 -20.5t77 -55.5t41 -82t12 -100t-12 -100t-41 -82t-77 -55.5t-119 -20.5q-72 0 -119.5 20.5t-76.5 55.5t-41 82t-12 100t12 100t41 82t76.5 55.5t119.5 20.5zM291 407q-68 0 -95.5 -42.5t-27.5 -116.5t27.5 -116.5t95.5 -42.5t95.5 42.5t27.5 116.5
t-27.5 116.5t-95.5 42.5z" />
    <glyph glyph-name="p" unicode="p" horiz-adv-x="605" 
d="M181 405q22 46 64.5 73t111.5 27q60 0 99.5 -20.5t63 -55.5t33 -82t9.5 -100t-9.5 -100t-33 -82t-63 -55.5t-99.5 -20.5q-62 0 -102.5 22t-63.5 60v-275h-126v700h116v-91zM314 91q35 0 58.5 12.5t37.5 33.5t20 49.5t6 60.5t-6 60t-20 49t-37.5 33.5t-58.5 12.5
q-36 0 -59.5 -12.5t-37.5 -33.5t-20 -49t-6 -60t6 -60.5t20 -49.5t37.5 -33.5t59.5 -12.5z" />
    <glyph glyph-name="q" unicode="q" horiz-adv-x="605" 
d="M540 -204h-126v275q-23 -38 -63.5 -60t-102.5 -22q-60 0 -99.5 20.5t-63 55.5t-33 82t-9.5 100t9.5 100t33 82t63 55.5t99.5 20.5q69 0 111.5 -27t64.5 -72v90h116v-700zM291 92q35 0 58.5 12.5t38 33.5t20.5 49.5t6 60.5t-6 60t-20.5 49t-38 33.5t-58.5 12.5
q-36 0 -59.5 -12.5t-37.5 -33.5t-20 -49t-6 -60t6 -60.5t20 -49.5t37.5 -33.5t59.5 -12.5z" />
    <glyph glyph-name="r" unicode="r" horiz-adv-x="376" 
d="M181 392q10 23 25.5 44t37.5 37t50.5 25.5t64.5 9.5v-118q-50 0 -82 -11.5t-51.5 -29t-27 -39t-7.5 -41.5v-269h-126v496h116v-104z" />
    <glyph glyph-name="s" unicode="s" horiz-adv-x="522" 
d="M158 149q1 -33 24.5 -51.5t79.5 -18.5q45 0 73 14t28 46q0 18 -12.5 29.5t-33 19t-46.5 12.5t-54 11q-32 7 -63 17t-55.5 27t-40 43.5t-15.5 66.5q0 41 17.5 68t46.5 43.5t66.5 23.5t77.5 7q108 0 164 -40.5t56 -109.5h-119q0 12 -4 23.5t-14 20.5t-28.5 15t-48.5 6
q-50 0 -71.5 -15.5t-21.5 -39.5q0 -17 10 -28t27 -19t39 -13t46 -10q34 -7 69.5 -16.5t65 -26t48 -43t18.5 -68.5q0 -39 -16.5 -67.5t-46.5 -47.5t-71.5 -28.5t-90.5 -9.5q-60 0 -103 12.5t-70.5 34t-41 50t-13.5 60.5z" />
    <glyph glyph-name="t" unicode="t" horiz-adv-x="347" 
d="M209 157q0 -38 14.5 -52.5t55.5 -14.5q11 0 21 1t17 3v-96q-17 -4 -35 -5.5t-46 -1.5q-81 0 -116.5 35t-35.5 113v260h-65v97h65v128h126v-128h100v-97h-100z" />
    <glyph glyph-name="u" unicode="u" horiz-adv-x="595" 
d="M529 1h-116v93q-9 -21 -23 -40t-34.5 -33t-48.5 -22t-64 -8q-53 0 -88.5 15t-56.5 42t-29.5 63.5t-8.5 79.5v306h126v-297q0 -48 24 -77t79 -29q33 0 55 10t35.5 27t19 39t5.5 47v279h126z" />
    <glyph glyph-name="v" unicode="v" horiz-adv-x="553" 
d="M354 0h-154l-199 496h134l135 -359q4 -14 6 -24q2 5 3.5 11t3.5 13l134 359h135z" />
    <glyph glyph-name="w" unicode="w" horiz-adv-x="795" 
d="M678 -16h-160l-99 349q-2 5 -2.5 9.5t-1.5 8.5q-1 -4 -1.5 -8.5t-2.5 -9.5l-100 -349h-159l-129 496h125l96 -354q-5 2 -5 -1.5t1 -8.5q1 5 1.5 9t2.5 9l98 354h127l99 -354q-5 2 -5 -1.5t1 -8.5q1 5 1.5 9t2.5 9l96 354h125z" />
    <glyph glyph-name="x" unicode="x" horiz-adv-x="519" 
d="M259 181l-117 -181h-134l175 253l-167 243h133l110 -170l110 170h134l-168 -243l175 -253h-133z" />
    <glyph glyph-name="y" unicode="y" horiz-adv-x="552" 
d="M307 -63q-18 -44 -38.5 -73.5t-47.5 -47.5t-63 -25.5t-86 -7.5q-20 0 -30 3v101q8 -3 20 -6t26 -3q20 0 33 3t23 10t18 19t17 30l33 66l-210 490h133l134 -321q2 -6 4 -11.5t4 -11.5q2 6 4 11.5t4 11.5l133 321h133z" />
    <glyph glyph-name="z" unicode="z" horiz-adv-x="537" 
d="M495 0h-457v113l288 269q10 9 15 11h-297v103h445v-114l-287 -268q-11 -9 -15 -11h310z" />
    <glyph glyph-name="braceleft" unicode="{" horiz-adv-x="311" 
d="M221 387q0 -29 -13 -51t-45 -36q32 -14 45 -36t13 -51v-207q0 -34 14.5 -57.5t56.5 -23.5v-96q-57 0 -95 14t-60.5 38t-32 56t-9.5 69v207q0 23 -10.5 31t-42.5 8v96q32 0 42.5 8t10.5 31v206q0 37 9.5 69t32 56t60.5 38t95 14v-96q-42 0 -56.5 -23.5t-14.5 -57.5v-206z
" />
    <glyph glyph-name="bar" unicode="|" horiz-adv-x="279" 
d="M85 -204v1007h108v-1007h-108z" />
    <glyph glyph-name="braceright" unicode="}" horiz-adv-x="311" 
d="M215 387q0 -23 11 -31t43 -8v-96q-32 0 -43 -8t-11 -31v-207q0 -37 -9.5 -69t-32 -56t-60.5 -38t-95 -14v96q42 0 56.5 23.5t14.5 57.5v207q0 29 13 51t45 36q-32 14 -45 36t-13 51v206q0 34 -14.5 57.5t-56.5 23.5v96q57 0 95 -14t60.5 -38t32 -56t9.5 -69v-206z" />
    <glyph glyph-name="asciitilde" unicode="~" horiz-adv-x="425" 
d="M389 379q-3 -62 -35 -96t-78 -34q-30 0 -47.5 8.5t-30.5 19t-23 19t-25 8.5q-14 0 -25.5 -12.5t-14.5 -32.5h-74q3 62 34.5 96t77.5 34q30 0 48 -8.5t30.5 -19t22.5 -19t25 -8.5q14 0 25.5 12t13.5 32z" />
    <glyph glyph-name="exclamdown" unicode="&#xa1;" horiz-adv-x="306" 
d="M78 496h149v-156h-149v156zM101 272h104l29 -476h-162z" />
    <glyph glyph-name="cent" unicode="&#xa2;" horiz-adv-x="561" 
d="M400 325q-5 34 -32 56t-77 22q-35 0 -59 -12.5t-38 -34t-20 -50.5t-6 -62t6 -62t20 -50.5t38 -34t59 -12.5q50 0 77 22.5t32 56.5h126q-3 -34 -17.5 -64t-39.5 -53t-61 -38t-82 -19v-61h-90v63q-56 8 -93 31t-60 57t-32.5 76.5t-9.5 90.5t9.5 90.5t32.5 76t60 56.5t93 31
v65h90v-63q46 -4 82 -19t61 -38t39.5 -53t17.5 -64z" />
    <glyph glyph-name="sterling" unicode="&#xa3;" horiz-adv-x="624" 
d="M278 279q1 -5 1 -9v-9q0 -38 -24 -74.5t-78 -71.5h412v-112h-539v123q40 26 70.5 61.5t30.5 76.5q0 10 -1 15h-99v85h68q-15 31 -28 65.5t-13 78.5q0 54 21.5 92.5t57 63t80.5 36.5t92 12q65 0 112.5 -19t79 -49.5t48.5 -70t20 -80.5h-130q-3 17 -10.5 35.5t-22.5 34.5
t-38.5 26t-56.5 10q-54 0 -84.5 -25.5t-30.5 -70.5q0 -38 12 -72.5t25 -68.5h172v-85z" />
    <glyph glyph-name="currency" unicode="&#xa4;" horiz-adv-x="610" 
d="M516 489q21 -29 32.5 -64t11.5 -74q0 -40 -11.5 -75t-32.5 -64l50 -49l-62 -61l-50 50q-31 -20 -68.5 -31t-79.5 -11t-79.5 11t-68.5 31l-51 -50l-61 61l49 48q-21 29 -32.5 64.5t-11.5 75.5q0 39 11.5 74t32.5 64l-50 49l62 60l51 -50q31 20 68.5 31t79.5 11t79 -11
t68 -31l51 50l61 -61zM172 351q0 -56 36 -90t98 -34q61 0 97.5 34t36.5 90t-36.5 90t-97.5 34q-62 0 -98 -34t-36 -90z" />
    <glyph glyph-name="yen" unicode="&#xa5;" horiz-adv-x="631" 
d="M545 303v-67h-161v-58h161v-67h-161v-112h-139v112h-160v67h160v58h-160v67h155l-237 397h150l149 -242q9 -14 14 -30q5 16 14 30l148 242h150l-237 -397h154z" />
    <glyph glyph-name="brokenbar" unicode="&#xa6;" horiz-adv-x="279" 
d="M85 412v391h108v-391h-108zM85 -204v391h108v-391h-108z" />
    <glyph glyph-name="section" unicode="&#xa7;" horiz-adv-x="686" 
d="M487 493q-3 20 -12.5 39t-26.5 34t-42 24t-59 9q-51 0 -87 -20.5t-36 -59.5q0 -26 18 -43.5t48 -30t68 -22t78 -20t78 -24.5t68 -35.5t48 -52.5t18 -76q0 -43 -17.5 -76.5t-46.5 -58.5q13 -18 20 -40.5t7 -51.5q0 -50 -21 -88.5t-57 -64t-85 -38.5t-105 -13
q-130 0 -202.5 59.5t-76.5 158.5h136q2 -20 11.5 -39t26.5 -34t42 -24.5t59 -9.5q25 0 47.5 5t39 15t26 25t9.5 34q0 35 -31.5 55t-78.5 34t-101.5 27t-101.5 35t-78.5 58t-31.5 96q0 42 17 75.5t46 59.5q-13 18 -20 40.5t-7 51.5q0 50 21 88.5t57.5 64t85 38.5t104.5 13
q131 0 202.5 -59t76.5 -159zM162 298q0 -27 16 -45.5t42.5 -31t61.5 -21t73 -17t76 -18t71 -24.5q23 25 23 56q0 27 -16 45.5t-42.5 31t-61 21t-72.5 17t-76 18t-71 24.5q-23 -25 -23 -56h-1z" />
    <glyph glyph-name="dieresis" unicode="&#xa8;" horiz-adv-x="276" 
d="M0 559v94h101v-94h-101zM176 559v94h100v-94h-100z" />
    <glyph glyph-name="copyright" unicode="&#xa9;" horiz-adv-x="823" 
d="M409 710q101 0 169 -28t109.5 -77t59 -114t17.5 -140t-17.5 -141t-59 -114.5t-109.5 -77t-169 -28.5t-168 28.5t-107.5 77t-57.5 114.5t-17 141t17 140t57.5 114t107.5 77t168 28zM409 654q-81 0 -135.5 -24t-87 -65t-46 -96.5t-13.5 -119.5q0 -63 13.5 -118.5t46 -96.5
t87 -65t135.5 -24q83 0 138 24t88 65.5t47 96.5t14 118t-14 119t-47 97t-88 65t-138 24zM500 432q-6 22 -26.5 41t-61.5 19q-30 0 -49 -11t-30.5 -30.5t-16 -45t-4.5 -55.5t4.5 -55.5t16 -45t30.5 -30.5t49 -11q41 0 61.5 19t26.5 41h83q-2 -24 -13 -46.5t-32 -40.5
t-52.5 -29t-73.5 -11q-53 0 -89 16.5t-57.5 44.5t-30.5 66t-9 82q0 43 9 81.5t30.5 66.5t57.5 44.5t89 16.5q42 0 73.5 -11t52.5 -29t32 -40.5t13 -46.5h-83z" />
    <glyph glyph-name="ordfeminine" unicode="&#xaa;" horiz-adv-x="431" 
d="M54 594q2 65 43 91t119 26q32 0 60 -5.5t48.5 -17.5t32.5 -31t12 -47v-235h-95v59q-18 -33 -51.5 -49.5t-75.5 -16.5q-55 0 -81.5 25.5t-26.5 63.5q0 31 17.5 52t48.5 34t73 19t90 8v31q0 6 -2 13.5t-7.5 13.5t-16.5 10.5t-29 4.5q-19 0 -30 -5t-17.5 -12.5t-8.5 -15.5
t-3 -15zM268 531q-27 0 -52 -3t-43.5 -10.5t-30 -20t-11.5 -30.5q0 -20 15 -30.5t41 -10.5q31 0 56 20.5t25 61.5v23z" />
    <glyph glyph-name="guillemotleft" unicode="&#xab;" horiz-adv-x="483" 
d="M245 78h-99l-86 170l86 170h99l-89 -170zM427 78h-99l-86 170l86 170h99l-89 -170z" />
    <glyph glyph-name="logicalnot" unicode="&#xac;" horiz-adv-x="597" 
d="M552 85h-119v185h-396v96h516z" />
    <glyph glyph-name="uni00AD" unicode="&#xad;" horiz-adv-x="320" 
d="M12 243v96h296v-96h-296z" />
    <glyph glyph-name="registered" unicode="&#xae;" horiz-adv-x="823" 
d="M409 711q101 0 169 -28.5t109.5 -77t59 -114t17.5 -140.5t-17.5 -141t-59 -114.5t-109.5 -77t-169 -28.5t-168 28.5t-107.5 77t-57.5 114.5t-17 141t17 140.5t57.5 114t107.5 77t168 28.5zM409 46q83 0 138 24t88 65t47 96t14 118t-14 119t-47 97t-88 65t-138 24
q-81 0 -135.5 -24t-87 -65t-46 -97t-13.5 -119t13.5 -118t46 -96.5t87 -65t135.5 -23.5zM431 550q37 0 64.5 -10t46 -27.5t27.5 -40.5t9 -49q0 -41 -21.5 -72.5t-65.5 -45.5l92 -155h-90l-85 147h-62v-147h-84v401zM431 363q32 0 48.5 18t16.5 42q0 25 -16.5 42.5
t-48.5 17.5h-85v-120h85z" />
    <glyph glyph-name="macron" unicode="&#xaf;" horiz-adv-x="227" 
d="M0 564v62h227v-62h-227z" />
    <glyph glyph-name="degree" unicode="&#xb0;" horiz-adv-x="394" 
d="M197 710q29 0 54 -10t43.5 -27.5t29 -41.5t10.5 -52t-10.5 -51.5t-29 -41t-43.5 -27.5t-54 -10t-54 10t-43.5 27.5t-29 41t-10.5 51.5t10.5 52t29 41.5t43.5 27.5t54 10zM197 643q-29 0 -48.5 -18t-19.5 -46q0 -27 19.5 -45.5t48.5 -18.5q31 0 50.5 18.5t19.5 45.5
q0 28 -19.5 46t-50.5 18z" />
    <glyph glyph-name="plusminus" unicode="&#xb1;" horiz-adv-x="478" 
d="M425 291h-134v-121h-106v121h-133v97h133v121h106v-121h134v-97zM425 96v-96h-373v96h373z" />
    <glyph glyph-name="uni00B2" unicode="&#xb2;" horiz-adv-x="403" 
d="M23 691q1 73 48.5 111.5t132.5 38.5q35 0 67.5 -8.5t57.5 -25t40 -41.5t15 -59q0 -42 -20.5 -78t-52.5 -66.5t-70 -55.5t-73 -44h215v-89h-360v98q31 16 73.5 40.5t81.5 55t66 64.5t27 70q0 26 -18.5 38.5t-50.5 12.5q-36 0 -53 -17t-20 -44z" />
    <glyph glyph-name="uni00B3" unicode="&#xb3;" horiz-adv-x="419" 
d="M33 691q0 72 46.5 111t131.5 39q29 0 58.5 -6.5t53.5 -21t39 -37.5t15 -56q0 -36 -19 -60.5t-48 -38.5q38 -15 63.5 -43.5t25.5 -73.5q0 -38 -17.5 -64t-44.5 -42t-60.5 -23.5t-65.5 -7.5q-89 0 -140.5 40.5t-53.5 109.5h109q3 -23 21.5 -42t63.5 -19q35 0 56.5 17
t21.5 42q0 26 -20.5 41.5t-68.5 16.5v82q70 2 70 51q0 26 -20.5 37t-43.5 11q-35 0 -52 -16.5t-19 -45.5z" />
    <glyph glyph-name="acute" unicode="&#xb4;" horiz-adv-x="200" 
d="M1 540l51 126h148l-122 -126h-77z" />
    <glyph glyph-name="paragraph" unicode="&#xb6;" horiz-adv-x="747" 
d="M622 618v-822h-91v822h-79v-822h-89v458h-73q-64 0 -112 17.5t-80.5 48t-48.5 71t-16 86.5t16 86.5t48.5 71t80.5 48t112 17.5h412v-82h-80z" />
    <glyph glyph-name="periodcentered" unicode="&#xb7;" horiz-adv-x="248" 
d="M49 210v156h149v-156h-149z" />
    <glyph glyph-name="cedilla" unicode="&#xb8;" horiz-adv-x="175" 
d="M76 -45q48 -1 73 -20t25 -54t-29 -57.5t-100 -22.5q-25 0 -46 3v52q20 -7 46 -7q32 0 44.5 7.5t12.5 19.5q0 17 -19 23t-73 6l47 132l40 -4z" />
    <glyph glyph-name="uni00B9" unicode="&#xb9;" horiz-adv-x="317" 
d="M260 375h-111v349l-84 -61l-54 69l142 103h108z" />
    <glyph glyph-name="ordmasculine" unicode="&#xba;" horiz-adv-x="435" 
d="M217 711q50 0 83.5 -13.5t54 -37t29 -54.5t8.5 -66t-8.5 -66.5t-29 -55t-54 -37t-83.5 -13.5t-83.5 13.5t-53.5 37t-28.5 55t-8.5 66.5t8.5 66t28.5 54.5t53.5 37t83.5 13.5zM217 629q-21 0 -34.5 -7t-22 -19t-12 -28t-3.5 -35q0 -38 15.5 -64t56.5 -26q42 0 57.5 26
t15.5 64t-15.5 63.5t-57.5 25.5z" />
    <glyph glyph-name="guillemotright" unicode="&#xbb;" horiz-adv-x="482" 
d="M338 78h-99l89 170l-89 170h99l86 -170zM157 78h-99l89 170l-89 170h99l86 -170z" />
    <glyph glyph-name="onequarter" unicode="&#xbc;" horiz-adv-x="1047" 
d="M148 589l-84 -61l-54 69l142 103h108v-460h-111zM319 0h-81l345 700h82zM955 100v-101h-111v101h-241v95l156 265h117l-169 -271h136v103h111v-103h76v-88z" />
    <glyph glyph-name="onehalf" unicode="&#xbd;" horiz-adv-x="994" 
d="M148 589l-84 -61l-54 69l142 103h108v-460h-111zM319 0h-81l345 700h82zM611 317q1 73 48.5 111.5t132.5 38.5q35 0 67.5 -8.5t57.5 -25t40 -41.5t15 -59q0 -42 -20.5 -78t-52.5 -66.5t-70 -55.5t-73 -44h215v-89h-360v98q31 16 73.5 40.5t81.5 55t66 64.5t27 70
q0 26 -18.5 38.5t-50.5 12.5q-36 0 -53 -17t-20 -44z" />
    <glyph glyph-name="threequarters" unicode="&#xbe;" horiz-adv-x="1149" 
d="M33 557q0 72 46.5 111t131.5 39q29 0 58.5 -6.5t53.5 -21t39 -37.5t15 -56q0 -36 -19 -60.5t-48 -38.5q38 -15 63.5 -43.5t25.5 -73.5q0 -38 -17.5 -64t-44.5 -42t-60.5 -23.5t-65.5 -7.5q-89 0 -140.5 40.5t-53.5 109.5h109q3 -23 21.5 -42t63.5 -19q35 0 56.5 17
t21.5 42q0 26 -20.5 41.5t-68.5 16.5v82q70 2 70 51q0 26 -20.5 37t-43.5 11q-35 0 -52 -16.5t-19 -45.5zM423 -1h-81l345 700h82zM1059 99v-101h-111v101h-241v95l156 265h117l-169 -271h136v103h111v-103h76v-88z" />
    <glyph glyph-name="questiondown" unicode="&#xbf;" horiz-adv-x="647" 
d="M251 339v156h149v-156h-149zM603 3q-1 -60 -23 -101.5t-60 -67.5t-88.5 -37.5t-107.5 -11.5q-55 0 -105 13t-87.5 39t-60 65t-22.5 92q0 48 19.5 82.5t50.5 57.5t70.5 35t78.5 16l6 85h103l11 -147q-98 -7 -155.5 -37t-57.5 -89q0 -48 39.5 -78.5t111.5 -30.5
q70 0 111 29.5t43 84.5z" />
    <glyph glyph-name="Agrave" unicode="&#xc0;" horiz-adv-x="692" 
d="M186 869h148l51 -126h-78zM202 143l-56 -143h-141l273 700h137l273 -700h-140l-56 143h-290zM357 489q-3 9 -6 18.5t-5 18.5q-2 -9 -5 -18.5t-6 -18.5l-90 -234h204z" />
    <glyph glyph-name="Aacute" unicode="&#xc1;" horiz-adv-x="692" 
d="M308 743l51 126h148l-122 -126h-77zM203 143l-56 -143h-141l273 700h137l273 -700h-140l-56 143h-290zM358 489q-3 9 -6 18.5t-5 18.5q-2 -9 -5 -18.5t-6 -18.5l-90 -234h204z" />
    <glyph glyph-name="Acircumflex" unicode="&#xc2;" horiz-adv-x="692" 
d="M210 744l82 126h108l82 -126h-74l-62 63l-62 -63h-74zM201 143l-56 -143h-141l273 700h137l273 -700h-140l-56 143h-290zM356 489q-3 9 -6 18.5t-5 18.5q-2 -9 -5 -18.5t-6 -18.5l-90 -234h204z" />
    <glyph glyph-name="Atilde" unicode="&#xc3;" horiz-adv-x="692" 
d="M496 847q-2 -53 -29 -81t-66 -28q-22 0 -36 7t-25 16t-22 16t-26 7q-13 0 -22.5 -10t-12.5 -29h-60q2 53 29 81t66 28q22 0 36 -7t25 -16t22 -16t26 -7q13 0 22.5 10t12.5 29h60zM202 144l-56 -143h-141l273 700h137l273 -700h-140l-56 143h-290zM357 490q-3 9 -6 18.5
t-5 18.5q-2 -9 -5 -18.5t-6 -18.5l-90 -234h204z" />
    <glyph glyph-name="Adieresis" unicode="&#xc4;" horiz-adv-x="692" 
d="M207 762v94h101v-94h-101zM383 762v94h100v-94h-100zM201 143l-56 -143h-141l273 700h137l273 -700h-140l-56 143h-290zM356 489q-3 9 -6 18.5t-5 18.5q-2 -9 -5 -18.5t-6 -18.5l-90 -234h204z" />
    <glyph glyph-name="Aring" unicode="&#xc5;" horiz-adv-x="692" 
d="M346 737q-51 0 -79.5 24.5t-28.5 69.5t28.5 69.5t79.5 24.5t79.5 -24.5t28.5 -69.5t-28.5 -69.5t-79.5 -24.5zM346 873q-52 0 -52 -42q0 -44 52 -44t52 44q0 42 -52 42zM201 144l-56 -143h-141l273 700h137l273 -700h-140l-56 143h-290zM356 490q-3 9 -6 18.5t-5 18.5
q-2 -9 -5 -18.5t-6 -18.5l-90 -234h204z" />
    <glyph glyph-name="AE" unicode="&#xc6;" horiz-adv-x="861" 
d="M524 419h275v-112h-231l76 -195h175v-112h-271l-56 143h-291l-56 -143h-141l273 700h541v-112h-360zM356 490q-3 9 -6 18.5t-5 18.5q-2 -9 -5 -18.5t-6 -18.5l-90 -234h204z" />
    <glyph glyph-name="Ccedilla" unicode="&#xc7;" horiz-adv-x="705" 
d="M525 492q-5 18 -16.5 37t-31 34.5t-47 25t-63.5 9.5q-52 0 -86.5 -20t-54.5 -53.5t-28.5 -79t-8.5 -96.5t8.5 -96.5t28.5 -79t54.5 -53.5t86.5 -20q36 0 63.5 9.5t47 25t31 34.5t16.5 37h136q-4 -41 -22.5 -79.5t-53 -68.5t-85 -48.5t-117.5 -20.5l-9 -34q48 -1 73 -20
t25 -54t-29 -57.5t-100 -22.5q-25 0 -46 3v52q20 -7 46 -7q32 0 44.5 7.5t12.5 19.5q0 17 -19 23t-73 6l30 85q-83 5 -138 35t-88.5 78.5t-47.5 111.5t-14 135q0 75 15.5 140.5t52 114t97.5 77t153 28.5q71 0 124.5 -18t89.5 -48.5t55.5 -70t23.5 -81.5h-136z" />
    <glyph glyph-name="Egrave" unicode="&#xc8;" horiz-adv-x="605" 
d="M157 869h148l51 -126h-78zM212 420h331v-112h-331v-195h351v-112h-490v700h490v-112h-351v-169z" />
    <glyph glyph-name="Eacute" unicode="&#xc9;" horiz-adv-x="605" 
d="M279 743l51 126h148l-122 -126h-77zM213 419h331v-112h-331v-195h351v-112h-490v700h490v-112h-351v-169z" />
    <glyph glyph-name="Ecircumflex" unicode="&#xca;" horiz-adv-x="605" 
d="M181 744l82 126h108l82 -126h-74l-62 63l-62 -63h-74zM212 419h331v-112h-331v-195h351v-112h-490v700h490v-112h-351v-169z" />
    <glyph glyph-name="Edieresis" unicode="&#xcb;" horiz-adv-x="605" 
d="M178 762v94h101v-94h-101zM354 762v94h100v-94h-100zM211 419h331v-112h-331v-195h351v-112h-490v700h490v-112h-351v-169z" />
    <glyph glyph-name="Igrave" unicode="&#xcc;" horiz-adv-x="284" 
d="M105 743l-122 126h148l51 -126h-77zM74 0v700h139v-700h-139z" />
    <glyph glyph-name="Iacute" unicode="&#xcd;" horiz-adv-x="284" 
d="M105 743l51 126h148l-122 -126h-77zM74 0v700h139v-700h-139z" />
    <glyph glyph-name="Icircumflex" unicode="&#xce;" horiz-adv-x="284" 
d="M7 744l82 126h108l82 -126h-74l-62 63l-62 -63h-74zM212 700v-700h-139v700h139z" />
    <glyph glyph-name="Idieresis" unicode="&#xcf;" horiz-adv-x="284" 
d="M5 762v94h101v-94h-101zM181 762v94h100v-94h-100zM73 0v700h139v-700h-139z" />
    <glyph glyph-name="Eth" unicode="&#xd0;" horiz-adv-x="720" 
d="M314 700q111 0 180.5 -25.5t108.5 -72t53 -111t14 -141.5q0 -80 -14 -145t-53 -110.5t-108.5 -70t-180.5 -24.5h-229v326h-76v62h76v312h229zM314 114q66 0 108 14t66 43t33 74t9 107t-9 107t-33 74t-66 43t-108 14h-90v-201h68v-62h-68v-215z" />
    <glyph glyph-name="Ntilde" unicode="&#xd1;" horiz-adv-x="740" 
d="M520 847q-2 -53 -29 -81t-66 -28q-22 0 -36 7t-25 16t-22 16t-26 7q-13 0 -22.5 -10t-12.5 -29h-60q2 53 29 81t66 28q22 0 36 -7t25 -16t22 -16t26 -7q13 0 22.5 10t12.5 29h60zM667 0h-142l-293 433q-20 30 -29 48v-480h-131v700h142l293 -433q20 -30 29 -48v480h131
v-700z" />
    <glyph glyph-name="Ograve" unicode="&#xd2;" horiz-adv-x="738" 
d="M331 743l-122 126h148l51 -126h-77zM369 710q92 0 153.5 -28.5t98.5 -77t52.5 -114t15.5 -140.5t-15.5 -140.5t-52.5 -114t-98.5 -77t-153.5 -28.5t-153 28.5t-97.5 77t-52 114t-15.5 140.5t15.5 140.5t52 114t97.5 77t153 28.5zM370 598q-53 0 -87.5 -20t-54.5 -53.5
t-28.5 -79t-8.5 -96.5t8.5 -96.5t28.5 -79t54.5 -53.5t87.5 -20q52 0 86.5 20t55.5 53.5t29.5 79t8.5 96.5t-8.5 96.5t-29.5 79t-55.5 53.5t-86.5 20z" />
    <glyph glyph-name="Oacute" unicode="&#xd3;" horiz-adv-x="738" 
d="M331 743l51 126h148l-122 -126h-77zM369 710q92 0 153.5 -28.5t98.5 -77t52.5 -114t15.5 -140.5t-15.5 -140.5t-52.5 -114t-98.5 -77t-153.5 -28.5t-153 28.5t-97.5 77t-52 114t-15.5 140.5t15.5 140.5t52 114t97.5 77t153 28.5zM370 598q-53 0 -87.5 -20t-54.5 -53.5
t-28.5 -79t-8.5 -96.5t8.5 -96.5t28.5 -79t54.5 -53.5t87.5 -20q52 0 86.5 20t55.5 53.5t29.5 79t8.5 96.5t-8.5 96.5t-29.5 79t-55.5 53.5t-86.5 20z" />
    <glyph glyph-name="Ocircumflex" unicode="&#xd4;" horiz-adv-x="738" 
d="M233 744l82 126h108l82 -126h-74l-62 63l-62 -63h-74zM368 710q92 0 153.5 -28.5t98.5 -77t52.5 -114t15.5 -140.5t-15.5 -140.5t-52.5 -114t-98.5 -77t-153.5 -28.5t-153 28.5t-97.5 77t-52 114t-15.5 140.5t15.5 140.5t52 114t97.5 77t153 28.5zM369 101q52 0 86.5 20
t55.5 53.5t29.5 79t8.5 96.5t-8.5 96.5t-29.5 79t-55.5 53.5t-86.5 20q-53 0 -87.5 -20t-54.5 -53.5t-28.5 -79t-8.5 -96.5t8.5 -96.5t28.5 -79t54.5 -53.5t87.5 -20z" />
    <glyph glyph-name="Otilde" unicode="&#xd5;" horiz-adv-x="738" 
d="M218 744q2 53 29 81t66 28q22 0 36 -7t25 -16t22 -16t26 -7q13 0 22.5 10t12.5 29h60q-2 -53 -29 -81t-66 -28q-22 0 -36 7t-25 16t-22 16t-26 7q-13 0 -22.5 -10t-12.5 -29h-60zM368 710q92 0 153.5 -28.5t98.5 -77t52.5 -114t15.5 -140.5t-15.5 -140.5t-52.5 -114
t-98.5 -77t-153.5 -28.5t-153 28.5t-97.5 77t-52 114t-15.5 140.5t15.5 140.5t52 114t97.5 77t153 28.5zM369 598q-53 0 -87.5 -20t-54.5 -53.5t-28.5 -79t-8.5 -96.5t8.5 -96.5t28.5 -79t54.5 -53.5t87.5 -20q52 0 86.5 20t55.5 53.5t29.5 79t8.5 96.5t-8.5 96.5t-29.5 79
t-55.5 53.5t-86.5 20z" />
    <glyph glyph-name="Odieresis" unicode="&#xd6;" horiz-adv-x="738" 
d="M231 762v94h101v-94h-101zM407 762v94h100v-94h-100zM368 710q92 0 153.5 -28.5t98.5 -77t52.5 -114t15.5 -140.5t-15.5 -140.5t-52.5 -114t-98.5 -77t-153.5 -28.5t-153 28.5t-97.5 77t-52 114t-15.5 140.5t15.5 140.5t52 114t97.5 77t153 28.5zM369 598
q-53 0 -87.5 -20t-54.5 -53.5t-28.5 -79t-8.5 -96.5t8.5 -96.5t28.5 -79t54.5 -53.5t87.5 -20q52 0 86.5 20t55.5 53.5t29.5 79t8.5 96.5t-8.5 96.5t-29.5 79t-55.5 53.5t-86.5 20z" />
    <glyph glyph-name="multiply" unicode="&#xd7;" horiz-adv-x="407" 
d="M374 415l-273 -260l-69 69l274 259z" />
    <glyph glyph-name="Oslash" unicode="&#xd8;" horiz-adv-x="738" 
d="M580 644q30 -24 50 -56t33 -70t18.5 -80.5t5.5 -88.5q0 -75 -15.5 -140.5t-52.5 -114t-98.5 -77t-153.5 -28.5q-87 0 -148 26l-31 -54l-61 33l32 56q-61 49 -85.5 127.5t-24.5 172.5q0 75 15.5 140.5t52 114t97.5 77t153 28.5q89 0 153 -28l33 58l62 -34zM459 575
q-37 23 -91 23q-53 0 -87.5 -20t-54.5 -53.5t-28.5 -79t-8.5 -96.5q0 -53 8.5 -99t30.5 -80zM280 120q35 -20 87 -20t86.5 20t55.5 53.5t29.5 79t8.5 96.5t-8.5 95.5t-28.5 78.5z" />
    <glyph glyph-name="Ugrave" unicode="&#xd9;" horiz-adv-x="699" 
d="M311 743l-122 126h148l51 -126h-77zM629 236q0 -51 -13.5 -95.5t-46 -78t-86 -53t-134.5 -19.5q-80 0 -133.5 19.5t-85.5 53t-45.5 78t-13.5 95.5v464h139v-464q0 -27 6 -51.5t22 -43t43 -29.5t69 -11t69.5 11t43 29.5t21.5 43t6 51.5v464h139v-464z" />
    <glyph glyph-name="Uacute" unicode="&#xda;" horiz-adv-x="699" 
d="M311 743l51 126h148l-122 -126h-77zM629 236q0 -51 -13.5 -95.5t-46 -78t-86 -53t-134.5 -19.5q-80 0 -133.5 19.5t-85.5 53t-45.5 78t-13.5 95.5v464h139v-464q0 -27 6 -51.5t22 -43t43 -29.5t69 -11t69.5 11t43 29.5t21.5 43t6 51.5v464h139v-464z" />
    <glyph glyph-name="Ucircumflex" unicode="&#xdb;" horiz-adv-x="699" 
d="M213 744l82 126h108l82 -126h-74l-62 63l-62 -63h-74zM628 236q0 -51 -13.5 -95.5t-46 -78t-86 -53t-134.5 -19.5q-80 0 -133.5 19.5t-85.5 53t-45.5 78t-13.5 95.5v464h139v-464q0 -27 6 -51.5t22 -43t43 -29.5t69 -11t69.5 11t43 29.5t21.5 43t6 51.5v464h139v-464z
" />
    <glyph glyph-name="Udieresis" unicode="&#xdc;" horiz-adv-x="699" 
d="M211 762v94h101v-94h-101zM387 762v94h100v-94h-100zM629 236q0 -51 -13.5 -95.5t-46 -78t-86 -53t-134.5 -19.5q-80 0 -133.5 19.5t-85.5 53t-45.5 78t-13.5 95.5v464h139v-464q0 -27 6 -51.5t22 -43t43 -29.5t69 -11t69.5 11t43 29.5t21.5 43t6 51.5v464h139v-464z" />
    <glyph glyph-name="Yacute" unicode="&#xdd;" horiz-adv-x="634" 
d="M279 743l51 126h148l-122 -126h-77zM386 0h-139v295l-242 405h150l149 -242q9 -14 14 -30q5 16 14 30l148 242h150l-243 -406z" />
    <glyph glyph-name="Thorn" unicode="&#xde;" horiz-adv-x="636" 
d="M359 579q63 0 110 -17t78.5 -46.5t47 -69t15.5 -84.5q0 -44 -15.5 -83.5t-47 -69t-78.5 -47t-110 -17.5h-147v-145h-139v700h139v-121h147zM352 257q56 0 84.5 30.5t28.5 74.5t-28.5 74.5t-84.5 30.5h-140v-211z" />
    <glyph glyph-name="germandbls" unicode="&#xdf;" horiz-adv-x="608" 
d="M66 521q0 40 12.5 75t39.5 60.5t71 40t108 14.5q63 0 106.5 -14.5t70.5 -39t39 -57t12 -68.5q0 -48 -19 -83.5t-63 -56.5q67 -26 95.5 -73.5t28.5 -107.5q0 -48 -15.5 -87.5t-51 -68t-93 -44t-142.5 -15.5v102q91 1 132.5 31t41.5 89q0 57 -38.5 90.5t-127.5 33.5h-9v93
h9q66 0 96 23t30 62q0 35 -24 57t-80 22t-80 -22.5t-24 -57.5v-519h-126z" />
    <glyph glyph-name="agrave" unicode="&#xe0;" horiz-adv-x="570" 
d="M130 669h148l51 -126h-78zM60 337q4 90 61.5 130t170.5 40q45 0 85 -8.5t70 -26.5t47 -47t17 -71v-353h-116v97q-25 -56 -75.5 -81.5t-119.5 -25.5q-80 0 -120 38t-40 97q0 60 34.5 95t86.5 53.5t112 24.5t111 7v47q0 9 -3 20.5t-12.5 22t-28.5 18t-51 7.5
q-34 0 -54 -8.5t-31 -21t-15.5 -27.5t-5.5 -28zM385 235q-44 0 -84 -4.5t-71.5 -14t-50 -26.5t-18.5 -42q0 -31 24.5 -47t63.5 -16q25 0 49.5 7.5t43.5 23t31 39t12 56.5v24z" />
    <glyph glyph-name="aacute" unicode="&#xe1;" horiz-adv-x="570" 
d="M251 543l51 126h148l-122 -126h-77zM59 337q4 90 61.5 130t170.5 40q45 0 85 -8.5t70 -26.5t47 -47t17 -71v-353h-116v97q-25 -56 -75.5 -81.5t-119.5 -25.5q-80 0 -120 38t-40 97q0 60 34.5 95t86.5 53.5t112 24.5t111 7v47q0 9 -3 20.5t-12.5 22t-28.5 18t-51 7.5
q-34 0 -54 -8.5t-31 -21t-15.5 -27.5t-5.5 -28zM384 235q-44 0 -84 -4.5t-71.5 -14t-50 -26.5t-18.5 -42q0 -31 24.5 -47t63.5 -16q25 0 49.5 7.5t43.5 23t31 39t12 56.5v24z" />
    <glyph glyph-name="acircumflex" unicode="&#xe2;" horiz-adv-x="570" 
d="M154 544l82 126h108l82 -126h-74l-62 63l-62 -63h-74zM59 337q4 90 61.5 130t170.5 40q45 0 85 -8.5t70 -26.5t47 -47t17 -71v-353h-116v97q-25 -56 -75.5 -81.5t-119.5 -25.5q-80 0 -120 38t-40 97q0 60 34.5 95t86.5 53.5t112 24.5t111 7v47q0 9 -3 20.5t-12.5 22
t-28.5 18t-51 7.5q-34 0 -54 -8.5t-31 -21t-15.5 -27.5t-5.5 -28zM384 235q-44 0 -84 -4.5t-71.5 -14t-50 -26.5t-18.5 -42q0 -31 24.5 -47t63.5 -16q25 0 49.5 7.5t43.5 23t31 39t12 56.5v24z" />
    <glyph glyph-name="atilde" unicode="&#xe3;" horiz-adv-x="570" 
d="M439 647q-2 -53 -29 -81t-66 -28q-22 0 -36 7t-25 16t-22 16t-26 7q-13 0 -22.5 -10t-12.5 -29h-60q2 53 29 81t66 28q22 0 36 -7t25 -16t22 -16t26 -7q13 0 22.5 10t12.5 29h60zM58 337q4 90 61.5 130t170.5 40q45 0 85 -8.5t70 -26.5t47 -47t17 -71v-353h-116v97
q-25 -56 -75.5 -81.5t-119.5 -25.5q-80 0 -120 38t-40 97q0 60 34.5 95t86.5 53.5t112 24.5t111 7v47q0 9 -3 20.5t-12.5 22t-28.5 18t-51 7.5q-34 0 -54 -8.5t-31 -21t-15.5 -27.5t-5.5 -28zM383 235q-44 0 -84 -4.5t-71.5 -14t-50 -26.5t-18.5 -42q0 -31 24.5 -47
t63.5 -16q25 0 49.5 7.5t43.5 23t31 39t12 56.5v24z" />
    <glyph glyph-name="adieresis" unicode="&#xe4;" horiz-adv-x="570" 
d="M151 562v94h101v-94h-101zM327 562v94h100v-94h-100zM59 337q4 90 61.5 130t170.5 40q45 0 85 -8.5t70 -26.5t47 -47t17 -71v-353h-116v97q-25 -56 -75.5 -81.5t-119.5 -25.5q-80 0 -120 38t-40 97q0 60 34.5 95t86.5 53.5t112 24.5t111 7v47q0 9 -3 20.5t-12.5 22
t-28.5 18t-51 7.5q-34 0 -54 -8.5t-31 -21t-15.5 -27.5t-5.5 -28zM384 235q-44 0 -84 -4.5t-71.5 -14t-50 -26.5t-18.5 -42q0 -31 24.5 -47t63.5 -16q25 0 49.5 7.5t43.5 23t31 39t12 56.5v24z" />
    <glyph glyph-name="aring" unicode="&#xe5;" horiz-adv-x="570" 
d="M290 536q-51 0 -79.5 24.5t-28.5 69.5t28.5 69.5t79.5 24.5t79.5 -24.5t28.5 -69.5t-28.5 -69.5t-79.5 -24.5zM290 672q-52 0 -52 -42q0 -44 52 -44t52 44q0 42 -52 42zM59 336q4 90 61.5 130t170.5 40q45 0 85 -8.5t70 -26.5t47 -47t17 -71v-353h-116v97
q-25 -56 -75.5 -81.5t-119.5 -25.5q-80 0 -120 38t-40 97q0 60 34.5 95t86.5 53.5t112 24.5t111 7v47q0 9 -3 20.5t-12.5 22t-28.5 18t-51 7.5q-34 0 -54 -8.5t-31 -21t-15.5 -27.5t-5.5 -28zM384 234q-44 0 -84 -4.5t-71.5 -14t-50 -26.5t-18.5 -42q0 -31 24.5 -47
t63.5 -16q25 0 49.5 7.5t43.5 23t31 39t12 56.5v24z" />
    <glyph glyph-name="ae" unicode="&#xe6;" horiz-adv-x="914" 
d="M56 331q2 95 57 136t164 41q58 0 106 -15t75 -50q29 30 72 47.5t106 17.5q76 0 122 -21t71.5 -56.5t34 -82.5t8.5 -99v-13t-1 -15h-365q2 -27 9.5 -51.5t22 -42.5t37 -28.5t54.5 -10.5q48 0 77.5 21.5t34.5 59.5h124q-4 -38 -20.5 -70.5t-46 -56t-71.5 -37t-96 -13.5
q-81 0 -130.5 24.5t-75.5 68.5q-33 -48 -89.5 -71t-123.5 -23q-85 0 -129 38t-44 97q0 60 34.5 95t86 53.5t112 24.5t111.5 7v47q0 9 -3 20.5t-13 22t-29 18t-51 7.5q-35 0 -55.5 -9.5t-31 -23.5t-14.5 -30t-5 -29zM750 297q-2 24 -8.5 44.5t-20 36.5t-36 25t-56.5 9
q-30 0 -51.5 -8.5t-36 -24t-22.5 -37t-11 -46.5zM388 237q-49 0 -91 -5.5t-72.5 -16.5t-47.5 -28t-17 -39q0 -31 25 -47t66 -16q24 0 49.5 7t46 22t33 37.5t10.5 52.5z" />
    <glyph glyph-name="ccedilla" unicode="&#xe7;" horiz-adv-x="561" 
d="M399 327q-5 34 -32 56t-77 22q-35 0 -59 -12.5t-38 -34t-20 -50.5t-6 -62t6 -62t20 -50.5t38 -34t59 -12.5q50 0 77 22.5t32 56.5h126q-4 -36 -20 -67.5t-43.5 -55t-67.5 -38t-91 -15.5l-9 -34q48 -1 73 -20t25 -54t-29 -57.5t-100 -22.5q-25 0 -46 3v52q20 -7 46 -7
q32 0 44.5 7.5t12.5 19.5q0 17 -19 23t-73 6l30 85q-62 5 -103.5 27t-66.5 56.5t-35.5 79t-10.5 94.5q0 53 12 100t41 82t76.5 55.5t119.5 20.5q54 0 96.5 -13.5t72 -37.5t46 -56.5t20.5 -69.5z" />
    <glyph glyph-name="egrave" unicode="&#xe8;" horiz-adv-x="576" 
d="M131 669h148l51 -126h-78zM293 507q67 0 113 -17t75 -50t42 -81t13 -110v-13.5t-1 -16.5h-368q5 -67 33 -101.5t94 -34.5q48 0 77 23t34 61h123q-5 -38 -22 -70.5t-46.5 -56t-71.5 -37t-96 -13.5q-72 0 -119.5 19.5t-76.5 54t-41 81.5t-12 103q0 51 12 97.5t41 82.5
t76.5 57t119.5 21v-93q-60 0 -88.5 -29.5t-35.5 -86.5h245q-2 25 -8 46t-19.5 36.5t-36.5 24.5t-57 9z" />
    <glyph glyph-name="eacute" unicode="&#xe9;" horiz-adv-x="576" 
d="M253 543l51 126h148l-122 -126h-77zM293 507q67 0 113 -17t75 -50t42 -81t13 -110v-13.5t-1 -16.5h-368q5 -67 33 -101.5t94 -34.5q48 0 77 23t34 61h123q-5 -38 -22 -70.5t-46.5 -56t-71.5 -37t-96 -13.5q-72 0 -119.5 19.5t-76.5 54t-41 81.5t-12 103q0 51 12 97.5
t41 82.5t76.5 57t119.5 21v-93q-60 0 -88.5 -29.5t-35.5 -86.5h245q-2 25 -8 46t-19.5 36.5t-36.5 24.5t-57 9z" />
    <glyph glyph-name="ecircumflex" unicode="&#xea;" horiz-adv-x="576" 
d="M156 544l82 126h108l82 -126h-74l-62 63l-62 -63h-74zM293 507q67 0 113 -17t75 -50t42 -81t13 -110v-13.5t-1 -16.5h-368q5 -67 33 -101.5t94 -34.5q48 0 77 23t34 61h123q-5 -38 -22 -70.5t-46.5 -56t-71.5 -37t-96 -13.5q-72 0 -119.5 19.5t-76.5 54t-41 81.5t-12 103
q0 51 12 97.5t41 82.5t76.5 57t119.5 21v-93q-60 0 -88.5 -29.5t-35.5 -86.5h245q-2 25 -8 46t-19.5 36.5t-36.5 24.5t-57 9z" />
    <glyph glyph-name="edieresis" unicode="&#xeb;" horiz-adv-x="576" 
d="M153 562v94h101v-94h-101zM329 562v94h100v-94h-100zM293 507q67 0 113 -17t75 -50t42 -81t13 -110v-13.5t-1 -16.5h-368q5 -67 33 -101.5t94 -34.5q48 0 77 23t34 61h123q-5 -38 -22 -70.5t-46.5 -56t-71.5 -37t-96 -13.5q-72 0 -119.5 19.5t-76.5 54t-41 81.5t-12 103
q0 51 12 97.5t41 82.5t76.5 57t119.5 21v-93q-60 0 -88.5 -29.5t-35.5 -86.5h245q-2 25 -8 46t-19.5 36.5t-36.5 24.5t-57 9z" />
    <glyph glyph-name="igrave" unicode="&#xec;" horiz-adv-x="256" 
d="M90 539l-122 126h148l51 -126h-77zM66 0v496h126v-496h-126z" />
    <glyph glyph-name="iacute" unicode="&#xed;" horiz-adv-x="256" 
d="M90 539l51 126h148l-122 -126h-77zM66 0v496h126v-496h-126z" />
    <glyph glyph-name="icircumflex" unicode="&#xee;" horiz-adv-x="256" 
d="M-8 540l82 126h108l82 -126h-74l-62 63l-62 -63h-74zM191 496v-496h-126v496h126z" />
    <glyph glyph-name="idieresis" unicode="&#xef;" horiz-adv-x="256" 
d="M-11 558v94h101v-94h-101zM165 558v94h100v-94h-100zM64 0v496h126v-496h-126z" />
    <glyph glyph-name="eth" unicode="&#xf0;" horiz-adv-x="604" 
d="M432 622q27 -29 50 -65.5t40.5 -81.5t27.5 -100.5t10 -122.5q0 -54 -13.5 -101.5t-43.5 -83t-79 -56t-121 -20.5q-133 0 -197 63t-64 174q0 109 58 171.5t183 62.5q50 0 87.5 -10.5t65.5 -28.5q-8 42 -26.5 79.5t-49.5 73.5l-66 -41l-28 43l58 36q-24 22 -54 45l56 52
q34 -24 69 -54l69 43l28 -43zM300 90q38 0 63.5 11t41.5 29.5t22.5 44t6.5 54.5q0 28 -7 53.5t-22.5 45t-41.5 30.5t-65 11q-37 0 -62 -10.5t-40.5 -29t-22 -44t-6.5 -54.5q0 -31 7 -57t23 -44.5t41.5 -29t61.5 -10.5z" />
    <glyph glyph-name="ntilde" unicode="&#xf1;" horiz-adv-x="595" 
d="M454 647q-2 -53 -29 -81t-66 -28q-22 0 -36 7t-25 16t-22 16t-26 7q-13 0 -22.5 -10t-12.5 -29h-60q2 53 29 81t66 28q22 0 36 -7t25 -16t22 -16t26 -7q13 0 22.5 10t12.5 29h60zM181 403q9 21 23 40t34.5 32.5t48.5 21.5t64 8q53 0 88.5 -15t56.5 -42t29.5 -63.5
t8.5 -79.5v-306h-126v297q0 48 -24 77t-79 29q-32 0 -54 -10t-35.5 -27t-19 -39t-5.5 -47v-279h-126v496h116v-93z" />
    <glyph glyph-name="ograve" unicode="&#xf2;" horiz-adv-x="583" 
d="M253 543l-122 126h148l51 -126h-77zM292 506q71 0 119 -20.5t77 -55.5t41 -82t12 -100t-12 -100t-41 -82t-77 -55.5t-119 -20.5q-72 0 -119.5 20.5t-76.5 55.5t-41 82t-12 100t12 100t41 82t76.5 55.5t119.5 20.5zM292 407q-68 0 -95.5 -42.5t-27.5 -116.5t27.5 -116.5
t95.5 -42.5t95.5 42.5t27.5 116.5t-27.5 116.5t-95.5 42.5z" />
    <glyph glyph-name="oacute" unicode="&#xf3;" horiz-adv-x="583" 
d="M253 543l51 126h148l-122 -126h-77zM292 506q71 0 119 -20.5t77 -55.5t41 -82t12 -100t-12 -100t-41 -82t-77 -55.5t-119 -20.5q-72 0 -119.5 20.5t-76.5 55.5t-41 82t-12 100t12 100t41 82t76.5 55.5t119.5 20.5zM292 407q-68 0 -95.5 -42.5t-27.5 -116.5t27.5 -116.5
t95.5 -42.5t95.5 42.5t27.5 116.5t-27.5 116.5t-95.5 42.5z" />
    <glyph glyph-name="ocircumflex" unicode="&#xf4;" horiz-adv-x="583" 
d="M156 544l82 126h108l82 -126h-74l-62 63l-62 -63h-74zM292 506q71 0 119 -20.5t77 -55.5t41 -82t12 -100t-12 -100t-41 -82t-77 -55.5t-119 -20.5q-72 0 -119.5 20.5t-76.5 55.5t-41 82t-12 100t12 100t41 82t76.5 55.5t119.5 20.5zM292 88q68 0 95.5 42.5t27.5 116.5
t-27.5 116.5t-95.5 42.5t-95.5 -42.5t-27.5 -116.5t27.5 -116.5t95.5 -42.5z" />
    <glyph glyph-name="otilde" unicode="&#xf5;" horiz-adv-x="583" 
d="M141 544q2 53 29 81t66 28q22 0 36 -7t25 -16t22 -16t26 -7q13 0 22.5 10t12.5 29h60q-2 -53 -29 -81t-66 -28q-22 0 -36 7t-25 16t-22 16t-26 7q-13 0 -22.5 -10t-12.5 -29h-60zM292 506q71 0 119 -20.5t77 -55.5t41 -82t12 -100t-12 -100t-41 -82t-77 -55.5t-119 -20.5
q-72 0 -119.5 20.5t-76.5 55.5t-41 82t-12 100t12 100t41 82t76.5 55.5t119.5 20.5zM292 407q-68 0 -95.5 -42.5t-27.5 -116.5t27.5 -116.5t95.5 -42.5t95.5 42.5t27.5 116.5t-27.5 116.5t-95.5 42.5z" />
    <glyph glyph-name="odieresis" unicode="&#xf6;" horiz-adv-x="583" 
d="M153 562v94h101v-94h-101zM329 562v94h100v-94h-100zM292 506q71 0 119 -20.5t77 -55.5t41 -82t12 -100t-12 -100t-41 -82t-77 -55.5t-119 -20.5q-72 0 -119.5 20.5t-76.5 55.5t-41 82t-12 100t12 100t41 82t76.5 55.5t119.5 20.5zM292 407q-68 0 -95.5 -42.5
t-27.5 -116.5t27.5 -116.5t95.5 -42.5t95.5 42.5t27.5 116.5t-27.5 116.5t-95.5 42.5z" />
    <glyph glyph-name="divide" unicode="&#xf7;" horiz-adv-x="446" 
d="M166 412v120h113v-120h-113zM37 270v96h372v-96h-372zM166 105v120h113v-120h-113z" />
    <glyph glyph-name="oslash" unicode="&#xf8;" horiz-adv-x="583" 
d="M464 452q41 -35 57.5 -88t16.5 -115q0 -53 -12 -100t-41 -82t-77 -55.5t-119 -20.5t-120 20l-32 -48l-53 32l32 48q-41 35 -58 89t-17 116q0 53 12 100t41 82t76.5 55.5t119.5 20.5q71 0 123 -22l34 50l54 -32zM351 393q-26 14 -63 14q-68 0 -95.5 -42.5t-27.5 -116.5
q0 -64 19 -102zM229 99q24 -12 60 -12q68 0 95.5 42.5t27.5 116.5q0 30 -4 55t-13 45z" />
    <glyph glyph-name="ugrave" unicode="&#xf9;" horiz-adv-x="595" 
d="M136 669h148l51 -126h-78zM529 1h-116v93q-9 -21 -23 -40t-34.5 -33t-48.5 -22t-64 -8q-53 0 -88.5 15t-56.5 42t-29.5 63.5t-8.5 79.5v306h126v-297q0 -48 24 -77t79 -29q33 0 55 10t35.5 27t19 39t5.5 47v279h126z" />
    <glyph glyph-name="uacute" unicode="&#xfa;" horiz-adv-x="595" 
d="M258 543l51 126h148l-122 -126h-77zM530 1h-116v93q-9 -21 -23 -40t-34.5 -33t-48.5 -22t-64 -8q-53 0 -88.5 15t-56.5 42t-29.5 63.5t-8.5 79.5v306h126v-297q0 -48 24 -77t79 -29q33 0 55 10t35.5 27t19 39t5.5 47v279h126z" />
    <glyph glyph-name="ucircumflex" unicode="&#xfb;" horiz-adv-x="595" 
d="M161 544l82 126h108l82 -126h-74l-62 63l-62 -63h-74zM530 1h-116v93q-9 -21 -23 -40t-34.5 -33t-48.5 -22t-64 -8q-53 0 -88.5 15t-56.5 42t-29.5 63.5t-8.5 79.5v306h126v-297q0 -48 24 -77t79 -29q33 0 55 10t35.5 27t19 39t5.5 47v279h126z" />
    <glyph glyph-name="udieresis" unicode="&#xfc;" horiz-adv-x="595" 
d="M158 562v94h101v-94h-101zM334 562v94h100v-94h-100zM529 1h-116v93q-9 -21 -23 -40t-34.5 -33t-48.5 -22t-64 -8q-53 0 -88.5 15t-56.5 42t-29.5 63.5t-8.5 79.5v306h126v-297q0 -48 24 -77t79 -29q33 0 55 10t35.5 27t19 39t5.5 47v279h126z" />
    <glyph glyph-name="yacute" unicode="&#xfd;" horiz-adv-x="552" 
d="M239 543l51 126h148l-122 -126h-77zM308 -63q-18 -44 -38.5 -73.5t-47.5 -47.5t-63 -25.5t-86 -7.5q-20 0 -30 3v101q8 -3 20 -6t26 -3q20 0 33 3t23 10t18 19t17 30l33 66l-210 490h133l134 -321q2 -6 4 -11.5t4 -11.5q2 6 4 11.5t4 11.5l133 321h133z" />
    <glyph glyph-name="thorn" unicode="&#xfe;" horiz-adv-x="605" 
d="M191 423q23 38 63.5 60t102.5 22q60 0 99.5 -20.5t63 -55.5t33 -82t9.5 -100t-9.5 -100t-33 -82t-63 -55.5t-99.5 -20.5q-62 0 -102.5 22t-63.5 60v-275h-126v904h126v-277zM314 91q35 0 58.5 12.5t37.5 33.5t20 49.5t6 60.5t-6 60t-20 49t-37.5 33.5t-58.5 12.5
q-36 0 -59.5 -12.5t-37.5 -33.5t-20 -49t-6 -60t6 -60.5t20 -49.5t37.5 -33.5t59.5 -12.5z" />
    <glyph glyph-name="ydieresis" unicode="&#xff;" horiz-adv-x="552" 
d="M139 562v94h101v-94h-101zM315 562v94h100v-94h-100zM307 -63q-18 -44 -38.5 -73.5t-47.5 -47.5t-63 -25.5t-86 -7.5q-20 0 -30 3v101q8 -3 20 -6t26 -3q20 0 33 3t23 10t18 19t17 30l33 66l-210 490h133l134 -321q2 -6 4 -11.5t4 -11.5q2 6 4 11.5t4 11.5l133 321h133z
" />
    <glyph glyph-name="Amacron" unicode="&#x100;" horiz-adv-x="692" 
d="M232 767v62h227v-62h-227zM201 143l-56 -143h-141l273 700h137l273 -700h-140l-56 143h-290zM356 489q-3 9 -6 18.5t-5 18.5q-2 -9 -5 -18.5t-6 -18.5l-90 -234h204z" />
    <glyph glyph-name="amacron" unicode="&#x101;" horiz-adv-x="570" 
d="M176 567v62h227v-62h-227zM59 336q4 90 61.5 130t170.5 40q45 0 85 -8.5t70 -26.5t47 -47t17 -71v-353h-116v97q-25 -56 -75.5 -81.5t-119.5 -25.5q-80 0 -120 38t-40 97q0 60 34.5 95t86.5 53.5t112 24.5t111 7v47q0 9 -3 20.5t-12.5 22t-28.5 18t-51 7.5
q-34 0 -54 -8.5t-31 -21t-15.5 -27.5t-5.5 -28zM384 234q-44 0 -84 -4.5t-71.5 -14t-50 -26.5t-18.5 -42q0 -31 24.5 -47t63.5 -16q25 0 49.5 7.5t43.5 23t31 39t12 56.5v24z" />
    <glyph glyph-name="Abreve" unicode="&#x102;" horiz-adv-x="692" 
d="M478 871q0 -60 -35 -94t-98 -34q-62 0 -97.5 34t-35.5 94h75q2 -26 17 -41.5t41 -15.5t41.5 15.5t17.5 41.5h74zM201 143l-56 -143h-141l273 700h137l273 -700h-140l-56 143h-290zM356 489q-3 9 -6 18.5t-5 18.5q-2 -9 -5 -18.5t-6 -18.5l-90 -234h204z" />
    <glyph glyph-name="abreve" unicode="&#x103;" horiz-adv-x="570" 
d="M422 671q0 -60 -35 -94t-98 -34q-62 0 -97.5 34t-35.5 94h75q2 -26 17 -41.5t41 -15.5t41.5 15.5t17.5 41.5h74zM59 337q4 90 61.5 130t170.5 40q45 0 85 -8.5t70 -26.5t47 -47t17 -71v-353h-116v97q-25 -56 -75.5 -81.5t-119.5 -25.5q-80 0 -120 38t-40 97q0 60 34.5 95
t86.5 53.5t112 24.5t111 7v47q0 9 -3 20.5t-12.5 22t-28.5 18t-51 7.5q-34 0 -54 -8.5t-31 -21t-15.5 -27.5t-5.5 -28zM384 235q-44 0 -84 -4.5t-71.5 -14t-50 -26.5t-18.5 -42q0 -31 24.5 -47t63.5 -16q25 0 49.5 7.5t43.5 23t31 39t12 56.5v24z" />
    <glyph glyph-name="Aogonek" unicode="&#x104;" horiz-adv-x="692" 
d="M574 0q-85 -31 -85 -82q0 -20 12 -29.5t39 -9.5q10 0 17.5 1.5t15.5 4.5v-75q-17 -3 -36 -3q-114 0 -114 81q0 74 119 125l-50 130h-291l-56 -143h-141l273 700h137l273 -700h-113zM355 489q-3 9 -6 18.5t-5 18.5q-2 -9 -5 -18.5t-6 -18.5l-90 -234h204z" />
    <glyph glyph-name="aogonek" unicode="&#x105;" horiz-adv-x="570" 
d="M430 1q-85 -31 -85 -82q0 -20 12 -29.5t39 -9.5q10 0 17.5 1.5t15.5 4.5v-75q-17 -3 -36 -3q-114 0 -114 81q0 74 115 124v85q-25 -56 -75.5 -81.5t-119.5 -25.5q-80 0 -120 38t-40 97q0 60 34.5 95t86.5 53.5t112 24.5t111 7v47q0 9 -3 20.5t-12.5 22t-28.5 18t-51 7.5
q-34 0 -54 -8.5t-31 -21t-15.5 -27.5t-5.5 -28h-124q4 90 61.5 130t170.5 40q45 0 85 -8.5t70 -26.5t47 -47t17 -71v-353zM383 234q-44 0 -84 -4.5t-71.5 -14t-50 -26.5t-18.5 -42q0 -31 24.5 -47t63.5 -16q25 0 49.5 7.5t43.5 23t31 39t12 56.5v24z" />
    <glyph glyph-name="Cacute" unicode="&#x106;" horiz-adv-x="705" 
d="M330 743l51 126h148l-122 -126h-77zM526 494q-5 18 -16.5 37t-31 34.5t-47 25t-63.5 9.5q-52 0 -86.5 -20t-54.5 -53.5t-28.5 -79t-8.5 -96.5t8.5 -96.5t28.5 -79t54.5 -53.5t86.5 -20q36 0 63.5 9.5t47 25t31 34.5t16.5 37h136q-4 -42 -23.5 -81.5t-55.5 -70
t-89.5 -48.5t-124.5 -18q-92 0 -153 28.5t-97.5 77t-52 114t-15.5 140.5t15.5 140.5t52 114t97.5 77t153 28.5q71 0 124.5 -18t89.5 -48.5t55.5 -70t23.5 -81.5z" />
    <glyph glyph-name="cacute" unicode="&#x107;" horiz-adv-x="561" 
d="M253 543l51 126h148l-122 -126h-77zM401 328q-5 34 -32 56t-77 22q-35 0 -59 -12.5t-38 -34t-20 -50.5t-6 -62t6 -62t20 -50.5t38 -34t59 -12.5q50 0 77 22.5t32 56.5h126q-4 -38 -20.5 -70t-46 -56t-72 -37.5t-96.5 -13.5q-72 0 -119.5 20.5t-76.5 55.5t-41 82t-12 100
t12 100t41 82t76.5 55.5t119.5 20.5q54 0 96.5 -13.5t72 -37.5t46 -56.5t20.5 -69.5z" />
    <glyph glyph-name="Cdotaccent" unicode="&#x10a;" horiz-adv-x="705" 
d="M304 763v124h126v-124h-126zM524 494q-5 18 -16.5 37t-31 34.5t-47 25t-63.5 9.5q-52 0 -86.5 -20t-54.5 -53.5t-28.5 -79t-8.5 -96.5t8.5 -96.5t28.5 -79t54.5 -53.5t86.5 -20q36 0 63.5 9.5t47 25t31 34.5t16.5 37h136q-4 -42 -23.5 -81.5t-55.5 -70t-89.5 -48.5
t-124.5 -18q-92 0 -153 28.5t-97.5 77t-52 114t-15.5 140.5t15.5 140.5t52 114t97.5 77t153 28.5q71 0 124.5 -18t89.5 -48.5t55.5 -70t23.5 -81.5z" />
    <glyph glyph-name="cdotaccent" unicode="&#x10b;" horiz-adv-x="561" 
d="M228 563v124h126v-124h-126zM401 328q-5 34 -32 56t-77 22q-35 0 -59 -12.5t-38 -34t-20 -50.5t-6 -62t6 -62t20 -50.5t38 -34t59 -12.5q50 0 77 22.5t32 56.5h126q-4 -38 -20.5 -70t-46 -56t-72 -37.5t-96.5 -13.5q-72 0 -119.5 20.5t-76.5 55.5t-41 82t-12 100t12 100
t41 82t76.5 55.5t119.5 20.5q54 0 96.5 -13.5t72 -37.5t46 -56.5t20.5 -69.5z" />
    <glyph glyph-name="Ccaron" unicode="&#x10c;" horiz-adv-x="705" 
d="M232 869h74l62 -63l62 63h74l-82 -126h-108zM525 494q-5 18 -16.5 37t-31 34.5t-47 25t-63.5 9.5q-52 0 -86.5 -20t-54.5 -53.5t-28.5 -79t-8.5 -96.5t8.5 -96.5t28.5 -79t54.5 -53.5t86.5 -20q36 0 63.5 9.5t47 25t31 34.5t16.5 37h136q-4 -42 -23.5 -81.5t-55.5 -70
t-89.5 -48.5t-124.5 -18q-92 0 -153 28.5t-97.5 77t-52 114t-15.5 140.5t15.5 140.5t52 114t97.5 77t153 28.5q71 0 124.5 -18t89.5 -48.5t55.5 -70t23.5 -81.5z" />
    <glyph glyph-name="ccaron" unicode="&#x10d;" horiz-adv-x="561" 
d="M155 669h74l62 -63l62 63h74l-82 -126h-108zM400 329q-5 34 -32 56t-77 22q-35 0 -59 -12.5t-38 -34t-20 -50.5t-6 -62t6 -62t20 -50.5t38 -34t59 -12.5q50 0 77 22.5t32 56.5h126q-4 -38 -20.5 -70t-46 -56t-72 -37.5t-96.5 -13.5q-72 0 -119.5 20.5t-76.5 55.5t-41 82
t-12 100t12 100t41 82t76.5 55.5t119.5 20.5q54 0 96.5 -13.5t72 -37.5t46 -56.5t20.5 -69.5z" />
    <glyph glyph-name="Dcaron" unicode="&#x10e;" horiz-adv-x="707" 
d="M183 869h74l62 -63l62 63h74l-82 -126h-108zM302 700q111 0 180.5 -25.5t108.5 -72t53 -111t14 -141.5q0 -80 -14 -145t-53 -110.5t-108.5 -70t-180.5 -24.5h-229v700h229zM302 113q66 0 108 14t66 43t33 74t9 107t-9 107t-33 74t-66 43t-108 14h-90v-477z" />
    <glyph glyph-name="dcaron" unicode="&#x10f;" horiz-adv-x="605" 
d="M540 700v-700h-116v89q-22 -45 -64.5 -72t-111.5 -27q-60 0 -99.5 20.5t-63 55.5t-33 82t-9.5 100t9.5 100t33 82t63 55.5t99.5 20.5q62 0 102.5 -22t63.5 -60v276h126zM648 574h-74v126h117zM291 92q35 0 58.5 12.5t38 33.5t20.5 49.5t6 60.5t-6 60t-20.5 49t-38 33.5
t-58.5 12.5q-36 0 -59.5 -12.5t-37.5 -33.5t-20 -49t-6 -60t6 -60.5t20 -49.5t37.5 -33.5t59.5 -12.5z" />
    <glyph glyph-name="Dcroat" unicode="&#x110;" horiz-adv-x="720" 
d="M314 700q111 0 180.5 -25.5t108.5 -72t53 -111t14 -141.5q0 -80 -14 -145t-53 -110.5t-108.5 -70t-180.5 -24.5h-229v326h-76v62h76v312h229zM314 114q66 0 108 14t66 43t33 74t9 107t-9 107t-33 74t-66 43t-108 14h-90v-201h68v-62h-68v-215z" />
    <glyph glyph-name="dcroat" unicode="&#x111;" horiz-adv-x="597" 
d="M539 566v-566h-116v89q-22 -45 -64.5 -72t-111.5 -27q-60 0 -99.5 20.5t-63 55.5t-33 82t-9.5 100t9.5 100t33 82t63 55.5t99.5 20.5q62 0 102.5 -22t63.5 -60v142h-129v62h129v71h126v-71h39v-62h-39zM290 92q35 0 58.5 12.5t38 33.5t20.5 49.5t6 60.5t-6 60t-20.5 49
t-38 33.5t-58.5 12.5q-36 0 -59.5 -12.5t-37.5 -33.5t-20 -49t-6 -60t6 -60.5t20 -49.5t37.5 -33.5t59.5 -12.5z" />
    <glyph glyph-name="Emacron" unicode="&#x112;" horiz-adv-x="605" 
d="M203 767v62h227v-62h-227zM211 419h331v-112h-331v-195h351v-112h-490v700h490v-112h-351v-169z" />
    <glyph glyph-name="emacron" unicode="&#x113;" horiz-adv-x="576" 
d="M178 567v62h227v-62h-227zM293 507q67 0 113 -17t75 -50t42 -81t13 -110v-13.5t-1 -16.5h-368q5 -67 33 -101.5t94 -34.5q48 0 77 23t34 61h123q-5 -38 -22 -70.5t-46.5 -56t-71.5 -37t-96 -13.5q-72 0 -119.5 19.5t-76.5 54t-41 81.5t-12 103q0 51 12 97.5t41 82.5
t76.5 57t119.5 21v-93q-60 0 -88.5 -29.5t-35.5 -86.5h245q-2 25 -8 46t-19.5 36.5t-36.5 24.5t-57 9z" />
    <glyph glyph-name="Edotaccent" unicode="&#x116;" horiz-adv-x="605" 
d="M253 763v124h126v-124h-126zM211 419h331v-112h-331v-195h351v-112h-490v700h490v-112h-351v-169z" />
    <glyph glyph-name="edotaccent" unicode="&#x117;" horiz-adv-x="576" 
d="M228 563v124h126v-124h-126zM292 507q67 0 113 -17t75 -50t42 -81t13 -110v-13.5t-1 -16.5h-368q5 -67 33 -101.5t94 -34.5q48 0 77 23t34 61h123q-5 -38 -22 -70.5t-46.5 -56t-71.5 -37t-96 -13.5q-72 0 -119.5 19.5t-76.5 54t-41 81.5t-12 103q0 51 12 97.5t41 82.5
t76.5 57t119.5 21v-93q-60 0 -88.5 -29.5t-35.5 -86.5h245q-2 25 -8 46t-19.5 36.5t-36.5 24.5t-57 9z" />
    <glyph glyph-name="Eogonek" unicode="&#x118;" horiz-adv-x="605" 
d="M563 2q-85 -31 -85 -82q0 -20 12 -29.5t39 -9.5q10 0 17.5 1.5t15.5 4.5v-75q-17 -3 -36 -3q-114 0 -114 81q0 65 90 111h-429v700h490v-112h-351v-170h331v-112h-331v-195h351v-110z" />
    <glyph glyph-name="eogonek" unicode="&#x119;" horiz-adv-x="576" 
d="M291 507q67 0 113 -17t75 -50t42 -81t13 -110v-13.5t-1 -16.5h-368q5 -67 33 -101.5t94 -34.5q48 0 77 23t34 61h123q-7 -61 -45.5 -106t-108.5 -62q-82 -31 -82 -81q0 -20 12 -29.5t39 -9.5q10 0 17.5 1.5t15.5 4.5v-75q-17 -3 -36 -3q-114 0 -114 81q0 59 71 102h-4
q-72 0 -119.5 19.5t-76.5 54t-41 81.5t-12 103q0 51 12 97.5t41 82.5t76.5 57t119.5 21v-93q-60 0 -88.5 -29.5t-35.5 -86.5h245q-2 25 -8 46t-19.5 36.5t-36.5 24.5t-57 9v94z" />
    <glyph glyph-name="Ecaron" unicode="&#x11a;" horiz-adv-x="605" 
d="M181 869h74l62 -63l62 63h74l-82 -126h-108zM212 420h331v-112h-331v-195h351v-112h-490v700h490v-112h-351v-169z" />
    <glyph glyph-name="ecaron" unicode="&#x11b;" horiz-adv-x="576" 
d="M155 669h74l62 -63l62 63h74l-82 -126h-108zM292 507q67 0 113 -17t75 -50t42 -81t13 -110v-13.5t-1 -16.5h-368q5 -67 33 -101.5t94 -34.5q48 0 77 23t34 61h123q-5 -38 -22 -70.5t-46.5 -56t-71.5 -37t-96 -13.5q-72 0 -119.5 19.5t-76.5 54t-41 81.5t-12 103
q0 51 12 97.5t41 82.5t76.5 57t119.5 21v-93q-60 0 -88.5 -29.5t-35.5 -86.5h245q-2 25 -8 46t-19.5 36.5t-36.5 24.5t-57 9z" />
    <glyph glyph-name="Gbreve" unicode="&#x11e;" horiz-adv-x="719" 
d="M500 871q0 -60 -35 -94t-98 -34q-62 0 -97.5 34t-35.5 94h75q2 -26 17 -41.5t41 -15.5t41.5 15.5t17.5 41.5h74zM664 109q-17 -28 -45.5 -50t-65 -37.5t-80 -23.5t-91.5 -8q-96 0 -160 28.5t-102.5 77t-54.5 114t-16 140.5t15.5 140.5t52 114t97.5 77t153 28.5
q73 0 126.5 -19.5t88 -50.5t52 -70t20.5 -78h-134q-3 19 -14 38t-29.5 34.5t-46 25t-63.5 9.5q-52 0 -86.5 -20t-54.5 -53.5t-28.5 -79t-8.5 -96.5q0 -52 9.5 -97.5t33 -79t62.5 -53t98 -19.5q100 2 144 49v109h-103v112h231v-262z" />
    <glyph glyph-name="gbreve" unicode="&#x11f;" horiz-adv-x="584" 
d="M423 671q0 -60 -35 -94t-98 -34q-62 0 -97.5 34t-35.5 94h75q2 -26 17 -41.5t41 -15.5t41.5 15.5t17.5 41.5h74zM479 452q25 -23 35.5 -52t10.5 -62q0 -35 -11.5 -66t-39 -54.5t-73 -37.5t-112.5 -14q-74 0 -123 17q-14 -11 -14 -24q0 -20 30.5 -27t76.5 -11t100 -9.5
t100 -22.5t76.5 -50.5t30.5 -92.5q0 -32 -14.5 -61t-46.5 -51t-85 -35.5t-129 -13.5q-79 0 -131.5 12.5t-84.5 33t-45.5 47.5t-13.5 56q0 45 21 79.5t53 59.5q-17 11 -27 26t-10 37q0 26 16.5 47.5t34.5 34.5q-27 23 -38.5 54t-11.5 66q0 34 11.5 65t39 54t73 36.5
t113.5 13.5q43 0 76 -5.5t59 -15.5l25 62h110zM288 417q-34 0 -56.5 -6.5t-36 -17t-19 -25.5t-5.5 -31q0 -17 5.5 -31.5t19 -25t36 -17t56.5 -6.5q33 0 55.5 6.5t36 17t19.5 25t6 31.5q0 16 -6 31t-19.5 25.5t-36 17t-55.5 6.5zM288 -126q78 0 113.5 20.5t35.5 49.5
q0 31 -24.5 47.5t-62 25.5t-82.5 13.5t-87 11.5q-24 -16 -36 -41t-12 -48q0 -34 36.5 -57t119.5 -23z" />
    <glyph glyph-name="Gdotaccent" unicode="&#x120;" horiz-adv-x="719" 
d="M304 763v124h126v-124h-126zM664 109q-17 -28 -45.5 -50t-65 -37.5t-80 -23.5t-91.5 -8q-96 0 -160 28.5t-102.5 77t-54.5 114t-16 140.5t15.5 140.5t52 114t97.5 77t153 28.5q73 0 126.5 -19.5t88 -50.5t52 -70t20.5 -78h-134q-3 19 -14 38t-29.5 34.5t-46 25t-63.5 9.5
q-52 0 -86.5 -20t-54.5 -53.5t-28.5 -79t-8.5 -96.5q0 -52 9.5 -97.5t33 -79t62.5 -53t98 -19.5q100 2 144 49v109h-103v112h231v-262z" />
    <glyph glyph-name="gdotaccent" unicode="&#x121;" horiz-adv-x="584" 
d="M227 563v124h126v-124h-126zM478 451q25 -23 35.5 -52t10.5 -62q0 -35 -11.5 -66t-39 -54.5t-73 -37.5t-112.5 -14q-74 0 -123 17q-14 -11 -14 -24q0 -20 30.5 -27.5t76.5 -11t100 -9t100 -22.5t76.5 -50.5t30.5 -92.5q0 -32 -14.5 -61t-46.5 -51t-85 -35.5t-129 -13.5
q-79 0 -131.5 12.5t-84.5 33t-45.5 47.5t-13.5 56q0 45 21 79.5t53 59.5q-17 11 -27 26t-10 37q0 26 16.5 47.5t34.5 34.5q-27 23 -38.5 54t-11.5 66q0 34 11.5 65t39 54t73 36.5t113.5 13.5q43 0 76 -5.5t59 -15.5l25 62h110zM287 416q-34 0 -56.5 -6.5t-36 -17t-19 -25.5
t-5.5 -31q0 -17 5.5 -31.5t19 -25t36 -17t56.5 -6.5q33 0 55.5 6.5t36 17t19.5 25t6 31.5q0 16 -6 31t-19.5 25.5t-36 17t-55.5 6.5zM287 -127q78 0 113.5 20.5t35.5 49.5q0 31 -24.5 47.5t-62 25.5t-82.5 13.5t-87 11.5q-24 -16 -36 -41t-12 -48q0 -34 36.5 -57t119.5 -23z
" />
    <glyph glyph-name="uni0122" unicode="&#x122;" horiz-adv-x="719" 
d="M665 109q-17 -28 -45.5 -50t-65 -37.5t-80 -23.5t-91.5 -8q-96 0 -160 28.5t-102.5 77t-54.5 114t-16 140.5t15.5 140.5t52 114t97.5 77t153 28.5q73 0 126.5 -19.5t88 -50.5t52 -70t20.5 -78h-134q-3 19 -14 38t-29.5 34.5t-46 25t-63.5 9.5q-52 0 -86.5 -20
t-54.5 -53.5t-28.5 -79t-8.5 -96.5q0 -52 9.5 -97.5t33 -79t62.5 -53t98 -19.5q100 2 144 49v109h-103v112h231v-262zM438 -50v-103l-42 -73h-56l42 73h-42v103h98z" />
    <glyph glyph-name="uni0123" unicode="&#x123;" horiz-adv-x="584" 
d="M244 563v103l42 73h56l-42 -73h42v-103h-98zM478 451q25 -23 35.5 -52t10.5 -62q0 -35 -11.5 -66t-39 -54.5t-73 -37.5t-112.5 -14q-74 0 -123 17q-14 -11 -14 -24q0 -20 30.5 -27.5t76.5 -11t100 -9t100 -22.5t76.5 -50.5t30.5 -92.5q0 -32 -14.5 -61t-46.5 -51
t-85 -35.5t-129 -13.5q-79 0 -131.5 12.5t-84.5 33t-45.5 47.5t-13.5 56q0 45 21 79.5t53 59.5q-17 11 -27 26t-10 37q0 26 16.5 47.5t34.5 34.5q-27 23 -38.5 54t-11.5 66q0 34 11.5 65t39 54t73 36.5t113.5 13.5q43 0 76 -5.5t59 -15.5l25 62h110zM287 416
q-34 0 -56.5 -6.5t-36 -17t-19 -25.5t-5.5 -31q0 -17 5.5 -31.5t19 -25t36 -17t56.5 -6.5q33 0 55.5 6.5t36 17t19.5 25t6 31.5q0 16 -6 31t-19.5 25.5t-36 17t-55.5 6.5zM287 -127q78 0 113.5 20.5t35.5 49.5q0 31 -24.5 47.5t-62 25.5t-82.5 13.5t-87 11.5
q-24 -16 -36 -41t-12 -48q0 -34 36.5 -57t119.5 -23z" />
    <glyph glyph-name="Hbar" unicode="&#x126;" horiz-adv-x="699" 
d="M626 512v-512h-139v307h-275v-307h-139v512h-75v72h75v116h139v-116h275v116h139v-116h75v-72h-75zM212 512v-94h275v94h-275z" />
    <glyph glyph-name="hbar" unicode="&#x127;" horiz-adv-x="595" 
d="M192 423q20 35 58 58.5t102 23.5q53 0 88.5 -15t56.5 -42t29.5 -63.5t8.5 -79.5v-306h-126v297q0 48 -24 77t-79 29q-33 0 -55 -10t-35.5 -27t-19 -39t-5.5 -47v-279h-126v566h-65v62h65v71h126v-71h103v-62h-103z" />
    <glyph glyph-name="Imacron" unicode="&#x12a;" horiz-adv-x="284" 
d="M29 767v62h227v-62h-227zM72 0v700h139v-700h-139z" />
    <glyph glyph-name="imacron" unicode="&#x12b;" horiz-adv-x="256" 
d="M14 563v62h227v-62h-227zM64 0v496h126v-496h-126z" />
    <glyph glyph-name="Iogonek" unicode="&#x12e;" horiz-adv-x="284" 
d="M211 1q-85 -31 -85 -82q0 -20 12 -29.5t39 -9.5q10 0 17.5 1.5t15.5 4.5v-75q-17 -3 -36 -3q-114 0 -114 81q0 65 90 111h-77v700h139z" />
    <glyph glyph-name="iogonek" unicode="&#x12f;" horiz-adv-x="256" 
d="M191 560h-126v124h126v-124zM190 497v-496q-85 -31 -85 -82q0 -20 12 -29.5t39 -9.5q10 0 17.5 1.5t15.5 4.5v-75q-17 -3 -36 -3q-114 0 -114 81q0 65 90 111h-64v496z" />
    <glyph glyph-name="Idotaccent" unicode="&#x130;" horiz-adv-x="284" 
d="M79 763v124h126v-124h-126zM72 0v700h139v-700h-139z" />
    <glyph glyph-name="dotlessi" unicode="&#x131;" horiz-adv-x="256" 
d="M65 0v496h126v-496h-126z" />
    <glyph glyph-name="IJ" unicode="&#x132;" horiz-adv-x="697" 
d="M73 0v700h139v-700h-139zM628 198q0 -48 -12 -86t-41.5 -64t-78.5 -40t-122 -14q-19 0 -40 1.5t-35 4.5v118q14 -5 33 -8.5t42 -3.5q60 0 87.5 21t27.5 71v502h139v-502z" />
    <glyph glyph-name="ij" unicode="&#x133;" horiz-adv-x="515" 
d="M65 560v124h126v-124h-126zM324 560v124h126v-124h-126zM65 0v496h126v-496h-126zM451 -39q0 -40 -9 -72.5t-31 -56t-58 -36.5t-91 -13q-21 0 -33 3v96q13 -5 32 -5q37 1 50 22.5t13 61.5v535h126z" />
    <glyph glyph-name="uni0136" unicode="&#x136;" horiz-adv-x="700" 
d="M536 0l-215 327l-108 -108v-219h-139v700h139v-306q9 13 18 23.5t17 18.5l274 264h171l-283 -283l283 -417h-157zM418 -50v-103l-42 -73h-56l42 73h-42v103h98z" />
    <glyph glyph-name="uni0137" unicode="&#x137;" horiz-adv-x="566" 
d="M423 0l-145 230l-87 -85v-145h-126v700h126v-399q17 22 35 41.5t34 35.5l126 118h161l-186 -183l196 -313h-134zM346 -50v-103l-42 -73h-56l42 73h-42v103h98z" />
    <glyph glyph-name="kgreenlandic" unicode="&#x138;" horiz-adv-x="581" 
d="M191 121v-122h-126v496h126v-224q22 30 46 58t46 49l128 118h160l-192 -189l193 -307h-130l-143 229z" />
    <glyph glyph-name="Lacute" unicode="&#x139;" horiz-adv-x="562" 
d="M105 743l51 126h148l-122 -126h-77zM540 -1h-466v700h139v-588h327v-112z" />
    <glyph glyph-name="lacute" unicode="&#x13a;" horiz-adv-x="256" 
d="M90 721l51 126h148l-122 -126h-77zM65 0v700h126v-700h-126z" />
    <glyph glyph-name="uni013B" unicode="&#x13b;" horiz-adv-x="562" 
d="M539 0h-466v700h139v-588h327v-112zM354 -50v-103l-42 -73h-56l42 73h-42v103h98z" />
    <glyph glyph-name="uni013C" unicode="&#x13c;" horiz-adv-x="256" 
d="M191 0h-126v700h126v-700zM177 -50v-103l-42 -73h-56l42 73h-42v103h98z" />
    <glyph glyph-name="Lcaron" unicode="&#x13d;" horiz-adv-x="562" 
d="M539 0h-466v700h139v-588h327v-112zM247 574v126h117l-43 -126h-74z" />
    <glyph glyph-name="lcaron" unicode="&#x13e;" horiz-adv-x="256" 
d="M65 0v700h126v-700h-126zM226 700h117l-43 -126h-74v126z" />
    <glyph glyph-name="Ldot" unicode="&#x13f;" horiz-adv-x="562" 
d="M539 0h-466v700h139v-588h327v-112zM344 298v156h149v-156h-149z" />
    <glyph glyph-name="ldot" unicode="&#x140;" horiz-adv-x="380" 
d="M65 0v700h126v-700h-126zM242 249v156h149v-156h-149z" />
    <glyph glyph-name="Lslash" unicode="&#x141;" horiz-adv-x="562" 
d="M539 -1h-466v260l-69 -25v93l69 25v346h139v-296l194 70v-93l-194 -70v-199h327v-111z" />
    <glyph glyph-name="lslash" unicode="&#x142;" horiz-adv-x="255" 
d="M190 328v-329h-126v284l-67 -24v93l67 24v323h126v-277l67 24v-93z" />
    <glyph glyph-name="Nacute" unicode="&#x143;" horiz-adv-x="740" 
d="M332 743l51 126h148l-122 -126h-77zM668 0h-142l-293 433q-20 30 -29 48v-480h-131v700h142l293 -433q20 -30 29 -48v480h131v-700z" />
    <glyph glyph-name="nacute" unicode="&#x144;" horiz-adv-x="595" 
d="M266 543l51 126h148l-122 -126h-77zM183 403q9 21 23 40t34.5 32.5t48.5 21.5t64 8q53 0 88.5 -15t56.5 -42t29.5 -63.5t8.5 -79.5v-306h-126v297q0 48 -24 77t-79 29q-33 0 -55 -10t-35.5 -27t-19 -39t-5.5 -47v-279h-126v496h116z" />
    <glyph glyph-name="uni0145" unicode="&#x145;" horiz-adv-x="740" 
d="M667 0h-142l-293 433q-20 30 -29 48v-480h-131v700h142l293 -433q20 -30 29 -48v480h131v-700zM420 -50v-103l-42 -73h-56l42 73h-42v103h98z" />
    <glyph glyph-name="uni0146" unicode="&#x146;" horiz-adv-x="595" 
d="M182 403q9 21 23 40t34.5 32.5t48.5 21.5t64 8q53 0 88.5 -15t56.5 -42t29.5 -63.5t8.5 -79.5v-306h-126v297q0 48 -24 77t-79 29q-33 0 -55 -10t-35.5 -27t-19 -39t-5.5 -47v-279h-126v496h116zM350 -50v-103l-42 -73h-56l42 73h-42v103h98z" />
    <glyph glyph-name="Ncaron" unicode="&#x147;" horiz-adv-x="740" 
d="M234 869h74l62 -63l62 63h74l-82 -126h-108zM667 0h-142l-293 433q-20 30 -29 48v-480h-131v700h142l293 -433q20 -30 29 -48v480h131v-700z" />
    <glyph glyph-name="ncaron" unicode="&#x148;" horiz-adv-x="595" 
d="M168 669h74l62 -63l62 63h74l-82 -126h-108zM182 403q9 21 23 40t34.5 32.5t48.5 21.5t64 8q53 0 88.5 -15t56.5 -42t29.5 -63.5t8.5 -79.5v-306h-126v297q0 48 -24 77t-79 29q-33 0 -55 -10t-35.5 -27t-19 -39t-5.5 -47v-279h-126v496h116z" />
    <glyph glyph-name="Eng" unicode="&#x14a;" horiz-adv-x="740" 
d="M666 -8q0 -48 -12 -86t-41.5 -64.5t-78.5 -40.5t-122 -14q-19 0 -40 1.5t-35 5.5v118q14 -5 33 -9t42 -4q65 0 94 22.5t29 70.5v39l-303 423q-20 27 -29 45v-499h-131v700h140l295 -411q11 -17 18 -28t11 -19v458h131z" />
    <glyph glyph-name="eng" unicode="&#x14b;" horiz-adv-x="595" 
d="M191 424q20 35 58.5 58t102.5 23q53 0 88.5 -15t56.5 -42t29.5 -63.5t8.5 -79.5v-344q0 -40 -9 -73t-31 -56.5t-58.5 -36.5t-90.5 -13q-21 0 -33 3v96q13 -5 32 -5q37 1 50 23t13 62v344q0 21 -5 38.5t-16.5 30.5t-31 20.5t-49.5 7.5q-35 0 -57.5 -10t-35.5 -26.5
t-17.5 -36.5t-4.5 -41v-288h-126v496h126v-72z" />
    <glyph glyph-name="Omacron" unicode="&#x14c;" horiz-adv-x="738" 
d="M255 767v62h227v-62h-227zM367 710q92 0 153.5 -28.5t98.5 -77t52.5 -114t15.5 -140.5t-15.5 -140.5t-52.5 -114t-98.5 -77t-153.5 -28.5t-153 28.5t-97.5 77t-52 114t-15.5 140.5t15.5 140.5t52 114t97.5 77t153 28.5zM368 598q-53 0 -87.5 -20t-54.5 -53.5t-28.5 -79
t-8.5 -96.5t8.5 -96.5t28.5 -79t54.5 -53.5t87.5 -20q52 0 86.5 20t55.5 53.5t29.5 79t8.5 96.5t-8.5 96.5t-29.5 79t-55.5 53.5t-86.5 20z" />
    <glyph glyph-name="omacron" unicode="&#x14d;" horiz-adv-x="583" 
d="M178 567v62h227v-62h-227zM292 506q71 0 119 -20.5t77 -55.5t41 -82t12 -100t-12 -100t-41 -82t-77 -55.5t-119 -20.5q-72 0 -119.5 20.5t-76.5 55.5t-41 82t-12 100t12 100t41 82t76.5 55.5t119.5 20.5zM292 407q-68 0 -95.5 -42.5t-27.5 -116.5t27.5 -116.5t95.5 -42.5
t95.5 42.5t27.5 116.5t-27.5 116.5t-95.5 42.5z" />
    <glyph glyph-name="Ohungarumlaut" unicode="&#x150;" horiz-adv-x="738" 
d="M339 743h-70l26 126h126zM472 743h-73l54 126h141zM368 710q92 0 153.5 -28.5t98.5 -77t52.5 -114t15.5 -140.5t-15.5 -140.5t-52.5 -114t-98.5 -77t-153.5 -28.5t-153 28.5t-97.5 77t-52 114t-15.5 140.5t15.5 140.5t52 114t97.5 77t153 28.5zM369 598q-53 0 -87.5 -20
t-54.5 -53.5t-28.5 -79t-8.5 -96.5t8.5 -96.5t28.5 -79t54.5 -53.5t87.5 -20q52 0 86.5 20t55.5 53.5t29.5 79t8.5 96.5t-8.5 96.5t-29.5 79t-55.5 53.5t-86.5 20z" />
    <glyph glyph-name="ohungarumlaut" unicode="&#x151;" horiz-adv-x="583" 
d="M261 543h-70l26 126h126zM394 543h-73l54 126h141zM291 506q71 0 119 -20.5t77 -55.5t41 -82t12 -100t-12 -100t-41 -82t-77 -55.5t-119 -20.5q-72 0 -119.5 20.5t-76.5 55.5t-41 82t-12 100t12 100t41 82t76.5 55.5t119.5 20.5zM291 407q-68 0 -95.5 -42.5t-27.5 -116.5
t27.5 -116.5t95.5 -42.5t95.5 42.5t27.5 116.5t-27.5 116.5t-95.5 42.5z" />
    <glyph glyph-name="OE" unicode="&#x152;" horiz-adv-x="944" 
d="M593 420h290v-112h-290v-195h310v-112h-435q-23 -5 -47 -7.5t-52 -2.5q-92 0 -153 28.5t-97.5 77t-52 114t-15.5 140.5t15.5 140.5t52 114t97.5 77t153 28.5q26 0 49.5 -3t45.5 -8h438v-112h-310zM453 580q-16 10 -36 15.5t-48 5.5q-53 0 -87.5 -20t-54.5 -53.5
t-28.5 -79t-8.5 -96.5t8.5 -96.5t28.5 -79t54.5 -53.5t87.5 -20q28 0 48 5.5t37 15.5z" />
    <glyph glyph-name="oe" unicode="&#x153;" horiz-adv-x="951" 
d="M903 166q-5 -38 -22 -70.5t-46.5 -56t-71.5 -37t-96 -13.5q-70 0 -116 21t-74 58q-28 -36 -73 -57t-112 -21q-72 0 -119.5 20.5t-76.5 55.5t-41 82t-12 100t12 100t41 82t76.5 55.5t119.5 20.5q69 0 114 -21.5t73 -59.5q28 37 73.5 59t114.5 22q67 0 113 -17t75 -50
t42 -81t13 -110v-13.5t-2 -16.5h-367q5 -67 33 -101.5t94 -34.5q48 0 77 23t34 61h124zM788 295q-2 25 -8 46t-19.5 37t-36.5 25t-57 9q-60 0 -88.5 -29.5t-35.5 -86.5zM292 87q68 0 95.5 42.5t27.5 116.5t-27.5 116.5t-95.5 42.5t-95.5 -42.5t-27.5 -116.5t27.5 -116.5
t95.5 -42.5z" />
    <glyph glyph-name="Racute" unicode="&#x154;" horiz-adv-x="665" 
d="M284 743l51 126h148l-122 -126h-77zM212 266v-266h-139v700h302q63 0 110 -17.5t78.5 -47t47 -69t15.5 -83.5q0 -72 -40 -128t-121 -78l168 -277h-148l-155 266h-118zM368 379q57 0 86 30.5t29 74.5t-29 74.5t-86 30.5h-156v-211z" />
    <glyph glyph-name="racute" unicode="&#x155;" horiz-adv-x="376" 
d="M163 543l51 126h148l-122 -126h-77zM182 392q10 23 25.5 44t37.5 37t50.5 25.5t64.5 9.5v-118q-50 0 -82 -11.5t-51.5 -29t-27 -39t-7.5 -41.5v-269h-126v496h116v-104z" />
    <glyph glyph-name="uni0156" unicode="&#x156;" horiz-adv-x="665" 
d="M483 0l-155 266h-117v-266h-139v700h302q63 0 110 -17.5t78.5 -47t47 -69t15.5 -83.5q0 -72 -40 -128t-121 -78l168 -277h-149zM366 378q57 0 86 30.5t29 74.5t-29 74.5t-86 30.5h-156v-211zM370 -49v-103l-42 -73h-56l42 73h-42v103h98z" />
    <glyph glyph-name="uni0157" unicode="&#x157;" horiz-adv-x="376" 
d="M181 392q10 23 25.5 44t37.5 37t50.5 25.5t64.5 9.5v-118q-50 0 -82 -11.5t-51.5 -29t-27 -39t-7.5 -41.5v-269h-126v496h116v-104zM177 -48v-103l-42 -73h-56l42 73h-42v103h98z" />
    <glyph glyph-name="Rcaron" unicode="&#x158;" horiz-adv-x="665" 
d="M186 869h74l62 -63l62 63h74l-82 -126h-108zM211 266v-266h-139v700h302q63 0 110 -17.5t78.5 -47t47 -69t15.5 -83.5q0 -72 -40 -128t-121 -78l168 -277h-148l-155 266h-118zM367 379q57 0 86 30.5t29 74.5t-29 74.5t-86 30.5h-156v-211z" />
    <glyph glyph-name="rcaron" unicode="&#x159;" horiz-adv-x="376" 
d="M65 669h74l62 -63l62 63h74l-82 -126h-108zM181 392q10 23 25.5 44t37.5 37t50.5 25.5t64.5 9.5v-118q-50 0 -82 -11.5t-51.5 -29t-27 -39t-7.5 -41.5v-269h-126v496h116v-104z" />
    <glyph glyph-name="Sacute" unicode="&#x15a;" horiz-adv-x="658" 
d="M282 743l51 126h148l-122 -126h-77zM179 212q5 -55 48.5 -81t105.5 -26q67 0 104.5 27.5t37.5 68.5q0 27 -18 44.5t-48 30t-67.5 21.5t-77.5 19t-77.5 24t-67.5 36t-48 54t-18 79q0 50 21 88.5t57 64t84.5 38.5t104.5 13q65 0 116.5 -16t87 -44.5t55.5 -69t22 -89.5h-136
q-3 19 -12 38t-26 34t-42.5 24.5t-60.5 9.5q-25 0 -47.5 -5t-39 -15.5t-26 -25.5t-9.5 -34q0 -35 31.5 -55t78.5 -34t101.5 -28t101.5 -37t78.5 -61t31.5 -100q0 -53 -23 -93t-63.5 -67t-96 -41t-119.5 -14q-69 0 -122 16t-89.5 45t-56.5 69t-21 88z" />
    <glyph glyph-name="sacute" unicode="&#x15b;" horiz-adv-x="522" 
d="M216 543l51 126h148l-122 -126h-77zM159 149q1 -33 24.5 -51.5t79.5 -18.5q45 0 73 14t28 46q0 18 -12.5 29.5t-33 19t-46.5 12.5t-54 11q-32 7 -63 17t-55.5 27t-40 43.5t-15.5 66.5q0 41 17.5 68t46.5 43.5t66.5 23.5t77.5 7q108 0 164 -40.5t56 -109.5h-119
q0 12 -4 23.5t-14 20.5t-28.5 15t-48.5 6q-50 0 -71.5 -15.5t-21.5 -39.5q0 -17 10 -28t27 -19t39 -13t46 -10q34 -7 69.5 -16.5t65 -26t48 -43t18.5 -68.5q0 -39 -16.5 -67.5t-46.5 -47.5t-71.5 -28.5t-90.5 -9.5q-60 0 -103 12.5t-70.5 34t-41 50t-13.5 60.5z" />
    <glyph glyph-name="Scedilla" unicode="&#x15e;" horiz-adv-x="658" 
d="M464 495q-3 19 -12 38t-26 34t-42.5 24.5t-60.5 9.5q-25 0 -47.5 -5t-39 -15.5t-26 -25.5t-9.5 -34q0 -35 31.5 -55t78.5 -34t101.5 -28t101.5 -37t78.5 -61t31.5 -100q0 -51 -22 -90.5t-61 -66.5t-92 -41.5t-115 -15.5l-9 -34q48 -1 73 -20t25 -54t-29 -57.5t-100 -22.5
q-25 0 -46 3v52q20 -7 46 -7q32 0 44.5 7.5t12.5 19.5q0 17 -19 23t-73 6l30 85q-123 8 -188.5 67.5t-68.5 149.5h145q5 -55 48.5 -81t105.5 -26q67 0 104.5 27.5t37.5 68.5q0 27 -18 44.5t-48 30t-67.5 21.5t-77.5 19t-77.5 24t-67.5 36t-48 54t-18 79q0 50 21 88.5t57 64
t84.5 38.5t104.5 13q65 0 116.5 -16t87 -44.5t55.5 -69t22 -89.5z" />
    <glyph glyph-name="scedilla" unicode="&#x15f;" horiz-adv-x="522" 
d="M355 358q0 12 -4 23.5t-14 20.5t-28.5 15t-48.5 6q-50 0 -71.5 -15.5t-21.5 -39.5q0 -17 10 -28t27 -19t39 -13t46 -10q34 -7 69.5 -16.5t65 -26t48 -43t18.5 -68.5q0 -37 -15.5 -65t-43 -47t-66 -29.5t-84.5 -11.5l-9 -34q48 -1 73 -20t25 -54t-29 -57.5t-100 -22.5
q-25 0 -46 3v52q20 -7 46 -7q32 0 44.5 7.5t12.5 19.5q0 17 -19 23t-73 6l30 85q-53 3 -90.5 16.5t-61.5 34.5t-36 48t-12 57h123q1 -33 24.5 -51.5t79.5 -18.5q45 0 73 14t28 46q0 18 -12.5 29.5t-33 19t-46.5 12.5t-54 11q-32 7 -63 17t-55.5 27t-40 43.5t-15.5 66.5
q0 41 17.5 68t46.5 43.5t66.5 23.5t77.5 7q108 0 164 -40.5t56 -109.5z" />
    <glyph glyph-name="Scaron" unicode="&#x160;" horiz-adv-x="658" 
d="M184 869h74l62 -63l62 63h74l-82 -126h-108zM463 496q-3 19 -12 38t-26 34t-42.5 24.5t-60.5 9.5q-25 0 -47.5 -5t-39 -15.5t-26 -25.5t-9.5 -34q0 -35 31.5 -55t78.5 -34t101.5 -28t101.5 -37t78.5 -61t31.5 -100q0 -53 -23 -93t-63.5 -67t-96 -41t-119.5 -14
q-69 0 -122 16t-89.5 45t-56.5 69t-21 88h145q5 -55 48.5 -81t105.5 -26q67 0 104.5 27.5t37.5 68.5q0 27 -18 44.5t-48 30t-67.5 21.5t-77.5 19t-77.5 24t-67.5 36t-48 54t-18 79q0 50 21 88.5t57 64t84.5 38.5t104.5 13q65 0 116.5 -16t87 -44.5t55.5 -69t22 -89.5z" />
    <glyph glyph-name="scaron" unicode="&#x161;" horiz-adv-x="522" 
d="M119 669h74l62 -63l62 63h74l-82 -126h-108zM353 359q0 12 -4 23.5t-14 20.5t-28.5 15t-48.5 6q-50 0 -71.5 -15.5t-21.5 -39.5q0 -17 10 -28t27 -19t39 -13t46 -10q34 -7 69.5 -16.5t65 -26t48 -43t18.5 -68.5q0 -39 -16.5 -67.5t-46.5 -47.5t-71.5 -28.5t-90.5 -9.5
q-60 0 -103 12.5t-70.5 34t-41 50t-13.5 60.5h123q1 -33 24.5 -51.5t79.5 -18.5q45 0 73.5 14t28.5 46q0 18 -12.5 29.5t-33 19t-46.5 12.5t-54 11q-32 7 -63 17t-55.5 27t-40 43.5t-15.5 66.5q0 41 17.5 68t46.5 43.5t66.5 23.5t77.5 7q108 0 164 -40.5t56 -109.5z" />
    <glyph glyph-name="uni0162" unicode="&#x162;" horiz-adv-x="578" 
d="M291 -43q48 -2 73 -21.5t25 -53.5q0 -35 -29 -57.5t-100 -22.5q-24 0 -46 3v52q20 -7 46 -7q32 0 44.5 7.5t12.5 19.5q0 16 -19 22.5t-72 6.5l36 94h-42v588h-201v112h540v-112h-200v-588h-54z" />
    <glyph glyph-name="uni0163" unicode="&#x163;" horiz-adv-x="347" 
d="M315 -3q-17 -4 -35 -5.5t-46 -1.5h-15t-14 1l-9 -36q48 -1 73 -20t25 -54t-29 -57.5t-100 -22.5q-25 0 -46 3v52q20 -7 46 -7q32 0 44.5 7.5t12.5 19.5q0 17 -19 23t-73 6l34 95q-42 14 -61 48t-19 91v260h-65v97h65v128h126v-128h100v-97h-100v-242q0 -38 14.5 -52.5
t55.5 -14.5q11 0 21 1t17 3z" />
    <glyph glyph-name="Tcaron" unicode="&#x164;" horiz-adv-x="578" 
d="M153 869h74l62 -63l62 63h74l-82 -126h-108zM358 589v-588h-139v588h-201v112h540v-112h-200z" />
    <glyph glyph-name="tcaron" unicode="&#x165;" horiz-adv-x="347" 
d="M242 574v126h117l-43 -126h-74zM209 156q0 -38 14.5 -52.5t55.5 -14.5q11 0 21 1t17 3v-96q-17 -4 -35 -5.5t-46 -1.5q-81 0 -116.5 35t-35.5 113v260h-65v97h65v128h126v-128h100v-97h-100z" />
    <glyph glyph-name="Tbar" unicode="&#x166;" horiz-adv-x="578" 
d="M359 416h98v-62h-98v-354h-139v354h-99v62h99v172h-201v112h540v-112h-200v-172z" />
    <glyph glyph-name="tbar" unicode="&#x167;" horiz-adv-x="347" 
d="M209 156q0 -38 14.5 -52.5t55.5 -14.5q11 0 21 1t17 3v-96q-17 -4 -35 -5.5t-46 -1.5q-81 0 -116.5 35t-35.5 113v120h-49v62h49v78h-65v97h65v128h126v-128h100v-97h-100v-78h73v-62h-73z" />
    <glyph glyph-name="Umacron" unicode="&#x16a;" horiz-adv-x="699" 
d="M235 767v62h227v-62h-227zM628 236q0 -51 -13.5 -95.5t-46 -78t-86 -53t-134.5 -19.5q-80 0 -133.5 19.5t-85.5 53t-45.5 78t-13.5 95.5v464h139v-464q0 -27 6 -51.5t22 -43t43 -29.5t69 -11t69.5 11t43 29.5t21.5 43t6 51.5v464h139v-464z" />
    <glyph glyph-name="umacron" unicode="&#x16b;" horiz-adv-x="595" 
d="M183 567v62h227v-62h-227zM529 1h-116v93q-9 -21 -23 -40t-34.5 -33t-48.5 -22t-64 -8q-53 0 -88.5 15t-56.5 42t-29.5 63.5t-8.5 79.5v306h126v-297q0 -48 24 -77t79 -29q33 0 55 10t35.5 27t19 39t5.5 47v279h126z" />
    <glyph glyph-name="Uring" unicode="&#x16e;" horiz-adv-x="699" 
d="M349 923q51 0 79.5 -24.5t28.5 -69.5t-28.5 -69.5t-79.5 -24.5t-79.5 24.5t-28.5 69.5t28.5 69.5t79.5 24.5zM349 872q-52 0 -52 -42q0 -44 52 -44t52 44q0 42 -52 42zM628 235q0 -51 -13.5 -95.5t-46 -78t-86 -53t-134.5 -19.5q-80 0 -133.5 19.5t-85.5 53t-45.5 78
t-13.5 95.5v464h139v-464q0 -27 6 -51.5t22 -43t43 -29.5t69 -11t69.5 11t43 29.5t21.5 43t6 51.5v464h139v-464z" />
    <glyph glyph-name="uring" unicode="&#x16f;" horiz-adv-x="595" 
d="M296 536q-51 0 -79.5 24.5t-28.5 69.5t28.5 69.5t79.5 24.5t79.5 -24.5t28.5 -69.5t-28.5 -69.5t-79.5 -24.5zM296 672q-52 0 -52 -42q0 -44 52 -44t52 44q0 42 -52 42zM528 1h-116v93q-9 -21 -23 -40t-34.5 -33t-48.5 -22t-64 -8q-53 0 -88.5 15t-56.5 42t-29.5 63.5
t-8.5 79.5v306h126v-297q0 -48 24 -77t79 -29q33 0 55 10t35.5 27t19 39t5.5 47v279h126z" />
    <glyph glyph-name="Uhungarumlaut" unicode="&#x170;" horiz-adv-x="699" 
d="M319 743h-70l26 126h126zM452 743h-73l54 126h141zM628 236q0 -51 -13.5 -95.5t-46 -78t-86 -53t-134.5 -19.5q-80 0 -133.5 19.5t-85.5 53t-45.5 78t-13.5 95.5v464h139v-464q0 -27 6 -51.5t22 -43t43 -29.5t69 -11t69.5 11t43 29.5t21.5 43t6 51.5v464h139v-464z" />
    <glyph glyph-name="uhungarumlaut" unicode="&#x171;" horiz-adv-x="595" 
d="M196 543l26 126h126l-82 -126h-70zM379 669h141l-121 -126h-73zM528 1h-116v93q-9 -21 -23 -40t-34.5 -33t-48.5 -22t-64 -8q-53 0 -88.5 15t-56.5 42t-29.5 63.5t-8.5 79.5v306h126v-297q0 -48 24 -77t79 -29q33 0 55 10t35.5 27t19 39t5.5 47v279h126z" />
    <glyph glyph-name="Uogonek" unicode="&#x172;" horiz-adv-x="699" 
d="M629 237q0 -42 -9 -80t-30.5 -69t-56.5 -54t-87 -34q-84 -32 -84 -82q0 -20 12 -29.5t39 -9.5q10 0 17.5 1.5t15.5 4.5v-75q-17 -3 -36 -3q-114 0 -114 81q0 59 73 102h-21q-80 0 -133.5 19.5t-85.5 53t-45.5 78t-13.5 95.5v464h139v-464q0 -27 6 -51.5t22 -43t43 -29.5
t69 -11t69.5 11t43 29.5t21.5 43t6 51.5v464h139z" />
    <glyph glyph-name="uogonek" unicode="&#x173;" horiz-adv-x="595" 
d="M528 1h-79q-85 -31 -85 -82q0 -20 12 -29.5t39 -9.5q10 0 17.5 1.5t15.5 4.5v-75q-17 -3 -36 -3q-114 0 -114 81q0 74 115 124v81q-9 -21 -23 -40t-34.5 -33t-48.5 -22t-64 -8q-53 0 -88.5 15t-56.5 42t-29.5 63.5t-8.5 79.5v306h126v-297q0 -48 24 -77t79 -29
q33 0 55 10t35.5 27t19 39t5.5 47v279h126z" />
    <glyph glyph-name="Wcircumflex" unicode="&#x174;" horiz-adv-x="923" 
d="M327 744l82 126h108l82 -126h-74l-62 63l-62 -63h-74zM765 0h-183l-108 448q-2 10 -5 22t-6 35q-3 -23 -6 -35t-5 -22l-107 -448h-183l-147 700h136l107 -519q1 -5 2 -14t3 -23q2 13 3.5 22t2.5 14l117 520h156l117 -520q1 -5 2.5 -14.5t3.5 -23.5q2 14 3 24t2 15
l106 519h136z" />
    <glyph glyph-name="wcircumflex" unicode="&#x175;" horiz-adv-x="795" 
d="M262 544l82 126h108l82 -126h-74l-62 63l-62 -63h-74zM679 -16h-160l-99 349q-2 5 -2.5 9.5t-1.5 8.5q-1 -4 -1.5 -8.5t-2.5 -9.5l-100 -349h-159l-129 496h125l96 -354q-5 2 -5 -1.5t1 -8.5q1 5 1.5 9t2.5 9l98 354h127l99 -354q-5 2 -5 -1.5t1 -8.5q1 5 1.5 9t2.5 9
l96 354h125z" />
    <glyph glyph-name="Ycircumflex" unicode="&#x176;" horiz-adv-x="634" 
d="M182 744l82 126h108l82 -126h-74l-62 63l-62 -63h-74zM386 0h-139v295l-242 405h150l149 -242q9 -14 14 -30q5 16 14 30l148 242h150l-243 -406z" />
    <glyph glyph-name="ycircumflex" unicode="&#x177;" horiz-adv-x="552" 
d="M142 544l82 126h108l82 -126h-74l-62 63l-62 -63h-74zM308 -63q-18 -44 -38.5 -73.5t-47.5 -47.5t-63 -25.5t-86 -7.5q-20 0 -30 3v101q8 -3 20 -6t26 -3q20 0 33 3t23 10t18 19t17 30l33 66l-210 490h133l134 -321q2 -6 4 -11.5t4 -11.5q2 6 4 11.5t4 11.5l133 321h133z
" />
    <glyph glyph-name="Ydieresis" unicode="&#x178;" horiz-adv-x="634" 
d="M179 762v94h101v-94h-101zM355 762v94h100v-94h-100zM386 0h-139v295l-242 405h150l149 -242q9 -14 14 -30q5 16 14 30l148 242h150l-243 -406z" />
    <glyph glyph-name="Zacute" unicode="&#x179;" horiz-adv-x="607" 
d="M266 743l51 126h148l-122 -126h-77zM203 141q-8 -9 -15.5 -16.5l-13.5 -13.5h400v-112h-540v125l371 433q16 18 30 30h-401v112h541v-125z" />
    <glyph glyph-name="zacute" unicode="&#x17a;" horiz-adv-x="537" 
d="M235 543l51 126h148l-122 -126h-77zM497 1h-457v113l288 269q10 9 15 11h-297v103h445v-114l-287 -268q-11 -9 -15 -11h310z" />
    <glyph glyph-name="Zdotaccent" unicode="&#x17b;" horiz-adv-x="607" 
d="M241 763v124h126v-124h-126zM202 141q-8 -9 -15.5 -16.5l-13.5 -13.5h400v-112h-540v125l371 433q16 18 30 30h-401v112h541v-125z" />
    <glyph glyph-name="zdotaccent" unicode="&#x17c;" horiz-adv-x="537" 
d="M209 563v124h126v-124h-126zM495 0h-457v113l288 269q10 9 15 11h-297v103h445v-114l-287 -268q-11 -9 -15 -11h310z" />
    <glyph glyph-name="Zcaron" unicode="&#x17d;" horiz-adv-x="607" 
d="M169 869h74l62 -63l62 63h74l-82 -126h-108zM202 142q-8 -9 -15.5 -16.5l-13.5 -13.5h400v-112h-540v125l371 433q16 18 30 30h-401v112h541v-125z" />
    <glyph glyph-name="zcaron" unicode="&#x17e;" horiz-adv-x="537" 
d="M137 669h74l62 -63l62 63h74l-82 -126h-108zM496 1h-457v113l288 269q10 9 15 11h-297v103h445v-114l-287 -268q-11 -9 -15 -11h310z" />
    <glyph glyph-name="longs" unicode="&#x17f;" horiz-adv-x="295" 
d="M67 524q0 43 10 77t34 56.5t63.5 34.5t99.5 12q19 0 31 -3v-97q-7 2 -15.5 4t-16.5 2q-48 0 -65 -18t-17 -67v-525h-126z" />
    <glyph glyph-name="florin" unicode="&#x192;" horiz-adv-x="502" 
d="M220 527q8 43 24 76.5t44 56t70 34.5t102 12q18 0 30 -3v-101q-8 3 -20.5 6t-26.5 3q-48 0 -68.5 -18t-29.5 -67l-23 -124h94v-103h-113l-63 -335q-8 -43 -24.5 -76.5t-44.5 -56t-69.5 -34.5t-101.5 -12q-20 0 -30 3v101q8 -3 20.5 -6t26.5 -3q48 0 68.5 18t29.5 67
l63 334h-91v103h110z" />
    <glyph glyph-name="uni0218" unicode="&#x218;" horiz-adv-x="658" 
d="M463 496q-3 19 -12 38t-26 34t-42.5 24.5t-60.5 9.5q-25 0 -47.5 -5t-39 -15.5t-26 -25.5t-9.5 -34q0 -35 31.5 -55t78.5 -34t101.5 -28t101.5 -37t78.5 -61t31.5 -100q0 -53 -23 -93t-63.5 -67t-96 -41t-119.5 -14q-69 0 -122 16t-89.5 45t-56.5 69t-21 88h145
q5 -55 48.5 -81t105.5 -26q67 0 104.5 27.5t37.5 68.5q0 27 -18 44.5t-48 30t-67.5 21.5t-77.5 19t-77.5 24t-67.5 36t-48 54t-18 79q0 50 21 88.5t57 64t84.5 38.5t104.5 13q65 0 116.5 -16t87 -44.5t55.5 -69t22 -89.5zM371 -46v-103l-42 -73h-56l42 73h-42v103h98z" />
    <glyph glyph-name="uni0219" unicode="&#x219;" horiz-adv-x="522" 
d="M354 358q0 12 -4 23.5t-14 20.5t-28.5 15t-48.5 6q-50 0 -71.5 -15.5t-21.5 -39.5q0 -17 10 -28t27 -19t39 -13t46 -10q34 -7 69.5 -16.5t65 -26t48 -43t18.5 -68.5q0 -39 -16.5 -67.5t-46.5 -47.5t-71.5 -28.5t-90.5 -9.5q-60 0 -103 12.5t-70.5 34t-41 50t-13.5 60.5
h123q1 -33 24.5 -51.5t79.5 -18.5q45 0 73 14t28 46q0 18 -12.5 29.5t-33 19t-46.5 12.5t-54 11q-32 7 -63 17t-55.5 27t-40 43.5t-15.5 66.5q0 41 17.5 68t46.5 43.5t66.5 23.5t77.5 7q108 0 164 -40.5t56 -109.5zM317 -48v-103l-42 -73h-56l42 73h-42v103h98z" />
    <glyph glyph-name="uni021A" unicode="&#x21a;" horiz-adv-x="578" 
d="M359 588v-588h-139v588h-201v112h540v-112h-200zM338 -50v-103l-42 -73h-56l42 73h-42v103h98z" />
    <glyph glyph-name="uni021B" unicode="&#x21b;" horiz-adv-x="347" 
d="M209 157q0 -38 14.5 -52.5t55.5 -14.5q11 0 21 1t17 3v-96q-17 -4 -35 -5.5t-46 -1.5q-81 0 -116.5 35t-35.5 113v260h-65v97h65v128h126v-128h100v-97h-100zM242 -49v-103l-42 -73h-56l42 73h-42v103h98z" />
    <glyph glyph-name="uni0237" unicode="&#x237;" horiz-adv-x="259" 
d="M194 -39q0 -40 -9 -73t-31 -56.5t-58 -36.5t-91 -13q-21 0 -32 4v96q13 -5 32 -5q37 1 50 23t13 62v534h126v-535z" />
    <glyph glyph-name="circumflex" unicode="&#x2c6;" horiz-adv-x="272" 
d="M136 604l-62 -63h-74l82 126h108l82 -126h-74z" />
    <glyph glyph-name="caron" unicode="&#x2c7;" horiz-adv-x="272" 
d="M190 540h-108l-82 126h74l62 -63l62 63h74z" />
    <glyph glyph-name="breve" unicode="&#x2d8;" horiz-adv-x="265" 
d="M265 668q0 -60 -35 -94t-98 -34q-62 0 -97.5 34t-35.5 94h75q2 -26 17 -41.5t41 -15.5t41.5 15.5t17.5 41.5h74z" />
    <glyph glyph-name="dotaccent" unicode="&#x2d9;" horiz-adv-x="126" 
d="M0 560v124h126v-124h-126z" />
    <glyph glyph-name="ring" unicode="&#x2da;" horiz-adv-x="216" 
d="M108 720q51 0 79.5 -24.5t28.5 -69.5t-28.5 -69.5t-79.5 -24.5t-79.5 24.5t-28.5 69.5t28.5 69.5t79.5 24.5zM108 669q-52 0 -52 -42q0 -44 52 -44t52 44q0 42 -52 42z" />
    <glyph glyph-name="ogonek" unicode="&#x2db;" horiz-adv-x="152" 
d="M151 0q-85 -31 -85 -82q0 -20 12 -29.5t39 -9.5q10 0 17.5 1.5t15.5 4.5v-75q-17 -3 -36 -3q-114 0 -114 81q0 78 131 131z" />
    <glyph glyph-name="tilde" unicode="&#x2dc;" horiz-adv-x="301" 
d="M0 541q2 53 29 81t66 28q22 0 36 -7t25 -16t22 -16t26 -7q13 0 22.5 10t12.5 29h60q-2 -53 -29 -81t-66 -28q-22 0 -36 7t-25 16t-22 16t-26 7q-13 0 -22.5 -10t-12.5 -29h-60z" />
    <glyph glyph-name="hungarumlaut" unicode="&#x2dd;" horiz-adv-x="324" 
d="M70 540h-70l26 126h126zM203 540h-73l54 126h141z" />
    <glyph glyph-name="uni0308" unicode="&#x308;" horiz-adv-x="0" 
d="M0 559v94h101v-94h-101zM176 559v94h100v-94h-100z" />
    <glyph glyph-name="uni0326" unicode="&#x326;" horiz-adv-x="0" 
d="M98 -153l-42 -73h-56l42 73h-42v103h97z" />
    <glyph glyph-name="uni0394" unicode="&#x394;" horiz-adv-x="692" 
d="M4 0l273 700h137l273 -700h-683zM356 489q-3 9 -6 18.5t-5 18.5q-2 -9 -5 -18.5t-6 -18.5l-146 -377h315z" />
    <glyph glyph-name="uni03A9" unicode="&#x3a9;" horiz-adv-x="715" 
d="M182 112q-63 54 -97.5 132t-34.5 168q0 66 19.5 121t58.5 94.5t96.5 61t133.5 21.5q75 0 132.5 -21.5t96.5 -61t58.5 -94.5t19.5 -121q0 -90 -34 -168t-97 -132h119v-112h-258v118q30 16 54 43.5t41 62t26 73.5t9 80q0 46 -9 86.5t-29 70.5t-52 47.5t-78 17.5
q-45 0 -77 -17.5t-52 -47.5t-29 -70.5t-9 -86.5q0 -41 9 -80t26 -73.5t41 -62t54 -43.5v-118h-258v112h120z" />
    <glyph glyph-name="uni03BC" unicode="&#x3bc;" horiz-adv-x="602" 
d="M538 0h-116v93q-16 -42 -50 -71t-96 -29q-26 0 -46.5 4.5t-38.5 12.5v-214h-126v700h126v-306q0 -20 4.5 -37.5t16.5 -30.5t32 -20.5t50 -7.5q36 0 58.5 10t36 26t18.5 36t5 41v289h125z" />
    <glyph glyph-name="pi" unicode="&#x3c0;" horiz-adv-x="648" 
d="M510 152q0 -38 14.5 -52.5t56.5 -14.5q10 0 20 1t17 3v-96q-10 -2 -18 -2.5t-19 -0.5q-57 0 -94.5 10.5t-60 31.5t-32 51t-9.5 69v247h-133v-399h-126v399h-107v97h600v-97h-109v-247z" />
    <glyph glyph-name="uni0E3F" unicode="&#xe3f;" horiz-adv-x="656" 
d="M353 700q61 0 107 -14.5t77 -39.5t46.5 -59t15.5 -72q0 -51 -26.5 -90t-80.5 -62q66 -23 99.5 -66.5t33.5 -99.5q0 -41 -17 -77t-51.5 -62.5t-85.5 -42t-118 -15.5h-7v-70h-94v70h-179v700h179v70h94v-70h7zM351 417q54 0 80 25.5t26 60.5t-26 60t-80 25h-139v-170z
M357 110q63 0 94 28t31 69t-31 69.5t-94 28.5h-145v-195h145z" />
    <glyph glyph-name="Wgrave" unicode="&#x1e80;" horiz-adv-x="923" 
d="M302 869h148l51 -126h-78zM764 0h-183l-108 448q-2 10 -5 22t-6 35q-3 -23 -6 -35t-5 -22l-107 -448h-183l-147 700h136l107 -519q1 -5 2 -14t3 -23q2 13 3.5 22t2.5 14l117 520h156l117 -520q1 -5 2.5 -14.5t3.5 -23.5q2 14 3 24t2 15l106 519h136z" />
    <glyph glyph-name="wgrave" unicode="&#x1e81;" horiz-adv-x="795" 
d="M237 669h148l51 -126h-78zM678 -16h-160l-99 349q-2 5 -2.5 9.5t-1.5 8.5q-1 -4 -1.5 -8.5t-2.5 -9.5l-100 -349h-159l-129 496h125l96 -354q-5 2 -5 -1.5t1 -8.5q1 5 1.5 9t2.5 9l98 354h127l99 -354q-5 2 -5 -1.5t1 -8.5q1 5 1.5 9t2.5 9l96 354h125z" />
    <glyph glyph-name="Wacute" unicode="&#x1e82;" horiz-adv-x="923" 
d="M424 743l51 126h148l-122 -126h-77zM765 0h-183l-108 448q-2 10 -5 22t-6 35q-3 -23 -6 -35t-5 -22l-107 -448h-183l-147 700h136l107 -519q1 -5 2 -14t3 -23q2 13 3.5 22t2.5 14l117 520h156l117 -520q1 -5 2.5 -14.5t3.5 -23.5q2 14 3 24t2 15l106 519h136z" />
    <glyph glyph-name="wacute" unicode="&#x1e83;" horiz-adv-x="795" 
d="M359 543l51 126h148l-122 -126h-77zM679 -16h-160l-99 349q-2 5 -2.5 9.5t-1.5 8.5q-1 -4 -1.5 -8.5t-2.5 -9.5l-100 -349h-159l-129 496h125l96 -354q-5 2 -5 -1.5t1 -8.5q1 5 1.5 9t2.5 9l98 354h127l99 -354q-5 2 -5 -1.5t1 -8.5q1 5 1.5 9t2.5 9l96 354h125z" />
    <glyph glyph-name="Wdieresis" unicode="&#x1e84;" horiz-adv-x="923" 
d="M324 762v94h101v-94h-101zM500 762v94h100v-94h-100zM764 0h-183l-108 448q-2 10 -5 22t-6 35q-3 -23 -6 -35t-5 -22l-107 -448h-183l-147 700h136l107 -519q1 -5 2 -14t3 -23q2 13 3.5 22t2.5 14l117 520h156l117 -520q1 -5 2.5 -14.5t3.5 -23.5q2 14 3 24t2 15l106 519
h136z" />
    <glyph glyph-name="wdieresis" unicode="&#x1e85;" horiz-adv-x="795" 
d="M259 562v94h101v-94h-101zM435 562v94h100v-94h-100zM678 -16h-160l-99 349q-2 5 -2.5 9.5t-1.5 8.5q-1 -4 -1.5 -8.5t-2.5 -9.5l-100 -349h-159l-129 496h125l96 -354q-5 2 -5 -1.5t1 -8.5q1 5 1.5 9t2.5 9l98 354h127l99 -354q-5 2 -5 -1.5t1 -8.5q1 5 1.5 9t2.5 9
l96 354h125z" />
    <glyph glyph-name="uni1E9E" unicode="&#x1e9e;" horiz-adv-x="680" 
d="M462 406q49 -10 84 -28t57 -43.5t32 -56.5t10 -67q0 -47 -16 -86t-51.5 -68t-92.5 -45t-139 -16h-8v111h8q86 2 123 33t37 83q0 55 -38.5 86.5t-128.5 31.5v91l108 125q17 19 31 31h-267v-588h-139v700h538v-125z" />
    <glyph glyph-name="Ygrave" unicode="&#x1ef2;" horiz-adv-x="634" 
d="M157 869h148l51 -126h-78zM386 0h-139v295l-242 405h150l149 -242q9 -14 14 -30q5 16 14 30l148 242h150l-243 -406z" />
    <glyph glyph-name="ygrave" unicode="&#x1ef3;" horiz-adv-x="552" 
d="M118 669h148l51 -126h-78zM309 -64q-18 -44 -38.5 -73.5t-47.5 -47.5t-63 -25.5t-86 -7.5q-20 0 -30 3v102q8 -3 20 -6t26 -3q20 0 33 3t23 10t18 19t17 30l33 66l-210 490h133l134 -321q2 -6 4 -11.5t4 -11.5q2 6 4 11.5t4 11.5l133 321h133z" />
    <glyph glyph-name="uni2009" unicode="&#x2009;" horiz-adv-x="100" 
 />
    <glyph glyph-name="endash" unicode="&#x2013;" horiz-adv-x="430" 
d="M11 243v96h407v-96h-407z" />
    <glyph glyph-name="emdash" unicode="&#x2014;" horiz-adv-x="789" 
d="M12 268v71h765v-71h-765z" />
    <glyph glyph-name="quoteleft" unicode="&#x2018;" horiz-adv-x="279" 
d="M214 581v-156h-149v156l67 119h86l-65 -119h61z" />
    <glyph glyph-name="quoteright" unicode="&#x2019;" horiz-adv-x="280" 
d="M213 544l-67 -119h-86l65 119h-60v156h149z" />
    <glyph glyph-name="quotesinglbase" unicode="&#x201a;" horiz-adv-x="280" 
d="M213 0l-67 -119h-86l65 119h-60v156h149z" />
    <glyph glyph-name="quotedblleft" unicode="&#x201c;" horiz-adv-x="483" 
d="M154 581h60v-156h-149v156l67 119h86zM419 581v-156h-149v156l67 119h86l-65 -119h61z" />
    <glyph glyph-name="quotedblright" unicode="&#x201d;" horiz-adv-x="483" 
d="M214 700v-156l-67 -119h-86l65 119h-60v156h148zM417 544l-67 -119h-86l65 119h-60v156h149z" />
    <glyph glyph-name="quotedblbase" unicode="&#x201e;" horiz-adv-x="483" 
d="M214 156v-156l-67 -119h-86l65 119h-60v156h148zM417 0l-67 -119h-86l65 119h-60v156h149z" />
    <glyph glyph-name="dagger" unicode="&#x2020;" horiz-adv-x="552" 
d="M338 346v-492h-125v492h-178v100h178v179h125v-179h178v-100h-178z" />
    <glyph glyph-name="daggerdbl" unicode="&#x2021;" horiz-adv-x="552" 
d="M339 132h178v-100h-178v-178h-125v178h-178v100h178v214h-178v100h178v179h125v-179h178v-100h-178v-214z" />
    <glyph glyph-name="bullet" unicode="&#x2022;" horiz-adv-x="334" 
d="M167 241q-23 0 -43 8.5t-35 23.5t-23.5 35t-8.5 43q0 22 8.5 42t23.5 35t35 24t43 9t43 -9t35 -24t23.5 -35t8.5 -42q0 -23 -8.5 -43t-23.5 -35t-35 -23.5t-43 -8.5z" />
    <glyph glyph-name="ellipsis" unicode="&#x2026;" horiz-adv-x="832" 
d="M65 0v156h149v-156h-149zM340 0v156h149v-156h-149zM616 0v156h149v-156h-149z" />
    <glyph glyph-name="perthousand" unicode="&#x2030;" horiz-adv-x="1382" 
d="M238 710q54 0 90 -14.5t58 -39.5t31 -58.5t9 -70.5t-9 -70t-31 -58t-58 -39.5t-90 -14.5t-90 14.5t-57.5 39.5t-31 58t-9.5 70t9.5 70.5t31 58.5t57.5 39.5t90 14.5zM200 0l454 700h106l-453 -700h-107zM239 635q-29 0 -48 -8.5t-30 -23t-16 -34.5t-5 -42t5 -41.5t16 -34
t30 -23t48 -8.5q28 0 47.5 8.5t30.5 23t16 34t5 41.5t-5 42t-16 34.5t-30.5 23t-47.5 8.5zM722 355q54 0 90 -14.5t57.5 -39.5t30.5 -58.5t9 -70.5t-9 -70t-30.5 -58t-57.5 -39.5t-90 -14.5t-90 14.5t-57.5 39.5t-31 58t-9.5 70t9.5 70.5t31 58.5t57.5 39.5t90 14.5z
M1144 355q54 0 90.5 -14.5t58 -39.5t30.5 -58.5t9 -70.5t-9 -70t-30.5 -58t-58 -39.5t-90.5 -14.5q-53 0 -89 14.5t-58 39.5t-31 58t-9 70t9 70.5t31 58.5t58 39.5t89 14.5zM723 280q-29 0 -48 -8.5t-30 -23t-16 -34.5t-5 -42t5 -41.5t16 -34t30 -23t48 -8.5q28 0 47.5 8.5
t30.5 23t16 34t5 41.5t-5 42t-16 34.5t-30.5 23t-47.5 8.5zM1145 280q-29 0 -47.5 -8.5t-30 -23t-16 -34.5t-4.5 -42t4.5 -41.5t16 -34t30 -23t47.5 -8.5t48 8.5t30.5 23t16.5 34t5 41.5t-5 42t-16.5 34.5t-30.5 23t-48 8.5z" />
    <glyph glyph-name="minute" unicode="&#x2032;" horiz-adv-x="239" 
d="M48 474l29 226h114l-83 -226h-60z" />
    <glyph glyph-name="second" unicode="&#x2033;" horiz-adv-x="401" 
d="M48 474l29 226h114l-83 -226h-60zM211 474l29 226h114l-83 -226h-60z" />
    <glyph glyph-name="uni2034" unicode="&#x2034;" horiz-adv-x="568" 
d="M191 700l-83 -226h-60l29 226h114zM353 700l-83 -226h-60l29 226h114zM437 474h-60l29 226h114z" />
    <glyph glyph-name="guilsinglleft" unicode="&#x2039;" horiz-adv-x="301" 
d="M245 78h-99l-86 170l86 170h99l-89 -170z" />
    <glyph glyph-name="guilsinglright" unicode="&#x203a;" horiz-adv-x="301" 
d="M157 78h-99l89 170l-89 170h99l86 -170z" />
    <glyph glyph-name="uni203D" unicode="&#x203d;" horiz-adv-x="642" 
d="M43 493q1 60 23 101.5t60 67.5t88.5 37.5t107.5 11.5q55 0 105 -13t87.5 -39t60 -65t22.5 -92q0 -48 -19.5 -83t-51 -58t-71 -35t-78.5 -16l-5 -86h-103l-15 268h133l-6 -105q46 9 71 36t25 66q0 50 -39 83.5t-117 33.5q-70 0 -111 -29.5t-43 -84.5zM395 156v-156h-149
v156h149z" />
    <glyph glyph-name="fraction" unicode="&#x2044;" horiz-adv-x="274" 
d="M-77 0l345 700h82l-345 -700h-82z" />
    <glyph glyph-name="uni2070" unicode="&#x2070;" horiz-adv-x="455" 
d="M228 843q56 0 93 -19t59.5 -51t32 -75t9.5 -92t-9.5 -92t-32 -75.5t-59.5 -51t-93 -18.5t-93.5 18.5t-60 51t-32 75.5t-9.5 92t9.5 92t32 75t60 51t93.5 19zM228 754q-24 0 -39.5 -11.5t-24.5 -32t-13 -47.5t-4 -57q0 -31 4 -58t13 -47.5t24.5 -32t39.5 -11.5t40 11.5
t25.5 32t13.5 47.5t4 58t-4 58t-13.5 47t-25.5 31.5t-40 11.5z" />
    <glyph glyph-name="uni2074" unicode="&#x2074;" horiz-adv-x="456" 
d="M367 475v-101h-111v101h-241v95l156 265h117l-169 -271h136v103h111v-103h76v-88z" />
    <glyph glyph-name="uni2075" unicode="&#x2075;" horiz-adv-x="445" 
d="M149 651q14 13 39.5 22.5t63.5 9.5q36 0 67 -10.5t54 -30t36 -48.5t13 -66q0 -44 -18.5 -74.5t-48 -50t-65 -28t-69.5 -8.5q-47 0 -83 12t-61 32t-39 47.5t-17 59.5h112q7 -26 28 -43.5t61 -17.5q17 0 33 4.5t28.5 13.5t20 23.5t7.5 35.5q0 37 -26.5 54.5t-59.5 17.5
q-27 0 -47.5 -8t-35.5 -27h-106l37 264h304v-89h-214z" />
    <glyph glyph-name="uni2076" unicode="&#x2076;" horiz-adv-x="455" 
d="M302 695q-2 7 -6 16.5t-12 18t-20 14t-29 5.5q-23 0 -39 -8.5t-26 -22.5t-15.5 -33.5t-7.5 -40.5q-1 -5 -1.5 -11t-0.5 -12q13 20 42.5 33t76.5 13q40 0 69.5 -11.5t49 -31.5t29 -46.5t9.5 -56.5t-12 -57.5t-35.5 -48.5t-59 -33.5t-81.5 -12.5q-40 0 -76 11t-63.5 38
t-44 71.5t-16.5 111.5q0 46 11.5 89.5t36.5 77.5t64 54.5t95 20.5q31 0 60 -10t52.5 -29.5t38 -47.5t17.5 -64zM234 460q40 0 59.5 19t19.5 45t-19.5 45t-59.5 19q-42 0 -60.5 -19t-18.5 -45q0 -27 20 -45.5t58 -18.5h1z" />
    <glyph glyph-name="uni2077" unicode="&#x2077;" horiz-adv-x="383" 
d="M370 737q-72 -69 -111 -161t-39 -201h-118q0 57 15 111.5t39 102.5t54 88.5t60 69.5h-257v88h357v-98z" />
    <glyph glyph-name="uni2078" unicode="&#x2078;" horiz-adv-x="448" 
d="M336 631q46 -17 70 -49.5t24 -70.5q0 -39 -18.5 -66.5t-47.5 -44.5t-65.5 -24.5t-73.5 -7.5t-73.5 7.5t-65.5 24.5t-47 44.5t-18 66.5q0 38 23.5 70t69.5 50q-30 17 -46 42t-16 55q0 32 15 54t39.5 35.5t55 19.5t61.5 6q30 0 61 -6t56 -19.5t41 -35.5t16 -54
q0 -30 -15.5 -55t-46.5 -42h1zM225 763q-14 0 -27.5 -2.5t-24.5 -8.5t-18 -15t-7 -22q0 -22 20.5 -37t57.5 -15q36 0 56 15t20 37q0 13 -7 22t-18.5 15t-25 8.5t-26.5 2.5zM223 455q16 0 33 3.5t30.5 11.5t22 20.5t8.5 30.5q0 29 -23.5 48t-69.5 19t-70 -19t-24 -48
q0 -18 8.5 -30.5t22 -20.5t30.5 -11.5t34 -3.5h-2z" />
    <glyph glyph-name="uni2079" unicode="&#x2079;" horiz-adv-x="455" 
d="M153 515q1 -8 5.5 -17t12.5 -17.5t20 -14t29 -5.5q23 0 39 8.5t26 22.5t15.5 33.5t7.5 40.5q1 5 1.5 11t0.5 12q-13 -20 -42.5 -33t-76.5 -13q-40 0 -69.5 11.5t-49 32t-29 47.5t-9.5 58q0 29 12 56t35.5 47.5t58.5 33t82 12.5q40 0 76 -11t63.5 -38t44 -71.5
t16.5 -111.5q0 -46 -11.5 -89.5t-36.5 -77.5t-65 -54.5t-96 -20.5q-30 0 -59 10t-52 29.5t-37.5 47.5t-17.5 64zM221 622q42 0 60.5 19t18.5 45q0 27 -20 45.5t-58 18.5q-40 0 -59.5 -19t-19.5 -45t19.5 -45t59.5 -19h-1z" />
    <glyph glyph-name="uni207A" unicode="&#x207a;" horiz-adv-x="337" 
d="M209 550v-86h-82v86h-93v78h93v87h82v-87h93v-78h-93z" />
    <glyph glyph-name="uni207B" unicode="&#x207b;" horiz-adv-x="341" 
d="M35 550v79h271v-79h-271z" />
    <glyph glyph-name="uni207C" unicode="&#x207c;" horiz-adv-x="337" 
d="M35 612v78h267v-78h-267zM35 487v78h267v-78h-267z" />
    <glyph glyph-name="uni207D" unicode="&#x207d;" horiz-adv-x="222" 
d="M210 932q-35 -72 -53.5 -153.5t-18.5 -172.5q0 -90 18.5 -171t53.5 -153h-66q-55 69 -82 150t-27 174q0 189 109 326h66z" />
    <glyph glyph-name="uni207E" unicode="&#x207e;" horiz-adv-x="222" 
d="M12 282q35 72 53.5 153.5t18.5 172.5t-18.5 171.5t-53.5 152.5h66q55 -69 82 -150t27 -174q0 -189 -109 -326h-66z" />
    <glyph glyph-name="uni2080" unicode="&#x2080;" horiz-adv-x="455" 
d="M228 310q56 0 93 -19t59.5 -51t32 -75t9.5 -92t-9.5 -92t-32 -75.5t-59.5 -51t-93 -18.5t-93.5 18.5t-60 51t-32 75.5t-9.5 92t9.5 92t32 75t60 51t93.5 19zM228 221q-24 0 -39.5 -11.5t-24.5 -32t-13 -47.5t-4 -57q0 -31 4 -58t13 -47.5t24.5 -32t39.5 -11.5t40 11.5
t25.5 32t13.5 47.5t4 58t-4 58t-13.5 47t-25.5 31.5t-40 11.5z" />
    <glyph glyph-name="uni2081" unicode="&#x2081;" horiz-adv-x="317" 
d="M260 -157h-111v349l-84 -61l-54 69l142 103h108z" />
    <glyph glyph-name="uni2082" unicode="&#x2082;" horiz-adv-x="403" 
d="M23 159q1 73 48.5 111.5t132.5 38.5q35 0 67.5 -8.5t57.5 -25t40 -41.5t15 -59q0 -42 -20.5 -78t-52.5 -66.5t-70 -55.5t-73 -44h215v-89h-360v98q31 16 73.5 40.5t81.5 55t66 64.5t27 70q0 26 -18.5 38.5t-50.5 12.5q-36 0 -53 -17t-20 -44z" />
    <glyph glyph-name="uni2083" unicode="&#x2083;" horiz-adv-x="419" 
d="M33 159q0 72 46.5 111t131.5 39q29 0 58.5 -6.5t53.5 -21t39 -37.5t15 -56q0 -36 -19 -60.5t-48 -38.5q38 -15 63.5 -43.5t25.5 -73.5q0 -38 -17.5 -64t-44.5 -42t-60.5 -23.5t-65.5 -7.5q-89 0 -140.5 40.5t-53.5 109.5h109q3 -23 21.5 -42t63.5 -19q35 0 56.5 17
t21.5 42q0 26 -20.5 41.5t-68.5 16.5v82q70 2 70 51q0 26 -20.5 37t-43.5 11q-35 0 -52 -16.5t-19 -45.5z" />
    <glyph glyph-name="uni2084" unicode="&#x2084;" horiz-adv-x="456" 
d="M367 -58v-101h-111v101h-241v95l156 265h117l-169 -271h136v103h111v-103h76v-88z" />
    <glyph glyph-name="uni2085" unicode="&#x2085;" horiz-adv-x="445" 
d="M149 119q14 13 39.5 22.5t63.5 9.5q36 0 67 -10.5t54 -30t36 -48.5t13 -66q0 -44 -18.5 -74.5t-48 -50t-65 -28t-69.5 -8.5q-47 0 -83 12t-61 32t-39 47.5t-17 59.5h112q7 -26 28 -43.5t61 -17.5q17 0 33 4.5t28.5 13.5t20 23.5t7.5 35.5q0 37 -26.5 54.5t-59.5 17.5
q-27 0 -47.5 -8t-35.5 -27h-106l37 264h304v-89h-214z" />
    <glyph glyph-name="uni2086" unicode="&#x2086;" horiz-adv-x="455" 
d="M302 163q-2 7 -6 16.5t-12 18t-20 14t-29 5.5q-23 0 -39 -8.5t-26 -22.5t-15.5 -33.5t-7.5 -40.5q-1 -5 -1.5 -11t-0.5 -12q13 20 42.5 33t76.5 13q40 0 69.5 -11.5t49 -31.5t29 -46.5t9.5 -56.5t-12 -57.5t-35.5 -48.5t-59 -33.5t-81.5 -12.5q-40 0 -76 11t-63.5 38
t-44 71.5t-16.5 111.5q0 46 11.5 89.5t36.5 77.5t64 54.5t95 20.5q31 0 60 -10t52.5 -29.5t38 -47.5t17.5 -64zM234 -72q40 0 59.5 19t19.5 45t-19.5 45t-59.5 19q-42 0 -60.5 -19t-18.5 -45q0 -27 20 -45.5t58 -18.5h1z" />
    <glyph glyph-name="uni2087" unicode="&#x2087;" horiz-adv-x="383" 
d="M370 205q-72 -69 -111 -161t-39 -201h-118q0 57 15 111.5t39 102.5t54 88.5t60 69.5h-257v88h357v-98z" />
    <glyph glyph-name="uni2088" unicode="&#x2088;" horiz-adv-x="448" 
d="M336 99q46 -17 70 -49.5t24 -70.5q0 -39 -18.5 -66.5t-47.5 -44.5t-65.5 -24.5t-73.5 -7.5t-73.5 7.5t-65.5 24.5t-47 44.5t-18 66.5q0 38 23.5 70t69.5 50q-30 17 -46 42t-16 55q0 32 15 54t39.5 35.5t55 19.5t61.5 6q30 0 61 -6t56 -19.5t41 -35.5t16 -54
q0 -30 -15.5 -55t-46.5 -42h1zM225 231q-14 0 -27.5 -2.5t-24.5 -8.5t-18 -15t-7 -22q0 -22 20.5 -37t57.5 -15q36 0 56 15t20 37q0 13 -7 22t-18.5 15t-25 8.5t-26.5 2.5zM223 -77q16 0 33 3.5t30.5 11.5t22 20.5t8.5 30.5q0 29 -23.5 48t-69.5 19t-70 -19t-24 -48
q0 -18 8.5 -30.5t22 -20.5t30.5 -11.5t34 -3.5h-2z" />
    <glyph glyph-name="uni2089" unicode="&#x2089;" horiz-adv-x="455" 
d="M153 -17q1 -8 5.5 -17t12.5 -17.5t20 -14t29 -5.5q23 0 39 8.5t26 22.5t15.5 33.5t7.5 40.5q1 5 1.5 11t0.5 12q-13 -20 -42.5 -33t-76.5 -13q-40 0 -69.5 11.5t-49 32t-29 47.5t-9.5 58q0 29 12 56t35.5 47.5t58.5 33t82 12.5q40 0 76 -11t63.5 -38t44 -71.5
t16.5 -111.5q0 -46 -11.5 -89.5t-36.5 -77.5t-65 -54.5t-96 -20.5q-30 0 -59 10t-52 29.5t-37.5 47.5t-17.5 64zM221 90q42 0 60.5 19t18.5 45q0 27 -20 45.5t-58 18.5q-40 0 -59.5 -19t-19.5 -45t19.5 -45t59.5 -19h-1z" />
    <glyph glyph-name="uni208A" unicode="&#x208a;" horiz-adv-x="337" 
d="M209 14v-86h-82v86h-93v78h93v87h82v-87h93v-78h-93z" />
    <glyph glyph-name="uni208B" unicode="&#x208b;" horiz-adv-x="341" 
d="M35 14v79h271v-79h-271z" />
    <glyph glyph-name="uni208C" unicode="&#x208c;" horiz-adv-x="337" 
d="M35 78v78h267v-78h-267zM35 -47v78h267v-78h-267z" />
    <glyph glyph-name="uni208D" unicode="&#x208d;" horiz-adv-x="222" 
d="M210 397q-35 -72 -53.5 -153.5t-18.5 -172.5q0 -90 18.5 -171t53.5 -153h-66q-55 69 -82 150t-27 174q0 189 109 326h66z" />
    <glyph glyph-name="uni208E" unicode="&#x208e;" horiz-adv-x="222" 
d="M12 -253q35 72 53.5 153.5t18.5 172.5t-18.5 171.5t-53.5 152.5h66q55 -69 82 -150t27 -174q0 -189 -109 -326h-66z" />
    <glyph glyph-name="colonmonetary" unicode="&#x20a1;" horiz-adv-x="704" 
d="M524 491q-5 18 -16 36.5t-30.5 33.5t-47 24.5t-63.5 9.5q-52 0 -86.5 -19.5t-55 -53t-29 -78t-8.5 -95.5t8.5 -95.5t29 -78t55 -53t86.5 -19.5q36 0 63.5 9.5t47 24.5t30.5 33.5t16 36.5h136q-4 -40 -23.5 -77.5t-55.5 -66t-89.5 -46t-124.5 -17.5h-8l-23 -70h-71l24 76
q-36 6 -66 18l-31 -94h-71l42 127q-63 48 -88 124.5t-25 169.5q0 72 15 136t52 111.5t98 75t153 27.5h6l22 70h71l-24 -76q36 -6 66 -18l31 93h71l-41 -125q42 -29 63.5 -69t26.5 -84z" />
    <glyph glyph-name="franc" unicode="&#x20a3;" horiz-adv-x="626" 
d="M264 451h251v-66h-250v-66h251v-65h-250v-253h-139v253h-85v65h85v66h-85v66h85v249h474v-112h-335z" />
    <glyph glyph-name="lira" unicode="&#x20a4;" horiz-adv-x="624" 
d="M274 222q-9 -28 -32 -55t-63 -53h412v-112h-539v113q33 17 59 45.5t38 60.5h-97v65h103q-4 17 -11 32.5t-15 32.5h-77v66h45q-8 20 -13 42t-5 47q0 54 21.5 92.5t57 63t80.5 36.5t92 12q65 0 112.5 -18.5t79.5 -49.5t48.5 -70t20.5 -80h-129q-3 17 -11 36t-23 34.5
t-38.5 26t-57.5 10.5q-54 0 -84.5 -25.5t-30.5 -70.5q0 -23 4.5 -44.5t11.5 -42.5h154v-66h-129q6 -17 11 -33t8 -33h110v-65z" />
    <glyph glyph-name="uni20A6" unicode="&#x20a6;" horiz-adv-x="850" 
d="M730 318h78v-65h-78v-253h-142l-293 433q-20 30 -29 48v-480h-131v253h-94v65h94v66h-94v66h94v249h142l293 -433q20 -30 29 -48v480h131v-249h78v-66h-78v-66z" />
    <glyph glyph-name="uni20A9" unicode="&#x20a9;" horiz-adv-x="985" 
d="M873 317h87v-65h-101l-53 -253h-183l-108 448q-2 10 -5 22t-6 35q-3 -23 -6 -35t-5 -22l-107 -448h-183l-53 253h-127v65h114l-14 66h-100v66h86l-52 250h136l107 -519q1 -5 2 -14t3 -23q2 13 3.5 22t2.5 14l117 520h156l117 -520q1 -5 2.5 -14.5t3.5 -23.5q2 14 3 24
t2 15l106 519h136l-52 -249h60v-66h-74z" />
    <glyph glyph-name="uni20AA" unicode="&#x20aa;" horiz-adv-x="789" 
d="M170 0h-106v593h307q49 0 81 -13.5t51.5 -36.5t27.5 -55.5t8 -69.5v-262h-105v262q0 19 -4.5 35.5t-15.5 28.5t-29.5 19t-46.5 7h-168v-508zM725 176q0 -38 -8 -70t-27.5 -55.5t-52 -37t-81.5 -13.5h-307v438h106v-352h168q55 0 75.5 25.5t20.5 63.5v418h106v-417z" />
    <glyph glyph-name="dong" unicode="&#x20ab;" horiz-adv-x="597" 
d="M539 566v-566h-116v89q-22 -45 -64.5 -72t-111.5 -27q-60 0 -99.5 20.5t-63 55.5t-33 82t-9.5 100t9.5 100t33 82t63 55.5t99.5 20.5q62 0 102.5 -22t63.5 -60v142h-129v62h129v71h126v-71h39v-62h-39zM290 92q35 0 58.5 12.5t38 33.5t20.5 49.5t6 60.5t-6 60t-20.5 49
t-38 33.5t-58.5 12.5q-36 0 -59.5 -12.5t-37.5 -33.5t-20 -49t-6 -60t6 -60.5t20 -49.5t37.5 -33.5t59.5 -12.5zM441 -79v-62h-293v62h293z" />
    <glyph glyph-name="Euro" unicode="&#x20ac;" horiz-adv-x="788" 
d="M279 253q7 -33 19.5 -61t33 -48.5t49.5 -31.5t68 -11q36 0 63.5 9.5t47 25t31 34.5t16.5 37h136q-4 -42 -23.5 -81.5t-55.5 -70t-89.5 -48.5t-124.5 -18q-76 0 -131 20t-92 55t-58 83.5t-30 105.5h-100v65h94l-1 32v17.5t1 16.5h-94v66h101q9 56 30.5 104t58.5 82.5
t92 54t130 19.5q71 0 124.5 -18t89.5 -48.5t55.5 -70t23.5 -81.5h-136q-5 18 -16.5 37t-31 34.5t-47 25t-63.5 9.5q-38 0 -66.5 -11t-49 -30.5t-33 -46.5t-19.5 -60h149v-66h-158q-1 -8 -1 -16.5v-17.5l1 -32h158v-65h-152z" />
    <glyph glyph-name="uni20AD" unicode="&#x20ad;" horiz-adv-x="771" 
d="M261 219v-219h-139v368h-85v85h85v247h139v-306q9 13 18 23.5t17 18.5l274 264h171l-247 -247h231v-85h-232l249 -368h-158l-215 327z" />
    <glyph glyph-name="uni20AE" unicode="&#x20ae;" horiz-adv-x="578" 
d="M359 479l138 42v-69l-138 -42v-69l137 42v-69l-137 -42v-273h-139v231l-141 -43v69l141 43v69l-140 -43v69l140 43v151h-201v112h540v-112h-200v-109z" />
    <glyph glyph-name="uni20B1" unicode="&#x20b1;" horiz-adv-x="768" 
d="M654 517q3 -17 3 -33q0 -8 -0.5 -16.5t-1.5 -16.5h79v-65h-99q-26 -54 -83.5 -87t-146.5 -33h-129v-266h-139v385h-85v65h85v66h-85v66h85v117h268q88 0 145 -32.5t83 -84.5h100v-66zM403 379q57 0 86 30.5t29 74.5t-28.5 74.5t-85.5 30.5h-129v-211z" />
    <glyph glyph-name="uni20B2" unicode="&#x20b2;" horiz-adv-x="719" 
d="M667 119q-30 -51 -94.5 -81.5t-147.5 -36.5v-72h-94v73q-143 15 -211.5 106.5t-68.5 241.5q0 76 16 137.5t50 106t85.5 71.5t123.5 33v72h93v-72q60 -6 103.5 -25.5t72 -47t43.5 -62t17 -70.5h-134q-3 18 -14 35t-29.5 30.5t-46 22t-63.5 8.5q-52 0 -86.5 -19t-54.5 -52
t-28.5 -76t-8.5 -91q0 -49 9.5 -92.5t33 -76t62.5 -51.5t98 -19q47 0 83.5 11t58.5 32v103h-101v113h231z" />
    <glyph glyph-name="uni20B4" unicode="&#x20b4;" horiz-adv-x="715" 
d="M674 383h-633v66h396q21 13 33 29t12 36q0 35 -28 56t-81 21h-262v108h265q57 0 104 -11.5t80.5 -35.5t51.5 -61t18 -87q0 -31 -10 -54h54v-67zM673 318v-65h-412q-38 -25 -38 -62t28.5 -61t88.5 -24h269v-107h-258q-61 0 -112 11t-87.5 34.5t-57 60.5t-20.5 90
q0 30 11 57h-44v65z" />
    <glyph glyph-name="uni20B5" unicode="&#x20b5;" horiz-adv-x="704" 
d="M524 490q-5 18 -16 36.5t-30.5 33.5t-47 24.5t-63.5 9.5q-52 0 -86.5 -19.5t-55 -53t-29 -78t-8.5 -95.5t8.5 -95.5t29 -78t55 -53t86.5 -19.5q36 0 63.5 9.5t47 24.5t30.5 33.5t16 36.5h136q-4 -37 -20.5 -71.5t-46.5 -62t-74.5 -46.5t-103.5 -25v-72h-94v72
q-78 7 -129.5 37t-83 76.5t-44.5 106.5t-13 128q0 67 13 127.5t44.5 107t83 76.5t129.5 37v72h94v-72q59 -6 103.5 -25t74.5 -46.5t46.5 -62t20.5 -71.5z" />
    <glyph glyph-name="uni20B9" unicode="&#x20b9;" horiz-adv-x="623" 
d="M582 634h-530v66h530v-66zM582 567v-66h-64l1 -19q0 -45 -16 -84.5t-47.5 -68.5t-78.5 -46t-110 -17h-41l343 -266h-195l-321 253v125h216q57 0 86 30.5t29 74.5q0 5 -0.5 9.5t-1.5 9.5h-330v66z" />
    <glyph glyph-name="uni20BA" unicode="&#x20ba;" horiz-adv-x="715" 
d="M670 350q0 -74 -17.5 -139.5t-58.5 -114.5t-109.5 -77.5t-171.5 -28.5q-54 0 -96.5 9.5t-75.5 27.5v336l-101 -31v69l101 31v69l-99 -30v69l99 30v131h139v-89l179 55v-69l-179 -55v-69l178 54v-69l-178 -54v-302q8 -1 16 -1.5t17 -0.5q64 0 105.5 20t66.5 53.5t35 79
t10 96.5h140z" />
    <glyph glyph-name="uni2113" unicode="&#x2113;" horiz-adv-x="514" 
d="M41 220q16 5 31 9.5t29 9.5q-2 24 -3.5 50t-1.5 55q0 177 58.5 271t170.5 94q84 0 125.5 -40.5t41.5 -112.5q0 -103 -70.5 -190.5t-198.5 -149.5q24 -109 89 -109q11 0 20 1.5t20 4.5v-113q-20 -4 -47 -4q-78 0 -126 42t-68 132q-35 -12 -72 -21zM213 286
q88 48 135 111.5t47 137.5q0 36 -16.5 57.5t-48.5 21.5q-57 0 -88 -64.5t-31 -182.5q0 -44 3 -80z" />
    <glyph glyph-name="uni2116" unicode="&#x2116;" horiz-adv-x="1094" 
d="M871 368q-50 0 -84 13.5t-54 37t-28.5 55t-8.5 66.5t8.5 66t28.5 54.5t54 37t84 13.5t83.5 -13.5t53.5 -37t28.5 -54.5t8.5 -66t-8.5 -66.5t-28.5 -55t-53.5 -37t-83.5 -13.5zM627 699v-700h-166l-224 415q-11 21 -17.5 36.5t-10.5 26.5v-478h-137v700h165l224 -416
q12 -23 18.5 -38t10.5 -26v481zM871 628q-42 0 -57.5 -25.5t-15.5 -63.5t15.5 -64t57.5 -26q41 0 56.5 26t15.5 64q0 19 -3.5 35t-12 28t-22 19t-34.5 7zM1020 313v-96h-297v96h297z" />
    <glyph glyph-name="uni2117" unicode="&#x2117;" horiz-adv-x="823" 
d="M409 711q101 0 169 -28.5t109.5 -77t59 -114t17.5 -140.5t-17.5 -141t-59 -114.5t-109.5 -77t-169 -28.5t-168 28.5t-107.5 77t-57.5 114.5t-17 141t17 140.5t57.5 114t107.5 77t168 28.5zM409 46q83 0 138 24t88 65t47 96t14 118t-14 119t-47 97t-88 65t-138 24
q-81 0 -135.5 -24t-87 -65t-46 -97t-13.5 -119t13.5 -118t46 -96.5t87 -65t135.5 -23.5zM441 551q37 0 64.5 -10t45.5 -27.5t27 -40.5t9 -49t-9 -49.5t-27 -40.5t-45.5 -27t-64.5 -10h-85v-147h-83v401h168zM441 364q32 0 48.5 18t16.5 42q0 25 -16.5 42.5t-48.5 17.5h-85
v-120h85z" />
    <glyph glyph-name="uni2120" unicode="&#x2120;" horiz-adv-x="839" 
d="M256 597q-3 25 -21.5 38.5t-49.5 13.5q-30 0 -47 -10.5t-17 -29.5q0 -18 15.5 -27t39 -15t51 -12t51 -17.5t39 -30.5t15.5 -51q0 -51 -41 -77.5t-107 -26.5q-67 0 -103 29.5t-39 77.5h66q2 -24 23.5 -37.5t56.5 -13.5t55 12.5t20 34.5q0 18 -15.5 27t-39 15t-51 11.5
t-51 16t-39 29.5t-15.5 51q0 48 36.5 74t95.5 26q64 0 99.5 -29.5t37.5 -77.5zM786 356h-69v249l-98 -249h-76l-98 249v-249h-68v343h104l100 -261l100 261h105v-343z" />
    <glyph glyph-name="trademark" unicode="&#x2122;" horiz-adv-x="807" 
d="M303 700v-56h-106v-287h-68v287h-107v56h281zM755 357h-69v249l-98 -249h-76l-98 249v-249h-68v343h104l100 -261l100 261h105v-343z" />
    <glyph glyph-name="estimated" unicode="&#x212e;" horiz-adv-x="676" 
d="M175 76q29 -27 70 -42t96 -15q47 0 86.5 12t69 32t48.5 47.5t25 58.5h33q-7 -39 -30 -71.5t-57.5 -56.5t-79 -37t-95.5 -13q-77 0 -130.5 24t-87 65t-48.5 96t-15 118t15 118t48.5 96t87 65t130.5 24q81 0 134 -23.5t84.5 -63t44 -92.5t12.5 -112v-13.5t-2 -17.5h-439
v-199zM503 522q-27 22 -66.5 34t-95.5 12q-55 0 -96 -15t-70 -41v-209h327z" />
    <glyph glyph-name="uni2139" unicode="&#x2139;" horiz-adv-x="406" 
d="M204 511q-39 0 -66.5 27t-27.5 66q0 19 7.5 36t20 29.5t29.5 19.5t37 7q19 0 36 -7t29.5 -19.5t20 -29.5t7.5 -36q0 -20 -7.5 -36.5t-20 -29.5t-29.5 -20t-36 -7zM359 -2h-312v112h87v226h-87v112h226v-337h86v-113z" />
    <glyph glyph-name="oneeighth" unicode="&#x215b;" horiz-adv-x="1039" 
d="M148 589l-84 -61l-54 69l142 103h108v-460h-111zM319 0h-81l345 700h82zM925 256q46 -17 70 -49.5t24 -70.5q0 -39 -18.5 -66.5t-47.5 -44.5t-65.5 -24.5t-73.5 -7.5t-73.5 7.5t-65.5 24.5t-47 44.5t-18 66.5q0 38 23.5 70t68.5 50q-30 17 -46 42t-16 55q0 32 15 54
t39.5 35.5t55 19.5t61.5 6q30 0 61 -6t56 -19.5t41 -35.5t16 -54q0 -30 -15.5 -55t-46.5 -42h2zM814 388q-14 0 -27.5 -2.5t-24.5 -8.5t-18 -15t-7 -22q0 -22 20.5 -37t57.5 -15q36 0 56 15t20 37q0 13 -7 22t-18.5 15t-25 8.5t-26.5 2.5zM812 80q16 0 33 3.5t30.5 11.5
t22 20.5t8.5 30.5q0 29 -23.5 48t-69.5 19t-70 -19t-24 -48q0 -18 8.5 -30.5t22 -20.5t30.5 -11.5t34 -3.5h-2z" />
    <glyph glyph-name="threeeighths" unicode="&#x215c;" horiz-adv-x="1141" 
d="M33 557q0 72 46.5 111t131.5 39q29 0 58.5 -6.5t53.5 -21t39 -37.5t15 -56q0 -36 -19 -60.5t-48 -38.5q38 -15 63.5 -43.5t25.5 -73.5q0 -38 -17.5 -64t-44.5 -42t-60.5 -23.5t-65.5 -7.5q-89 0 -140.5 40.5t-53.5 109.5h109q3 -23 21.5 -42t63.5 -19q35 0 56.5 17
t21.5 42q0 26 -20.5 41.5t-68.5 16.5v82q70 2 70 51q0 26 -20.5 37t-43.5 11q-35 0 -52 -16.5t-19 -45.5zM423 -1h-81l345 700h82zM1028 255q46 -17 70 -49.5t24 -70.5q0 -39 -18.5 -66.5t-47.5 -44.5t-65.5 -24.5t-73.5 -7.5t-73.5 7.5t-65.5 24.5t-47 44.5t-18 66.5
q0 38 23.5 70t69.5 50q-30 17 -46 42t-16 55q0 32 15 54t39.5 35.5t55 19.5t61.5 6q30 0 61 -6t56 -19.5t41 -35.5t16 -54q0 -30 -15.5 -55t-46.5 -42h1zM917 387q-14 0 -27.5 -2.5t-24.5 -8.5t-18 -15t-7 -22q0 -22 20.5 -37t57.5 -15q36 0 56 15t20 37q0 13 -7 22
t-18.5 15t-25 8.5t-26.5 2.5zM915 79q16 0 33 3.5t30.5 11.5t22 20.5t8.5 30.5q0 29 -23.5 48t-69.5 19t-70 -19t-24 -48q0 -18 8.5 -30.5t22 -20.5t30.5 -11.5t34 -3.5h-2z" />
    <glyph glyph-name="fiveeighths" unicode="&#x215d;" horiz-adv-x="1167" 
d="M149 516q14 13 39.5 22.5t63.5 9.5q36 0 67 -10.5t54 -30t36 -48.5t13 -66q0 -44 -18.5 -74.5t-48 -50t-65 -28t-69.5 -8.5q-47 0 -83 12t-61 32t-39 47.5t-17 59.5h112q7 -26 28 -43.5t61 -17.5q17 0 33 4.5t28.5 13.5t20 23.5t7.5 35.5q0 37 -26.5 54.5t-59.5 17.5
q-27 0 -47.5 -8t-35.5 -27h-106l37 264h304v-89h-214zM447 -1h-81l345 700h82zM1052 255q46 -17 70 -49.5t24 -70.5q0 -39 -18.5 -66.5t-47.5 -44.5t-65.5 -24.5t-73.5 -7.5t-73.5 7.5t-65.5 24.5t-47 44.5t-18 66.5q0 38 23.5 70t69.5 50q-30 17 -46 42t-16 55q0 32 15 54
t39.5 35.5t55 19.5t61.5 6q30 0 61 -6t56 -19.5t41 -35.5t16 -54q0 -30 -15.5 -55t-46.5 -42h1zM941 387q-14 0 -27.5 -2.5t-24.5 -8.5t-18 -15t-7 -22q0 -22 20.5 -37t57.5 -15q36 0 56 15t20 37q0 13 -7 22t-18.5 15t-25 8.5t-26.5 2.5zM939 79q16 0 33 3.5t30.5 11.5
t22 20.5t8.5 30.5q0 29 -23.5 48t-69.5 19t-70 -19t-24 -48q0 -18 8.5 -30.5t22 -20.5t30.5 -11.5t34 -3.5h-2z" />
    <glyph glyph-name="seveneighths" unicode="&#x215e;" horiz-adv-x="1090" 
d="M410 602q-72 -69 -111 -161t-39 -201h-118q0 57 15 111.5t39 102.5t54 88.5t60 69.5h-257v88h357v-98zM373 1h-81l345 700h82zM983 257q46 -17 70 -49.5t24 -70.5q0 -39 -18.5 -66.5t-47.5 -44.5t-65.5 -24.5t-73.5 -7.5t-73.5 7.5t-65.5 24.5t-47 44.5t-18 66.5
q0 38 23.5 70t68.5 50q-30 17 -46 42t-16 55q0 32 15 54t39.5 35.5t55 19.5t61.5 6q30 0 61 -6t56 -19.5t41 -35.5t16 -54q0 -30 -15.5 -55t-46.5 -42h2zM872 389q-14 0 -27.5 -2.5t-24.5 -8.5t-18 -15t-7 -22q0 -22 20.5 -37t57.5 -15q36 0 56 15t20 37q0 13 -7 22
t-18.5 15t-25 8.5t-26.5 2.5zM870 81q16 0 33 3.5t30.5 11.5t22 20.5t8.5 30.5q0 29 -23.5 48t-69.5 19t-70 -19t-24 -48q0 -18 8.5 -30.5t22 -20.5t30.5 -11.5t34 -3.5h-2z" />
    <glyph glyph-name="arrowleft" unicode="&#x2190;" horiz-adv-x="770" 
d="M446 97h-163l-254 254l253 254h164l-214 -199h509v-112h-507z" />
    <glyph glyph-name="arrowup" unicode="&#x2191;" horiz-adv-x="588" 
d="M352 504v-504h-118v503l-195 -210v163l255 254l254 -254v-163z" />
    <glyph glyph-name="arrowright" unicode="&#x2192;" horiz-adv-x="770" 
d="M486 95h-163l213 198h-506v112h508l-214 199h164l253 -254z" />
    <glyph glyph-name="arrowdown" unicode="&#x2193;" horiz-adv-x="588" 
d="M548 245l-254 -254l-255 254v163l195 -210v502h118v-503l196 210v-162z" />
    <glyph glyph-name="arrowboth" unicode="&#x2194;" horiz-adv-x="1112" 
d="M831 96h-164l213 198h-646l213 -198h-163l-254 254l253 254h164l-214 -199h648l-214 199h163l253 -254z" />
    <glyph glyph-name="uni2196" unicode="&#x2196;" horiz-adv-x="625" 
d="M161 432l11 -286l-115 115v360h359l116 -116l-288 11l358 -359l-82 -84z" />
    <glyph glyph-name="uni2197" unicode="&#x2197;" horiz-adv-x="625" 
d="M463 431l-358 -358l-82 83l357 359l-287 -10l116 115h360v-360l-116 -115z" />
    <glyph glyph-name="uni2198" unicode="&#x2198;" horiz-adv-x="625" 
d="M568 79h-360l-115 116l286 -10l-356 359l82 83l358 -357l-10 285l115 -116v-360z" />
    <glyph glyph-name="uni2199" unicode="&#x2199;" horiz-adv-x="625" 
d="M533 195l-116 -115h-360v360l116 115l-11 -286l358 358l82 -83l-357 -359z" />
    <glyph glyph-name="uni21B0" unicode="&#x21b0;" horiz-adv-x="780" 
d="M615 315l-334 -21l-99 49l265 -247h-163l-254 254l253 254h164l-257 -239l373 40zM628 293l-13 22l24 2zM653 1l-47 246l22 46l96 -167z" />
    <glyph glyph-name="uni21B1" unicode="&#x21b1;" horiz-adv-x="780" 
d="M496 95h-163l265 247l-99 -49l-334 21l52 91l373 -40l-257 239h164l253 -254zM164 313l-13 -22l-11 24zM151 290l22 -46l-47 -246l-71 126z" />
    <glyph glyph-name="partialdiff" unicode="&#x2202;" horiz-adv-x="604" 
d="M263 611q57 -17 110.5 -47t95 -74t66.5 -103t25 -135q0 -54 -13.5 -101.5t-43.5 -83t-79 -56t-121 -20.5q-133 0 -197 63t-64 174q0 109 58 171.5t183 62.5q28 0 51.5 -3.5t43.5 -9.5q-29 52 -97 90.5t-192 58.5v102h415v-90zM300 102q35 0 58 10.5t37 28t19.5 40.5
t5.5 49q0 25 -5.5 48.5t-19.5 41.5t-37.5 29t-59.5 11q-34 0 -56.5 -10.5t-36 -28t-19 -40.5t-5.5 -49q0 -28 6 -52t20 -41.5t37 -27.5t57 -10z" />
    <glyph glyph-name="product" unicode="&#x220f;" horiz-adv-x="699" 
d="M626 0h-139v588h-275v-588h-139v700h553v-700z" />
    <glyph glyph-name="summation" unicode="&#x2211;" horiz-adv-x="610" 
d="M199 588l203 -238l-203 -238h364v-112h-512v123l197 227l-197 227v123h512v-112h-364z" />
    <glyph glyph-name="minus" unicode="&#x2212;" horiz-adv-x="431" 
d="M37 270v96h357v-96h-357z" />
    <glyph glyph-name="radical" unicode="&#x221a;" horiz-adv-x="771" 
d="M465 11h-147l-107 252h-175v103h264l92 -235l230 569h128z" />
    <glyph glyph-name="infinity" unicode="&#x221e;" horiz-adv-x="668" 
d="M489 475q39 0 66 -14.5t44.5 -37t25 -50.5t7.5 -55t-8 -55t-25 -50.5t-45.5 -37t-68.5 -14.5q-28 0 -52 9.5t-43.5 24.5t-34.5 32.5t-25 33.5q-12 -16 -26 -33.5t-32.5 -32.5t-41.5 -24.5t-51 -9.5q-39 0 -66 14.5t-44 37t-24.5 50.5t-7.5 55t7.5 55t25 50.5t45 37
t67.5 14.5q29 0 53 -10t43 -25.5t34 -33t26 -32.5q10 15 24.5 32.5t33.5 33t42 25.5t52 10h-1zM486 233q18 0 31 8.5t21 21t11.5 27t3.5 27.5q0 12 -3.5 27t-11.5 28t-21 21.5t-31 8.5q-17 0 -32.5 -8t-29 -20t-24.5 -26.5t-20 -26.5q9 -13 21 -28t26 -28.5t29 -22.5t31 -9
h-1zM178 231q16 0 31.5 8t29.5 20t25.5 26.5t20.5 26.5q-9 12 -21 27.5t-26 29t-29 22.5t-31 9q-18 0 -31 -8.5t-20.5 -21t-11 -27.5t-3.5 -27t3.5 -27t11 -28t20.5 -21.5t31 -8.5z" />
    <glyph glyph-name="integral" unicode="&#x222b;" horiz-adv-x="367" 
d="M122 524q0 43 10 77t34 56.5t63.5 34.5t99.5 12q10 0 17 -0.5t15 -1.5v-97q-15 5 -32 5q-48 0 -65 -18t-17 -67v-554q0 -44 -10 -77.5t-34 -56t-64 -34.5t-100 -12q-10 0 -17 0.5t-15 2.5v97q15 -5 32 -5q48 0 65 18t17 67z" />
    <glyph glyph-name="approxequal" unicode="&#x2248;" horiz-adv-x="445" 
d="M44 441q51 14 99 14q26 0 44.5 -3t35 -7t35 -7t44.5 -3q47 0 100 14v-94q-53 -14 -100 -14q-26 0 -44.5 3t-35 7t-35 7t-44.5 3q-48 0 -99 -14v94zM44 282q25 6 50 9.5t49 3.5q26 0 44.5 -3t35 -6.5t35 -6.5t44.5 -3q24 0 49 3.5t51 9.5v-93q-53 -14 -100 -14
q-26 0 -44.5 3t-35 7t-35 7t-44.5 3q-48 0 -99 -14v94z" />
    <glyph glyph-name="notequal" unicode="&#x2260;" horiz-adv-x="438" 
d="M231 287h164v-97h-220l-46 -80l-45 23l32 57h-72v97h128l36 63h-164v96h219l46 81l45 -23l-33 -58h73v-96h-128z" />
    <glyph glyph-name="lessequal" unicode="&#x2264;" horiz-adv-x="480" 
d="M123 357l301 -99v-105l-381 134v141l381 134v-106zM424 96v-96h-381v96h381z" />
    <glyph glyph-name="greaterequal" unicode="&#x2265;" horiz-adv-x="480" 
d="M436 287l-381 -134v105l301 99l-301 99v106l381 -134v-141zM436 97v-96h-381v96h381z" />
    <glyph glyph-name="filledbox" unicode="&#x25a0;" horiz-adv-x="859" 
d="M79 0v700h700v-700h-700z" />
    <glyph glyph-name="triagup" unicode="&#x25b2;" horiz-adv-x="704" 
d="M352 711l310 -711h-620z" />
    <glyph glyph-name="triagrt" unicode="&#x25ba;" horiz-adv-x="804" 
d="M784 355l-711 -309v620z" />
    <glyph glyph-name="triagdn" unicode="&#x25bc;" horiz-adv-x="704" 
d="M352 -11l-310 711h620z" />
    <glyph glyph-name="triaglf" unicode="&#x25c4;" horiz-adv-x="804" 
d="M20 357l711 309v-620z" />
    <glyph glyph-name="lozenge" unicode="&#x25ca;" horiz-adv-x="529" 
d="M321 35h-112l-178 317l178 317h112l177 -317zM265 544l-107 -193l106 -192l108 193z" />
    <glyph glyph-name="H18533" unicode="&#x25cf;" horiz-adv-x="799" 
d="M400 -11q-75 0 -140.5 28.5t-114.5 77.5t-77.5 114.5t-28.5 140.5t28.5 140.5t77.5 114.5t114.5 77.5t140.5 28.5t140.5 -28.5t114.5 -77.5t77.5 -114.5t28.5 -140.5t-28.5 -140.5t-77.5 -114.5t-114.5 -77.5t-140.5 -28.5z" />
    <glyph glyph-name="Iacute_J.locl" horiz-adv-x="697" 
d="M105 743l51 126h148l-122 -126h-77zM520 743l51 126h148l-122 -126h-77zM74 0v700h139v-700h-139zM629 198q0 -48 -12 -86t-41.5 -64t-78.5 -40t-122 -14q-19 0 -40 1.5t-35 4.5v118q14 -5 33 -8.5t42 -3.5q60 0 87.5 21t27.5 71v502h139v-502z" />
    <glyph glyph-name="uni1E9E.aalt" horiz-adv-x="602" 
d="M422 340q80 -18 113 -61.5t33 -100.5q0 -38 -13.5 -71t-43.5 -57.5t-79 -38.5t-120 -14h-8v105h8q69 2 97 26t28 63q0 42 -29.5 65.5t-103.5 23.5v86l80 85q10 9 18.5 16t16.5 12h-212v-479h-132v584h464v-118z" />
    <glyph glyph-name="i.locl" horiz-adv-x="256" 
d="M65 560v124h126v-124h-126zM65 0v496h126v-496h-126z" />
    <glyph glyph-name="germandbls.case" horiz-adv-x="680" 
d="M462 406q49 -10 84 -28t57 -43.5t32 -56.5t10 -67q0 -47 -16 -86t-51.5 -68t-92.5 -45t-139 -16h-8v111h8q86 2 123 33t37 83q0 55 -38.5 86.5t-128.5 31.5v91l108 125q17 19 31 31h-267v-588h-139v700h538v-125z" />
    <glyph glyph-name="iacute_j.locl" horiz-adv-x="515" 
d="M90 539l51 126h148l-122 -126h-77zM350 539l51 126h148l-122 -126h-77zM67 0v496h126v-496h-126zM452 -39q0 -40 -9 -73t-31 -56.5t-58 -36.5t-91 -13q-21 0 -32 4v96q13 -5 32 -5q37 1 50 23t13 62v534h126v-535z" />
    <glyph glyph-name="a.inferior" horiz-adv-x="404" 
d="M43 62q2 65 43 91t119 26q32 0 60 -5.5t48.5 -17.5t32.5 -31t12 -47v-235h-95v59q-18 -33 -51.5 -49.5t-75.5 -16.5q-55 0 -81.5 25.5t-26.5 63.5q0 31 17.5 52t48.5 34t73 19t90 8v31q0 6 -2 13.5t-7.5 13.5t-16.5 10.5t-29 4.5q-19 0 -30 -5t-17.5 -12.5t-8.5 -15.5
t-3 -15zM256 -1q-27 0 -52 -3t-43.5 -10.5t-30 -20t-11.5 -30.5q0 -20 15 -30.5t41 -10.5q31 0 56.5 20.5t25.5 61.5z" />
    <glyph glyph-name="b.inferior" horiz-adv-x="429" 
d="M152 134q17 22 43 34.5t65 12.5q40 0 66.5 -13.5t42.5 -37t22.5 -55t6.5 -66.5t-6.5 -66.5t-22.5 -55t-42.5 -37t-66.5 -13.5q-43 0 -70.5 15.5t-43.5 41.5v-51h-97v465h103v-174zM223 -78q43 0 58 25.5t15 63.5q0 36 -15 62t-58 26q-41 0 -56 -26t-15 -62
q0 -38 15 -63.5t56 -25.5z" />
    <glyph glyph-name="c.inferior" horiz-adv-x="404" 
d="M270 56q-2 20 -17.5 32t-45.5 12q-39 0 -55.5 -25.5t-16.5 -67.5q0 -43 16.5 -68.5t55.5 -25.5q30 0 45.5 12t17.5 32h103q-5 -51 -46.5 -86.5t-119.5 -35.5q-50 0 -83.5 13.5t-53.5 37t-28.5 55t-8.5 67.5q0 35 8.5 66t28.5 54.5t53.5 37t83.5 13.5q78 0 119.5 -35.5
t46.5 -86.5z" />
    <glyph glyph-name="d.inferior" horiz-adv-x="428" 
d="M378 -159h-94v54q-16 -28 -43.5 -44.5t-72.5 -16.5q-40 0 -66.5 13.5t-42 37t-22 55t-6.5 66.5t6.5 66.5t22 55t42 37t66.5 13.5q41 0 67.5 -13.5t42.5 -36.5v180h101zM204 -83q41 0 57 25.5t16 63.5q0 36 -16 62t-57 26q-42 0 -57 -26t-15 -62q0 -38 15 -63.5t57 -25.5z
" />
    <glyph glyph-name="e.inferior" horiz-adv-x="408" 
d="M372 -50q-10 -53 -51.5 -83t-114.5 -30q-50 0 -83.5 12.5t-53.5 35.5t-28.5 54.5t-8.5 69.5q0 33 8.5 63.5t28.5 54.5t53.5 38t83.5 14q91 0 130.5 -42.5t39.5 -130.5v-11.5t-1 -11.5h-240q4 -34 20 -53.5t51 -19.5q27 0 43 11.5t20 28.5h103zM277 38q-3 33 -17.5 50.5
t-53.5 17.5q-35 0 -50.5 -17t-19.5 -51h141z" />
    <glyph glyph-name="f.inferior" horiz-adv-x="265" 
d="M244 232q-11 3 -23 3q-32 0 -43 -9.5t-11 -38.5v-15h77v-76h-77v-254h-101v254h-46v76h46v15q0 30 7.5 53t25.5 39t47.5 24.5t74.5 8.5h13t11 -2z" />
    <glyph glyph-name="g.inferior" horiz-adv-x="410" 
d="M339 144q16 -15 22.5 -34t6.5 -40q0 -23 -8 -44t-27.5 -37t-51.5 -25t-79 -9q-25 0 -45 2.5t-37 7.5q-8 -6 -8 -13q0 -12 21 -16t52.5 -7t68.5 -7t68.5 -15.5t52.5 -34t21 -61.5q0 -22 -10 -41.5t-33 -34.5t-59.5 -24t-90.5 -9q-56 0 -93 8t-59 21.5t-31.5 31.5t-9.5 37
q0 29 13.5 51t34.5 38q-22 16 -22 41q0 18 11.5 33t25.5 24q-19 16 -26.5 37t-7.5 44q0 22 8 42.5t26.5 35.5t50.5 24t80 9q58 0 95 -14l16 44h80zM203 118q-47 0 -64 -14.5t-17 -33.5q0 -18 17 -33t64 -15t63.5 15t16.5 33q0 19 -16.5 33.5t-63.5 14.5zM203 -227
q48 0 68.5 10.5t20.5 26.5t-14.5 25t-38 14t-52 8.5t-55.5 8.5q-13 -9 -19.5 -22.5t-6.5 -25.5q0 -19 22.5 -32t74.5 -13z" />
    <glyph glyph-name="h.inferior" horiz-adv-x="426" 
d="M153 130q14 21 38.5 34.5t64.5 13.5q36 0 60 -10.5t38 -28.5t20 -43t6 -54v-200h-102v194q0 27 -14 43.5t-46 16.5q-38 0 -52 -20.5t-14 -49.5v-183h-103v465h103z" />
    <glyph glyph-name="i.inferior" horiz-adv-x="201" 
d="M49 211v92h103v-92h-103zM49 -157v329h103v-329h-103z" />
    <glyph glyph-name="j.inferior" horiz-adv-x="201" 
d="M49 211v92h103v-92h-103zM152 -169q0 -27 -6.5 -49.5t-23 -39t-43.5 -26t-68 -9.5h-13.5t-9.5 2v77q7 -3 23 -3q23 1 30.5 14t7.5 34v342h103v-342z" />
    <glyph glyph-name="k.inferior" horiz-adv-x="406" 
d="M153 -62v-94h-103v465h103v-247q12 15 24 27l91 84h125l-123 -121l130 -209h-104l-92 145z" />
    <glyph glyph-name="l.inferior" horiz-adv-x="201" 
d="M49 -157v465h103v-465h-103z" />
    <glyph glyph-name="m.inferior" horiz-adv-x="629" 
d="M145 122q12 25 36.5 41t66.5 16q39 0 63 -14.5t36 -39.5q14 23 39.5 38.5t69.5 15.5q36 0 60.5 -10.5t39 -28.5t20.5 -43t6 -54v-200h-102v194q0 27 -12 43.5t-41 16.5q-34 0 -47.5 -22t-13.5 -51v-181h-101v194q0 27 -12.5 43.5t-41.5 16.5q-33 0 -46 -22t-13 -51v-181
h-103v329h97z" />
    <glyph glyph-name="n.inferior" horiz-adv-x="426" 
d="M146 118q13 26 39 43t71 17q36 0 60 -10.5t38 -28.5t20 -43t6 -54v-200h-102v194q0 27 -14 43.5t-46 16.5q-38 0 -52 -20.5t-14 -49.5v-183h-103v329h97v-54z" />
    <glyph glyph-name="o.inferior" horiz-adv-x="413" 
d="M206 179q50 0 83.5 -13.5t54 -37t29 -54.5t8.5 -66q0 -36 -8.5 -67.5t-29 -55t-54 -37t-83.5 -13.5t-83.5 13.5t-53.5 37t-28.5 55t-8.5 67.5q0 35 8.5 66t28.5 54.5t53.5 37t83.5 13.5zM206 97q-21 0 -34.5 -7t-22 -19t-12 -28t-3.5 -35q0 -38 15.5 -64.5t56.5 -26.5
q42 0 57.5 26.5t15.5 64.5t-15.5 63.5t-57.5 25.5z" />
    <glyph glyph-name="p.inferior" horiz-adv-x="429" 
d="M146 123q16 26 43.5 41.5t70.5 15.5q40 0 66.5 -13.5t42.5 -37t22.5 -55t6.5 -66.5t-6.5 -66.5t-22.5 -55t-42.5 -37t-66.5 -13.5q-39 0 -65 12.5t-43 35.5v-176h-103v464h97v-49zM223 -79q21 0 35.5 7t22.5 19t11.5 28.5t3.5 34.5q0 36 -15 62t-58 26q-41 0 -56 -26
t-15 -62q0 -37 15 -63t56 -26z" />
    <glyph glyph-name="q.inferior" horiz-adv-x="428" 
d="M379 -293h-100v179q-16 -23 -42.5 -36.5t-67.5 -13.5q-40 0 -66.5 13.5t-42 37t-22 55t-6.5 66.5t6.5 66.5t22 55t42 37t66.5 13.5q45 0 72.5 -16.5t43.5 -44.5v53h94v-465zM205 -82q41 0 57 26t16 63q0 36 -16 62t-57 26q-42 0 -57 -26t-15 -62q0 -37 15 -63t57 -26z
" />
    <glyph glyph-name="r.inferior" horiz-adv-x="278" 
d="M146 107q15 29 43 51t76 22v-96q-64 0 -88.5 -20t-24.5 -48v-173h-103v329h97v-65z" />
    <glyph glyph-name="s.inferior" horiz-adv-x="370" 
d="M125 -58q1 -18 14.5 -29.5t45.5 -11.5q26 0 42 8.5t16 25.5q0 11 -8 18t-20.5 11.5t-29.5 7.5t-35 6q-21 4 -42.5 11t-38 19t-27 30t-10.5 45q0 28 12.5 46.5t33 29.5t46.5 15.5t54 4.5q76 0 115.5 -27t39.5 -72h-98q-1 14 -11 25.5t-42 11.5q-28 0 -40 -9t-12 -23
q0 -20 22.5 -28t53.5 -14q23 -5 47.5 -11t45 -17t33.5 -29t13 -45q0 -53 -44.5 -78.5t-114.5 -25.5q-43 0 -73 8.5t-49.5 22.5t-29 33.5t-9.5 40.5h100z" />
    <glyph glyph-name="t.inferior" horiz-adv-x="256" 
d="M162 -40q0 -26 9.5 -35.5t37.5 -9.5q7 0 14 1t12 3v-71q-12 -4 -25.5 -5.5t-34.5 -1.5q-61 0 -87.5 27t-26.5 85v144h-45v76h45v85h102v-85h66v-76h-66z" />
    <glyph glyph-name="u.inferior" horiz-adv-x="429" 
d="M277 -114q-14 -22 -38.5 -36t-65.5 -14q-36 0 -60 10.5t-38 28.5t-20 42.5t-6 53.5v201h103v-193q0 -27 13.5 -43t45.5 -16q38 0 52 20.5t14 48.5v183h102v-329h-102v43z" />
    <glyph glyph-name="v.inferior" horiz-adv-x="388" 
d="M258 -156h-127l-131 328h109l80 -218q4 -9 5 -17q1 8 5 17l81 218h108z" />
    <glyph glyph-name="w.inferior" horiz-adv-x="554" 
d="M470 -156h-131l-58 208l-4 16q-1 -4 -1.5 -7.5t-2.5 -8.5l-58 -208h-131l-82 328h102l57 -219l3 -11q1 3 3 11l58 219h103l58 -219l3 -11q1 3 3 11l57 219h102z" />
    <glyph glyph-name="x.inferior" horiz-adv-x="371" 
d="M186 -46l-71 -110h-109l118 167l-113 161h108l67 -103l66 103h109l-113 -161l118 -167h-108z" />
    <glyph glyph-name="y.inferior" horiz-adv-x="389" 
d="M228 -185q-11 -25 -22 -46.5t-29 -37t-46.5 -24t-76.5 -8.5h-11t-9 2v81q5 -2 14 -4t20 -2q12 0 20 1.5t14 6t10.5 11.5t10.5 19l17 35l-140 323h108l80 -190q2 -5 3.5 -11t3.5 -12q2 6 3.5 12t3.5 11l79 190h108z" />
    <glyph glyph-name="z.inferior" horiz-adv-x="380" 
d="M27 -156v91l196 155h-193v83h318v-91l-195 -154h200v-84h-326z" />
    <glyph glyph-name="a.superior" horiz-adv-x="404" 
d="M43 593q2 65 43 91t119 26q32 0 60 -5.5t48.5 -17.5t32.5 -31t12 -47v-235h-95v59q-18 -33 -51.5 -49.5t-75.5 -16.5q-55 0 -81.5 25.5t-26.5 63.5q0 31 17.5 52t48.5 34t73 19t90 8v31q0 6 -2 13.5t-7.5 13.5t-16.5 10.5t-29 4.5q-19 0 -30 -5t-17.5 -12.5t-8.5 -15.5
t-3 -15zM256 530q-27 0 -52 -3t-43.5 -10.5t-30 -20t-11.5 -30.5q0 -20 15 -30.5t41 -10.5q31 0 56.5 20.5t25.5 61.5z" />
    <glyph glyph-name="b.superior" horiz-adv-x="429" 
d="M152 666q17 22 43 34.5t65 12.5q40 0 66.5 -13.5t42.5 -37t22.5 -55t6.5 -66.5t-6.5 -66.5t-22.5 -55t-42.5 -37t-66.5 -13.5q-43 0 -70.5 15.5t-43.5 41.5v-51h-97v465h103v-174zM223 454q43 0 58 25.5t15 63.5q0 36 -15 62t-58 26q-41 0 -56 -26t-15 -62
q0 -38 15 -63.5t56 -25.5z" />
    <glyph glyph-name="c.superior" horiz-adv-x="404" 
d="M270 587q-2 20 -17.5 32t-45.5 12q-39 0 -55.5 -25.5t-16.5 -67.5q0 -43 16.5 -68.5t55.5 -25.5q30 0 45.5 12t17.5 32h103q-5 -51 -46.5 -86.5t-119.5 -35.5q-50 0 -83.5 13.5t-53.5 37t-28.5 55t-8.5 67.5q0 35 8.5 66t28.5 54.5t53.5 37t83.5 13.5q78 0 119.5 -35.5
t46.5 -86.5z" />
    <glyph glyph-name="d.superior" horiz-adv-x="428" 
d="M378 373h-94v54q-16 -28 -43.5 -44.5t-72.5 -16.5q-40 0 -66.5 13.5t-42 37t-22 55t-6.5 66.5t6.5 66.5t22 55t42 37t66.5 13.5q41 0 67.5 -13.5t42.5 -36.5v180h101zM204 449q41 0 57 25.5t16 63.5q0 36 -16 62t-57 26q-42 0 -57 -26t-15 -62q0 -38 15 -63.5t57 -25.5z
" />
    <glyph glyph-name="e.superior" horiz-adv-x="408" 
d="M372 481q-10 -53 -51.5 -83t-114.5 -30q-50 0 -83.5 12.5t-53.5 35.5t-28.5 54.5t-8.5 69.5q0 33 8.5 63.5t28.5 54.5t53.5 38t83.5 14q91 0 130.5 -42.5t39.5 -130.5v-11.5t-1 -11.5h-240q4 -34 20 -53.5t51 -19.5q27 0 43 11.5t20 28.5h103zM277 569q-3 33 -17.5 50.5
t-53.5 17.5q-35 0 -50.5 -17t-19.5 -51h141z" />
    <glyph glyph-name="f.superior" horiz-adv-x="265" 
d="M244 764q-11 3 -23 3q-32 0 -43 -9.5t-11 -38.5v-15h77v-76h-77v-254h-101v254h-46v76h46v15q0 30 7.5 53t25.5 39t47.5 24.5t74.5 8.5h13t11 -2z" />
    <glyph glyph-name="g.superior" horiz-adv-x="410" 
d="M339 676q16 -15 22.5 -34t6.5 -40q0 -23 -8 -44t-27.5 -37t-51.5 -25t-79 -9q-25 0 -45 2.5t-37 7.5q-8 -6 -8 -13q0 -12 21 -16t52.5 -7t68.5 -7t68.5 -15.5t52.5 -34t21 -61.5q0 -22 -10 -41.5t-33 -34.5t-59.5 -24t-90.5 -9q-56 0 -93 8t-59 21.5t-31.5 31.5t-9.5 37
q0 29 13.5 51t34.5 38q-22 16 -22 41q0 18 11.5 33t25.5 24q-19 16 -26.5 37t-7.5 44q0 22 8 42.5t26.5 35.5t50.5 24t80 9q58 0 95 -14l16 44h80zM203 650q-47 0 -64 -14.5t-17 -33.5q0 -18 17 -33t64 -15t63.5 15t16.5 33q0 19 -16.5 33.5t-63.5 14.5zM203 305
q48 0 68.5 10.5t20.5 26.5t-14.5 25t-38 14t-52 8.5t-55.5 8.5q-13 -9 -19.5 -22.5t-6.5 -25.5q0 -19 22.5 -32t74.5 -13z" />
    <glyph glyph-name="h.superior" horiz-adv-x="426" 
d="M153 662q14 21 38.5 34.5t64.5 13.5q36 0 60 -10.5t38 -28.5t20 -43t6 -54v-200h-102v194q0 27 -14 43.5t-46 16.5q-38 0 -52 -20.5t-14 -49.5v-183h-103v465h103z" />
    <glyph glyph-name="i.superior" horiz-adv-x="201" 
d="M49 742v92h103v-92h-103zM49 375v329h103v-329h-103z" />
    <glyph glyph-name="j.superior" horiz-adv-x="201" 
d="M49 742v92h103v-92h-103zM152 362q0 -27 -6.5 -49.5t-23 -39t-43.5 -26t-68 -9.5h-13.5t-9.5 2v77q7 -3 23 -3q23 1 30.5 14t7.5 34v342h103v-342z" />
    <glyph glyph-name="k.superior" horiz-adv-x="406" 
d="M153 469v-94h-103v465h103v-246q6 7 12 13.5t12 11.5l91 85h125l-124 -121l131 -208h-104l-92 144z" />
    <glyph glyph-name="l.superior" horiz-adv-x="201" 
d="M49 375v465h103v-465h-103z" />
    <glyph glyph-name="m.superior" horiz-adv-x="629" 
d="M145 654q12 25 36.5 41t66.5 16q39 0 63 -14.5t36 -39.5q14 23 39.5 38.5t69.5 15.5q36 0 60.5 -10.5t39 -28.5t20.5 -43t6 -54v-200h-102v194q0 27 -12 43.5t-41 16.5q-34 0 -47.5 -22t-13.5 -51v-181h-101v194q0 27 -12.5 43.5t-41.5 16.5q-33 0 -46 -22t-13 -51v-181
h-103v329h97z" />
    <glyph glyph-name="n.superior" horiz-adv-x="426" 
d="M146 650q13 26 39 43t71 17q36 0 60 -10.5t38 -28.5t20 -43t6 -54v-200h-102v194q0 27 -14 43.5t-46 16.5q-38 0 -52 -20.5t-14 -49.5v-183h-103v329h97v-54z" />
    <glyph glyph-name="o.superior" horiz-adv-x="413" 
d="M206 711q50 0 83.5 -13.5t54 -37t29 -54.5t8.5 -66t-8.5 -66.5t-29 -55t-54 -37t-83.5 -13.5t-83.5 13.5t-53.5 37t-28.5 55t-8.5 66.5t8.5 66t28.5 54.5t53.5 37t83.5 13.5zM206 629q-21 0 -34.5 -7t-22 -19t-12 -28t-3.5 -35q0 -38 15.5 -64t56.5 -26q42 0 57.5 26
t15.5 64t-15.5 63.5t-57.5 25.5z" />
    <glyph glyph-name="p.superior" horiz-adv-x="429" 
d="M146 654q16 26 43.5 41.5t70.5 15.5q40 0 66.5 -13.5t42.5 -37t22.5 -55t6.5 -66.5t-6.5 -66.5t-22.5 -55t-42.5 -37t-66.5 -13.5q-39 0 -65 12.5t-43 35.5v-176h-103v464h97v-49zM223 452q21 0 35.5 7t22.5 19t11.5 28.5t3.5 34.5q0 36 -15 62t-58 26q-41 0 -56 -26
t-15 -62q0 -37 15 -63t56 -26z" />
    <glyph glyph-name="q.superior" horiz-adv-x="428" 
d="M379 238h-100v179q-16 -23 -42.5 -36.5t-67.5 -13.5q-40 0 -66.5 13.5t-42 37t-22 55t-6.5 66.5t6.5 66.5t22 55t42 37t66.5 13.5q45 0 72.5 -16.5t43.5 -44.5v53h94v-465zM205 449q41 0 57 26t16 63q0 36 -16 62t-57 26q-42 0 -57 -26t-15 -62q0 -37 15 -63t57 -26z" />
    <glyph glyph-name="r.superior" horiz-adv-x="278" 
d="M146 639q15 29 43 51t76 22v-96q-64 0 -88.5 -20t-24.5 -48v-173h-103v329h97v-65z" />
    <glyph glyph-name="s.superior" horiz-adv-x="370" 
d="M125 481q1 -18 14.5 -29.5t45.5 -11.5q26 0 42 9t16 26q0 11 -8 17.5t-20.5 11t-29.5 7.5t-35 6q-21 4 -42.5 11t-38 18.5t-27 29.5t-10.5 44q0 28 12.5 46.5t33 30t46.5 16t54 4.5q76 0 115.5 -27.5t39.5 -72.5h-98q-1 14 -11 25.5t-42 11.5q-28 0 -40 -9.5t-12 -23.5
q0 -20 22.5 -28t53.5 -14q23 -5 47.5 -11t45 -17t33.5 -29t13 -45q0 -53 -44.5 -78.5t-114.5 -25.5q-43 0 -73 8.5t-49.5 22.5t-29 33.5t-9.5 40.5z" />
    <glyph glyph-name="t.superior" horiz-adv-x="256" 
d="M162 491q0 -26 9.5 -35.5t37.5 -9.5q7 0 14 1t12 3v-71q-12 -4 -25.5 -5.5t-34.5 -1.5q-61 0 -87.5 27t-26.5 85v144h-45v76h45v85h102v-85h66v-76h-66z" />
    <glyph glyph-name="u.superior" horiz-adv-x="429" 
d="M277 417q-14 -22 -38.5 -36t-65.5 -14q-36 0 -60 10.5t-38 28.5t-20 42.5t-6 53.5v201h103v-193q0 -27 13.5 -43t45.5 -16q38 0 52 20.5t14 48.5v183h102v-329h-102v43z" />
    <glyph glyph-name="v.superior" horiz-adv-x="388" 
d="M258 375h-127l-131 328h109l80 -218q4 -9 5 -17q1 8 5 17l81 218h108z" />
    <glyph glyph-name="w.superior" horiz-adv-x="554" 
d="M470 375h-131l-58 208l-4 16q-1 -4 -1.5 -7.5t-2.5 -8.5l-58 -208h-131l-82 328h102l57 -219l3 -11q1 3 3 11l58 219h103l58 -219l3 -11q1 3 3 11l57 219h102z" />
    <glyph glyph-name="x.superior" horiz-adv-x="371" 
d="M186 485l-71 -110h-109l118 167l-113 161h108l67 -103l66 103h109l-113 -161l118 -167h-108z" />
    <glyph glyph-name="y.superior" horiz-adv-x="389" 
d="M228 347q-11 -25 -22 -46.5t-29 -37t-46.5 -24t-76.5 -8.5h-11t-9 2v81q5 -2 14 -4t20 -2q12 0 20 1.5t14 6t10.5 11.5t10.5 19l17 35l-140 323h108l80 -190q2 -5 3.5 -11t3.5 -12q2 6 3.5 12t3.5 11l79 190h108z" />
    <glyph glyph-name="z.superior" horiz-adv-x="380" 
d="M27 375v91l196 155h-193v83h318v-91l-195 -154h200v-84h-326z" />
    <glyph glyph-name="f_f_t.dlig" horiz-adv-x="999" 
d="M862 157q0 -38 14.5 -52.5t55.5 -14.5q22 0 37 5v-97q-17 -4 -35 -5.5t-46 -1.5q-81 0 -116.5 35.5t-35.5 113.5v257h-195v-399h-126v399h-195v-399h-126v399h-65v97h65v29q0 43 10 77t34 56.5t64 34.5t100 12q10 0 17 -0.5t15 -1.5v-97q-15 5 -31 5q-25 0 -41 -4
t-25.5 -14t-13 -26.5t-3.5 -40.5v-29h195v29q0 43 10 77t34 56.5t63.5 34.5t99.5 12q10 0 17.5 -0.5t15.5 -1.5v-97q-15 5 -32 5q-48 0 -65 -18t-17 -67v-29h195v128h126v-128h99v-97h-99v-242z" />
    <glyph glyph-name="f_h.dlig" horiz-adv-x="946" 
d="M542 422q20 35 58 58.5t102 23.5q53 0 88 -15t56 -42t29.5 -63.5t8.5 -79.5v-306h-126v297q0 48 -24 77t-78 29q-33 0 -55 -10t-35.5 -27t-19 -39t-5.5 -47v-279h-125v588q-21 10 -49 16.5t-61 6.5q-46 0 -66 -19.5t-20 -66.5v-29h111v-97h-111v-399h-126v399h-65v97h65
v29q0 43 10 77t34 56.5t64 34.5t100 12q34 0 63 -2.5t57 -7.5t56.5 -14t62.5 -21z" />
    <glyph glyph-name="f_iacute.dlig" horiz-adv-x="703" 
d="M541 495v-496h-126v399h-195v-399h-126v399h-65v97h65v29q0 43 10 77t34 56.5t64 34.5t100 12q10 0 17 -0.5t15 -1.5v-97q-15 5 -31 5q-25 0 -41 -4t-25.5 -14t-13 -26.5t-3.5 -40.5v-29zM439 538l51 126h148l-122 -126h-77z" />
    <glyph glyph-name="f_j.dlig" horiz-adv-x="606" 
d="M541 496v-534q0 -40 -9 -73t-31 -56.5t-58.5 -36.5t-90.5 -13q-22 0 -32 3v96q13 -5 32 -5q37 1 50 23t13 62v436h-195v-399h-126v399h-65v97h65v29q0 43 10 77t34 56.5t64 34.5t100 12q10 0 17 -0.5t15 -1.5v-97q-15 5 -31 5q-25 0 -41 -4t-25.5 -14t-13 -26.5
t-3.5 -40.5v-29h321zM541 561h-126v124h126v-124z" />
    <glyph glyph-name="f_t.dlig" horiz-adv-x="678" 
d="M541 158q0 -38 14.5 -52.5t55.5 -14.5q23 0 38 5v-97q-17 -4 -35 -5.5t-46 -1.5q-81 0 -116.5 35.5t-35.5 113.5v257h-190v-399h-126v399h-70v97h70v29q0 43 10 77t34 56.5t63.5 34.5t99.5 12q10 0 17 -0.5t15 -1.5v-97q-15 5 -32 5q-48 0 -65 -18t-17 -67v-29h190v128
h126v-128h100v-97h-100v-241z" />
    <glyph glyph-name="Iacute_J.locl.c2sc" horiz-adv-x="651" 
d="M476 619l51 126h148l-122 -126h-77zM104 619l51 126h148l-122 -126h-77zM77 0v584h132v-584h-132zM581 170q0 -41 -11 -73.5t-36.5 -55.5t-69 -35t-107.5 -12q-15 0 -33 1.5t-29 3.5v112q12 -4 28.5 -7t34.5 -3q48 0 70 16.5t22 54.5v412h132z" />
    <glyph glyph-name="A.c2sc" horiz-adv-x="599" 
d="M180 110l-43 -110h-133l230 584h130l230 -584h-133l-43 110h-238zM309 382q-4 11 -6.5 20t-4.5 17q-2 -8 -4.5 -17t-6.5 -20l-68 -173h159z" />
    <glyph glyph-name="Aacute.aalt" horiz-adv-x="599" 
d="M260 619l51 126h148l-122 -126h-77zM181 110l-43 -110h-133l230 584h130l230 -584h-133l-43 110h-238zM310 382q-4 11 -6.5 20t-4.5 17q-2 -8 -4.5 -17t-6.5 -20l-68 -173h159z" />
    <glyph glyph-name="Abreve.aalt" horiz-adv-x="599" 
d="M430 747q0 -60 -35 -94t-98 -34q-62 0 -97.5 34t-35.5 94h75q2 -26 17 -41.5t41 -15.5t41.5 15.5t17.5 41.5h74zM179 110l-43 -110h-133l230 584h130l230 -584h-133l-43 110h-238zM308 382q-4 11 -6.5 20t-4.5 17q-2 -8 -4.5 -17t-6.5 -20l-68 -173h159z" />
    <glyph glyph-name="Acircumflex.aalt" horiz-adv-x="599" 
d="M162 620l82 126h108l82 -126h-74l-62 63l-62 -63h-74zM180 110l-43 -110h-133l230 584h130l230 -584h-133l-43 110h-238zM309 382q-4 11 -6.5 20t-4.5 17q-2 -8 -4.5 -17t-6.5 -20l-68 -173h159z" />
    <glyph glyph-name="Adieresis.aalt" horiz-adv-x="599" 
d="M160 638v94h101v-94h-101zM336 638v94h100v-94h-100zM180 110l-43 -110h-133l230 584h130l230 -584h-133l-43 110h-238zM309 382q-4 11 -6.5 20t-4.5 17q-2 -8 -4.5 -17t-6.5 -20l-68 -173h159z" />
    <glyph glyph-name="Agrave.aalt" horiz-adv-x="599" 
d="M138 745h148l51 -126h-78zM180 110l-43 -110h-133l230 584h130l230 -584h-133l-43 110h-238zM309 382q-4 11 -6.5 20t-4.5 17q-2 -8 -4.5 -17t-6.5 -20l-68 -173h159z" />
    <glyph glyph-name="Amacron.aalt" horiz-adv-x="599" 
d="M184 643v62h227v-62h-227zM179 109l-43 -110h-133l230 584h130l230 -584h-133l-43 110h-238zM308 381q-4 11 -6.5 20t-4.5 17q-2 -8 -4.5 -17t-6.5 -20l-68 -173h159z" />
    <glyph glyph-name="Aogonek.aalt" horiz-adv-x="599" 
d="M489 1q-85 -31 -85 -82q0 -20 12 -29.5t39 -9.5q10 0 17.5 1.5t15.5 4.5v-75q-17 -3 -36 -3q-114 0 -114 81q0 74 117 124l-38 97h-237l-43 -110h-133l230 584h130l230 -584zM308 384q-4 11 -6.5 20t-4.5 17q-2 -8 -4.5 -17t-6.5 -20l-68 -173h159z" />
    <glyph glyph-name="Aring.aalt" horiz-adv-x="599" 
d="M298 612q-51 0 -79.5 24.5t-28.5 69.5t28.5 69.5t79.5 24.5t79.5 -24.5t28.5 -69.5t-28.5 -69.5t-79.5 -24.5zM298 748q-52 0 -52 -42q0 -44 52 -44t52 44q0 42 -52 42zM179 109l-43 -110h-133l230 584h130l230 -584h-133l-43 110h-238zM308 381q-4 11 -6.5 20t-4.5 17
q-2 -8 -4.5 -17t-6.5 -20l-68 -173h159z" />
    <glyph glyph-name="Atilde.aalt" horiz-adv-x="599" 
d="M448 723q-2 -53 -29 -81t-66 -28q-22 0 -36 7t-25 16t-22 16t-26 7q-13 0 -22.5 -10t-12.5 -29h-60q2 53 29 81t66 28q22 0 36 -7t25 -16t22 -16t26 -7q13 0 22.5 10t12.5 29h60zM180 110l-43 -110h-133l230 584h130l230 -584h-133l-43 110h-238zM309 382q-4 11 -6.5 20
t-4.5 17q-2 -8 -4.5 -17t-6.5 -20l-68 -173h159z" />
    <glyph glyph-name="AE.aalt" horiz-adv-x="749" 
d="M455 355h234v-106h-193l56 -143h154v-106h-245l-43 110h-237l-43 -110h-133l230 584h472v-105h-301zM310 383q-8 22 -11 36q-3 -14 -11 -36l-66 -168h155z" />
    <glyph glyph-name="B.aalt" horiz-adv-x="582" 
d="M312 583q53 0 93 -12t67 -33t40.5 -49t13.5 -60q0 -42 -22 -74t-67 -51q56 -20 84 -56t28 -83q0 -34 -15 -64t-44.5 -52.5t-73.5 -35.5t-103 -13h-239v584zM310 353q42 0 62 18.5t20 44.5t-20.5 44t-62.5 18h-104v-125h105zM317 105q48 0 72.5 20.5t24.5 51.5
q0 29 -24 50t-72 21h-112v-143h111z" />
    <glyph glyph-name="C.aalt" horiz-adv-x="623" 
d="M448 407q-3 14 -12 28.5t-24 26.5t-36.5 19.5t-50.5 7.5q-42 0 -69 -15.5t-43 -42t-22.5 -62t-6.5 -75.5q0 -41 6.5 -76.5t22.5 -62t43 -42t69 -15.5q29 0 50.5 7.5t36.5 19.5t24 26.5t12 28.5h129q-3 -37 -20 -71t-48 -59.5t-77.5 -41t-107.5 -15.5q-79 0 -131.5 23.5
t-84 64t-45 95.5t-13.5 117t13.5 116.5t45 95t84 64t131.5 23.5q61 0 107.5 -15.5t77.5 -41t48 -59.5t20 -71z" />
    <glyph glyph-name="Cacute.aalt" horiz-adv-x="623" 
d="M286 619l51 126h148l-122 -126h-77zM449 407q-3 14 -12 28.5t-24 26.5t-36.5 19.5t-50.5 7.5q-42 0 -69 -15.5t-43 -42t-22.5 -62t-6.5 -75.5q0 -41 6.5 -76.5t22.5 -62t43 -42t69 -15.5q29 0 50.5 7.5t36.5 19.5t24 26.5t12 28.5h129q-3 -37 -20 -71t-48 -59.5
t-77.5 -41t-107.5 -15.5q-79 0 -131.5 23.5t-84 64t-45 95.5t-13.5 117t13.5 116.5t45 95t84 64t131.5 23.5q61 0 107.5 -15.5t77.5 -41t48 -59.5t20 -71z" />
    <glyph glyph-name="Ccaron.aalt" horiz-adv-x="623" 
d="M189 745h74l62 -63l62 63h74l-82 -126h-108zM449 408q-3 14 -12 28.5t-24 26.5t-36.5 19.5t-50.5 7.5q-42 0 -69 -15.5t-43 -42t-22.5 -62t-6.5 -75.5q0 -41 6.5 -76.5t22.5 -62t43 -42t69 -15.5q29 0 50.5 7.5t36.5 19.5t24 26.5t12 28.5h129q-3 -37 -20 -71t-48 -59.5
t-77.5 -41t-107.5 -15.5q-79 0 -131.5 23.5t-84 64t-45 95.5t-13.5 117t13.5 116.5t45 95t84 64t131.5 23.5q61 0 107.5 -15.5t77.5 -41t48 -59.5t20 -71z" />
    <glyph glyph-name="Ccedilla.aalt" horiz-adv-x="623" 
d="M446 407q-3 14 -12 28.5t-24 26.5t-36.5 19.5t-50.5 7.5q-42 0 -69 -15.5t-43 -42t-22.5 -62t-6.5 -75.5q0 -41 6.5 -76.5t22.5 -62t43 -42t69 -15.5q29 0 50.5 7.5t36.5 19.5t24 26.5t12 28.5h129q-3 -36 -18.5 -69t-45 -58.5t-72.5 -41.5t-101 -18l-9 -36q48 -1 73 -20
t25 -54t-29 -57.5t-100 -22.5q-25 0 -46 3v52q20 -7 46 -7q32 0 44.5 7.5t12.5 19.5q0 17 -19 23t-73 6l31 87q-70 4 -116.5 29.5t-75 65.5t-40.5 92.5t-12 111.5q0 62 13.5 116.5t45 95t84 64t131.5 23.5q61 0 107.5 -15.5t77.5 -41t48 -59.5t20 -71z" />
    <glyph glyph-name="Cdotaccent.aalt" horiz-adv-x="623" 
d="M261 639v124h126v-124h-126zM448 407q-3 14 -12 28.5t-24 26.5t-36.5 19.5t-50.5 7.5q-42 0 -69 -15.5t-43 -42t-22.5 -62t-6.5 -75.5q0 -41 6.5 -76.5t22.5 -62t43 -42t69 -15.5q29 0 50.5 7.5t36.5 19.5t24 26.5t12 28.5h129q-3 -37 -20 -71t-48 -59.5t-77.5 -41
t-107.5 -15.5q-79 0 -131.5 23.5t-84 64t-45 95.5t-13.5 117t13.5 116.5t45 95t84 64t131.5 23.5q61 0 107.5 -15.5t77.5 -41t48 -59.5t20 -71z" />
    <glyph glyph-name="D.aalt" horiz-adv-x="629" 
d="M270 583q96 0 155.5 -21.5t93.5 -60t46 -92t12 -117.5q0 -67 -12 -121t-46 -92t-93.5 -58.5t-155.5 -20.5h-196v584zM270 104q54 0 87.5 11t53 33.5t26.5 58t7 83.5q0 49 -7 84.5t-26.5 58.5t-53 34t-87.5 11h-64v-373z" />
    <glyph glyph-name="Eth.aalt" horiz-adv-x="652" 
d="M293 583q96 0 155.5 -21.5t93.5 -60t46 -92t12 -117.5q0 -67 -12 -121t-46 -92t-93.5 -58.5t-155.5 -20.5h-196v264h-64v62h64v258zM293 104q54 0 87.5 11t53 33.5t26.5 58t7 83.5q0 49 -7 84.5t-26.5 58.5t-53 34t-87.5 11h-64v-153h72v-62h-72v-158z" />
    <glyph glyph-name="Dcaron.aalt" horiz-adv-x="629" 
d="M150 745h74l62 -63l62 63h74l-82 -126h-108zM270 583q96 0 155.5 -21.5t93.5 -60t46 -92t12 -117.5q0 -67 -12 -121t-46 -92t-93.5 -58.5t-155.5 -20.5h-196v584zM270 104q54 0 87.5 11t53 33.5t26.5 58t7 83.5q0 49 -7 84.5t-26.5 58.5t-53 34t-87.5 11h-64v-373z" />
    <glyph glyph-name="Dcroat.aalt" horiz-adv-x="652" 
d="M293 583q96 0 155.5 -21.5t93.5 -60t46 -92t12 -117.5q0 -67 -12 -121t-46 -92t-93.5 -58.5t-155.5 -20.5h-196v264h-64v62h64v258zM293 104q54 0 87.5 11t53 33.5t26.5 58t7 83.5q0 49 -7 84.5t-26.5 58.5t-53 34t-87.5 11h-64v-153h72v-62h-72v-158z" />
    <glyph glyph-name="E.aalt" horiz-adv-x="539" 
d="M206 355h273v-106h-273v-143h290v-106h-421v584h421v-105h-290v-124z" />
    <glyph glyph-name="Eacute.aalt" horiz-adv-x="539" 
d="M246 619l51 126h148l-122 -126h-77zM207 355h273v-106h-273v-143h290v-106h-421v584h421v-105h-290v-124z" />
    <glyph glyph-name="Ecaron.aalt" horiz-adv-x="539" 
d="M148 745h74l62 -63l62 63h74l-82 -126h-108zM206 355h273v-106h-273v-143h290v-106h-421v584h421v-105h-290v-124z" />
    <glyph glyph-name="Ecircumflex.aalt" horiz-adv-x="539" 
d="M149 620l82 126h108l82 -126h-74l-62 63l-62 -63h-74zM207 355h273v-106h-273v-143h290v-106h-421v584h421v-105h-290v-124z" />
    <glyph glyph-name="Edieresis.aalt" horiz-adv-x="539" 
d="M146 638v94h101v-94h-101zM322 638v94h100v-94h-100zM206 355h273v-106h-273v-143h290v-106h-421v584h421v-105h-290v-124z" />
    <glyph glyph-name="Edotaccent.aalt" horiz-adv-x="539" 
d="M221 639v124h126v-124h-126zM206 354h273v-106h-273v-143h290v-106h-421v584h421v-105h-290v-124z" />
    <glyph glyph-name="Egrave.aalt" horiz-adv-x="539" 
d="M124 745h148l51 -126h-78zM207 355h273v-106h-273v-143h290v-106h-421v584h421v-105h-290v-124z" />
    <glyph glyph-name="Emacron.aalt" horiz-adv-x="539" 
d="M170 643v62h227v-62h-227zM206 354h273v-106h-273v-143h290v-106h-421v584h421v-105h-290v-124z" />
    <glyph glyph-name="Eogonek.aalt" horiz-adv-x="539" 
d="M495 0q-85 -31 -85 -82q0 -20 12 -29.5t39 -9.5q10 0 17.5 1.5t15.5 4.5v-75q-17 -3 -36 -3q-114 0 -114 81q0 66 92 113h-361v584h421v-105h-290v-125h273v-106h-273v-143h290l-1 -106v0z" />
    <glyph glyph-name="F.aalt" horiz-adv-x="507" 
d="M206 354h258v-106h-258v-248h-132v584h407v-105h-275v-125z" />
    <glyph glyph-name="G.aalt" horiz-adv-x="636" 
d="M581 94q-15 -24 -39.5 -42.5t-56.5 -31t-70 -19.5t-79 -7q-82 0 -137 23.5t-88 64t-46.5 95.5t-13.5 117t13.5 116.5t45 95t84 64t131.5 23.5q63 0 109 -16.5t76 -43t45 -60t17 -67.5h-126q-3 15 -11.5 29.5t-23 26.5t-36 19t-50.5 7q-42 0 -69 -15.5t-43 -42t-22.5 -62
t-6.5 -75.5q0 -41 7.5 -77t26 -62.5t50 -41.5t78.5 -15q73 0 109 28v84h-81v106h207v-221z" />
    <glyph glyph-name="Gbreve.aalt" horiz-adv-x="636" 
d="M457 747q0 -60 -35 -94t-98 -34q-62 0 -97.5 34t-35.5 94h75q2 -26 17 -41.5t41 -15.5t41.5 15.5t17.5 41.5h74zM581 94q-15 -24 -39.5 -42.5t-56.5 -31t-70 -19.5t-79 -7q-82 0 -137 23.5t-88 64t-46.5 95.5t-13.5 117t13.5 116.5t45 95t84 64t131.5 23.5
q63 0 109 -16.5t76 -43t45 -60t17 -67.5h-126q-3 15 -11.5 29.5t-23 26.5t-36 19t-50.5 7q-42 0 -69 -15.5t-43 -42t-22.5 -62t-6.5 -75.5q0 -41 7.5 -77t26 -62.5t50 -41.5t78.5 -15q73 0 109 28v84h-81v106h207v-221z" />
    <glyph glyph-name="uni0122.aalt" horiz-adv-x="636" 
d="M581 94q-15 -24 -39.5 -42.5t-56.5 -31t-70 -19.5t-79 -7q-82 0 -137 23.5t-88 64t-46.5 95.5t-13.5 117t13.5 116.5t45 95t84 64t131.5 23.5q63 0 109 -16.5t76 -43t45 -60t17 -67.5h-126q-3 15 -11.5 29.5t-23 26.5t-36 19t-50.5 7q-42 0 -69 -15.5t-43 -42t-22.5 -62
t-6.5 -75.5q0 -41 7.5 -77t26 -62.5t50 -41.5t78.5 -15q73 0 109 28v84h-81v106h207v-221zM391 -47v-103l-42 -73h-56l42 73h-42v103h98z" />
    <glyph glyph-name="Gdotaccent.aalt" horiz-adv-x="636" 
d="M261 639v124h126v-124h-126zM581 94q-15 -24 -39.5 -42.5t-56.5 -31t-70 -19.5t-79 -7q-82 0 -137 23.5t-88 64t-46.5 95.5t-13.5 117t13.5 116.5t45 95t84 64t131.5 23.5q63 0 109 -16.5t76 -43t45 -60t17 -67.5h-126q-3 15 -11.5 29.5t-23 26.5t-36 19t-50.5 7
q-42 0 -69 -15.5t-43 -42t-22.5 -62t-6.5 -75.5q0 -41 7.5 -77t26 -62.5t50 -41.5t78.5 -15q73 0 109 28v84h-81v106h207v-221z" />
    <glyph glyph-name="H.aalt" horiz-adv-x="629" 
d="M554 0h-131v248h-217v-248h-132v584h132v-230h217v230h131v-584z" />
    <glyph glyph-name="Hbar.aalt" horiz-adv-x="633" 
d="M554 422v-424h-131v248h-217v-248h-132v424h-74v64h74v96h132v-95h217v96h131v-95h79v-64zM206 422v-70h217v70h-217z" />
    <glyph glyph-name="I.aalt" horiz-adv-x="281" 
d="M74 0v584h132v-584h-132z" />
    <glyph glyph-name="Iacute.aalt" horiz-adv-x="281" 
d="M103 619l51 126h148l-122 -126h-77zM76 0v584h132v-584h-132z" />
    <glyph glyph-name="Icircumflex.aalt" horiz-adv-x="281" 
d="M5 627l82 126h108l82 -126h-74l-62 63l-62 -63h-74zM207 583v-584h-132v584h132z" />
    <glyph glyph-name="Idieresis.aalt" horiz-adv-x="281" 
d="M3 638v94h101v-94h-101zM179 638v94h100v-94h-100zM75 0v584h132v-584h-132z" />
    <glyph glyph-name="Idotaccent.aalt" horiz-adv-x="281" 
d="M77 620v124h126v-124h-126zM74 0v584h132v-584h-132z" />
    <glyph glyph-name="Igrave.aalt" horiz-adv-x="281" 
d="M103 630l-122 126h148l51 -126h-77zM75 0v584h132v-584h-132z" />
    <glyph glyph-name="IJ.aalt" horiz-adv-x="651" 
d="M74 0v584h132v-584h-132zM578 170q0 -41 -11 -73.5t-36.5 -55.5t-69 -35t-107.5 -12q-15 0 -33 1.5t-29 3.5v112q12 -4 28.5 -7t34.5 -3q48 0 70 16.5t22 54.5v412h132z" />
    <glyph glyph-name="Imacron.aalt" horiz-adv-x="281" 
d="M27 627v62h227v-62h-227zM74 0v584h132v-584h-132z" />
    <glyph glyph-name="Iogonek.aalt" horiz-adv-x="281" 
d="M205 1q-85 -31 -85 -82q0 -20 12 -29.5t39 -9.5q10 0 17.5 1.5t15.5 4.5v-75q-17 -3 -36 -3q-114 0 -114 81q0 65 90 111h-70v584h132z" />
    <glyph glyph-name="J.aalt" horiz-adv-x="370" 
d="M297 170q0 -41 -11 -73.5t-36.5 -55.5t-69 -35t-107.5 -12q-15 0 -33 1.5t-29 3.5v112q12 -4 28.5 -7t34.5 -3q48 0 70 16.5t22 54.5v412h132z" />
    <glyph glyph-name="K.aalt" horiz-adv-x="619" 
d="M206 179v-179h-132v584h132v-241q10 14 19.5 25.5t18.5 19.5l209 196h158l-237 -237l238 -347h-150l-173 262z" />
    <glyph glyph-name="uni0136.aalt" horiz-adv-x="619" 
d="M462 0l-173 262l-83 -83v-179h-132v584h132v-241q10 14 19.5 25.5t18.5 19.5l209 196h158l-237 -237l238 -347h-150zM379 -50v-103l-42 -73h-56l42 73h-42v103h98z" />
    <glyph glyph-name="L.aalt" horiz-adv-x="497" 
d="M474 0h-400v584h132v-478h268v-106z" />
    <glyph glyph-name="Lacute.aalt" horiz-adv-x="497" 
d="M103 619l51 126h148l-122 -126h-77zM475 0h-400v584h132v-478h268v-106z" />
    <glyph glyph-name="Lcaron.aalt" horiz-adv-x="497" 
d="M474 0h-400v584h132v-478h268v-106zM240 458v126h117l-43 -126h-74z" />
    <glyph glyph-name="uni013B.aalt" horiz-adv-x="497" 
d="M474 0h-400v584h132v-478h268v-106zM313 -50v-103l-42 -73h-56l42 73h-42v103h98z" />
    <glyph glyph-name="Ldot.aalt" horiz-adv-x="509" 
d="M474 0h-400v584h132v-478h268v-106zM318 248v156h149v-156h-149z" />
    <glyph glyph-name="Lslash.aalt" horiz-adv-x="497" 
d="M474 0h-400v230l-71 -25v93l71 25v261h132v-214l166 59v-93l-166 -59v-171h268v-106z" />
    <glyph glyph-name="M.aalt" horiz-adv-x="790" 
d="M714 0h-121v389l-150 -389h-98l-149 389v-389h-122v584h170l140 -345q2 -6 5 -13.5t6 -15.5q2 8 5 15.5t5 13.5l140 345h170z" />
    <glyph glyph-name="N.aalt" horiz-adv-x="663" 
d="M450 0l-231 349q-10 15 -15.5 26t-8.5 19v-394h-122v584h137l231 -350q20 -31 26 -46v396h121v-584h-138z" />
    <glyph glyph-name="Nacute.aalt" horiz-adv-x="663" 
d="M294 619l51 126h148l-122 -126h-77zM451 0l-231 349q-10 15 -15.5 26t-8.5 19v-394h-122v584h137l231 -350q20 -31 26 -46v396h121v-584h-138z" />
    <glyph glyph-name="Ncaron.aalt" horiz-adv-x="663" 
d="M197 745h74l62 -63l62 63h74l-82 -126h-108zM450 0l-231 349q-10 15 -15.5 26t-8.5 19v-394h-122v584h137l231 -350q20 -31 26 -46v396h121v-584h-138z" />
    <glyph glyph-name="uni0145.aalt" horiz-adv-x="663" 
d="M450 0l-231 349q-10 15 -15.5 26t-8.5 19v-394h-122v584h137l231 -350q20 -31 26 -46v396h121v-584h-138zM377 -50v-103l-42 -73h-56l42 73h-42v103h98z" />
    <glyph glyph-name="Eng.aalt" horiz-adv-x="663" 
d="M589 -3q0 -41 -11 -74t-36.5 -56t-69 -35t-107.5 -12q-16 0 -34 1.5t-29 4.5v111q12 -4 28.5 -7t36.5 -3q49 0 72 16.5t23 55.5v24l-230 328q-13 17 -19.5 28.5t-9.5 19.5v-399h-127v584h142l214 -310q13 -20 19.5 -32t9.5 -20v362h127z" />
    <glyph glyph-name="Ntilde.aalt" horiz-adv-x="663" 
d="M482 723q-2 -53 -29 -81t-66 -28q-22 0 -36 7t-25 16t-22 16t-26 7q-13 0 -22.5 -10t-12.5 -29h-60q2 53 29 81t66 28q22 0 36 -7t25 -16t22 -16t26 -7q13 0 22.5 10t12.5 29h60zM450 0l-231 349q-10 15 -15.5 26t-8.5 19v-394h-122v584h137l231 -350q20 -31 26 -46v396
h121v-584h-138z" />
    <glyph glyph-name="O.c2sc" horiz-adv-x="652" 
d="M325 592q79 0 132 -23.5t84.5 -64t45 -95t13.5 -116.5t-13.5 -117t-45 -95.5t-84.5 -64t-132 -23.5t-131.5 23.5t-84 64t-45 95.5t-13.5 117t13.5 116.5t45 95t84 64t131.5 23.5zM325 487q-41 0 -68 -15.5t-43 -42t-22.5 -62t-6.5 -75.5q0 -41 6.5 -76.5t22.5 -62t43 -42
t68 -15.5t68.5 15.5t44 42t23.5 62t7 76.5q0 40 -7 75.5t-23.5 62t-44 42t-68.5 15.5z" />
    <glyph glyph-name="Oacute.aalt" horiz-adv-x="652" 
d="M287 619l51 126h148l-122 -126h-77zM326 592q79 0 132 -23.5t84.5 -64t45 -95t13.5 -116.5t-13.5 -117t-45 -95.5t-84.5 -64t-132 -23.5t-131.5 23.5t-84 64t-45 95.5t-13.5 117t13.5 116.5t45 95t84 64t131.5 23.5zM326 487q-41 0 -68 -15.5t-43 -42t-22.5 -62
t-6.5 -75.5q0 -41 6.5 -76.5t22.5 -62t43 -42t68 -15.5t68.5 15.5t44 42t23.5 62t7 76.5q0 40 -7 75.5t-23.5 62t-44 42t-68.5 15.5z" />
    <glyph glyph-name="Ocircumflex.aalt" horiz-adv-x="652" 
d="M190 620l82 126h108l82 -126h-74l-62 63l-62 -63h-74zM326 592q79 0 132 -23.5t84.5 -64t45 -95t13.5 -116.5t-13.5 -117t-45 -95.5t-84.5 -64t-132 -23.5t-131.5 23.5t-84 64t-45 95.5t-13.5 117t13.5 116.5t45 95t84 64t131.5 23.5zM326 96q41 0 68.5 15.5t44 42
t23.5 62t7 76.5q0 40 -7 75.5t-23.5 62t-44 42t-68.5 15.5t-68 -15.5t-43 -42t-22.5 -62t-6.5 -75.5q0 -41 6.5 -76.5t22.5 -62t43 -42t68 -15.5z" />
    <glyph glyph-name="Odieresis.aalt" horiz-adv-x="652" 
d="M187 638v94h101v-94h-101zM363 638v94h100v-94h-100zM325 592q79 0 132 -23.5t84.5 -64t45 -95t13.5 -116.5t-13.5 -117t-45 -95.5t-84.5 -64t-132 -23.5t-131.5 23.5t-84 64t-45 95.5t-13.5 117t13.5 116.5t45 95t84 64t131.5 23.5zM325 487q-41 0 -68 -15.5t-43 -42
t-22.5 -62t-6.5 -75.5q0 -41 6.5 -76.5t22.5 -62t43 -42t68 -15.5t68.5 15.5t44 42t23.5 62t7 76.5q0 40 -7 75.5t-23.5 62t-44 42t-68.5 15.5z" />
    <glyph glyph-name="Ograve.aalt" horiz-adv-x="652" 
d="M287 619l-122 126h148l51 -126h-77zM326 592q79 0 132 -23.5t84.5 -64t45 -95t13.5 -116.5t-13.5 -117t-45 -95.5t-84.5 -64t-132 -23.5t-131.5 23.5t-84 64t-45 95.5t-13.5 117t13.5 116.5t45 95t84 64t131.5 23.5zM326 487q-41 0 -68 -15.5t-43 -42t-22.5 -62
t-6.5 -75.5q0 -41 6.5 -76.5t22.5 -62t43 -42t68 -15.5t68.5 15.5t44 42t23.5 62t7 76.5q0 40 -7 75.5t-23.5 62t-44 42t-68.5 15.5z" />
    <glyph glyph-name="Ohungarumlaut.aalt" horiz-adv-x="652" 
d="M295 619h-70l26 126h126zM428 619h-73l54 126h141zM325 592q79 0 132 -23.5t84.5 -64t45 -95t13.5 -116.5t-13.5 -117t-45 -95.5t-84.5 -64t-132 -23.5t-131.5 23.5t-84 64t-45 95.5t-13.5 117t13.5 116.5t45 95t84 64t131.5 23.5zM325 487q-41 0 -68 -15.5t-43 -42
t-22.5 -62t-6.5 -75.5q0 -41 6.5 -76.5t22.5 -62t43 -42t68 -15.5t68.5 15.5t44 42t23.5 62t7 76.5q0 40 -7 75.5t-23.5 62t-44 42t-68.5 15.5z" />
    <glyph glyph-name="Omacron.aalt" horiz-adv-x="652" 
d="M212 643v62h227v-62h-227zM325 592q79 0 132 -23.5t84.5 -64t45 -95t13.5 -116.5t-13.5 -117t-45 -95.5t-84.5 -64t-132 -23.5t-131.5 23.5t-84 64t-45 95.5t-13.5 117t13.5 116.5t45 95t84 64t131.5 23.5zM325 487q-41 0 -68 -15.5t-43 -42t-22.5 -62t-6.5 -75.5
q0 -41 6.5 -76.5t22.5 -62t43 -42t68 -15.5t68.5 15.5t44 42t23.5 62t7 76.5q0 40 -7 75.5t-23.5 62t-44 42t-68.5 15.5z" />
    <glyph glyph-name="Oslash.aalt" horiz-adv-x="652" 
d="M507 539q51 -41 71.5 -105t20.5 -141q0 -62 -13.5 -117t-45 -95.5t-84.5 -64t-132 -23.5q-69 0 -118 18l-29 -51l-61 35l28 50q-52 41 -73 106t-21 143q0 62 13.5 116.5t45 95t84 64t131.5 23.5q70 0 122 -20l30 52l62 -34zM388 474q-28 14 -65 14q-41 0 -68 -15.5
t-43 -42t-22.5 -62t-6.5 -75.5q0 -39 6 -73.5t20 -60.5zM262 108q25 -12 61 -12q41 0 68.5 15.5t44 42t23.5 62t7 76.5q0 38 -6 71.5t-20 59.5z" />
    <glyph glyph-name="Otilde.aalt" horiz-adv-x="652" 
d="M175 620q2 53 29 81t66 28q22 0 36 -7t25 -16t22 -16t26 -7q13 0 22.5 10t12.5 29h60q-2 -53 -29 -81t-66 -28q-22 0 -36 7t-25 16t-22 16t-26 7q-13 0 -22.5 -10t-12.5 -29h-60zM326 592q79 0 132 -23.5t84.5 -64t45 -95t13.5 -116.5t-13.5 -117t-45 -95.5t-84.5 -64
t-132 -23.5t-131.5 23.5t-84 64t-45 95.5t-13.5 117t13.5 116.5t45 95t84 64t131.5 23.5zM326 487q-41 0 -68 -15.5t-43 -42t-22.5 -62t-6.5 -75.5q0 -41 6.5 -76.5t22.5 -62t43 -42t68 -15.5t68.5 15.5t44 42t23.5 62t7 76.5q0 40 -7 75.5t-23.5 62t-44 42t-68.5 15.5z" />
    <glyph glyph-name="OE.aalt" horiz-adv-x="827" 
d="M529 357h238v-106h-238v-143h255v-106h-375q-20 -4 -40.5 -6t-43.5 -2q-79 0 -131.5 23.5t-84 64t-45 95.5t-13.5 117t13.5 116.5t45 95t84 64t131.5 23.5q45 0 83 -9h376v-105h-255v-122zM397 459q-13 14 -31 22.5t-41 8.5q-41 0 -68 -15.5t-43 -42t-22.5 -62
t-6.5 -75.5q0 -41 6.5 -76.5t22.5 -62t43 -42t68 -15.5q45 0 72 30v330z" />
    <glyph glyph-name="P.aalt" horiz-adv-x="567" 
d="M319 583q55 0 96.5 -14.5t69 -39.5t41 -58.5t13.5 -71.5t-13.5 -71.5t-41 -58.5t-69 -39.5t-96.5 -14.5h-113v-215h-132v584zM314 321q45 0 68 23t23 55t-23 55.5t-68 23.5h-108v-158z" />
    <glyph glyph-name="Thorn.aalt" horiz-adv-x="567" 
d="M319 486q55 0 96.5 -14.5t69 -40t41 -59t13.5 -71.5t-13.5 -71.5t-41 -58.5t-69 -39.5t-96.5 -14.5h-113v-117h-132v584h132v-98h113zM314 224q45 0 68 23t23 56q0 32 -23 55t-68 23h-108v-158z" />
    <glyph glyph-name="Q.aalt" horiz-adv-x="652" 
d="M500 -162q-10 -2 -17.5 -2.5t-18.5 -0.5q-94 0 -139 38t-48 121q-64 7 -107 33.5t-69.5 66t-37.5 91t-11 108.5q0 62 13.5 116.5t45 95t84 64t131.5 23.5t132 -23.5t84.5 -64t45 -95t13.5 -116.5q0 -57 -11 -108.5t-37.5 -91t-70 -66t-107.5 -33.5q3 -38 24.5 -55
t63.5 -17q10 0 19.5 1t16.5 3zM326 96q41 0 68.5 15.5t44 42t23.5 62t7 76.5q0 40 -7 75.5t-23.5 62t-44 42t-68.5 15.5t-68 -15.5t-43 -42t-22.5 -62t-6.5 -75.5q0 -41 6.5 -76.5t22.5 -62t43 -42t68 -15.5z" />
    <glyph glyph-name="R.aalt" horiz-adv-x="593" 
d="M207 215v-215h-132v584h258q55 0 96.5 -14.5t69 -39.5t41.5 -58.5t14 -71.5q0 -59 -33 -105.5t-99 -66.5l137 -228h-140l-125 215h-87zM328 322q46 0 69 23t23 55t-23 55.5t-69 23.5h-121v-158z" />
    <glyph glyph-name="Racute.aalt" horiz-adv-x="593" 
d="M253 619l51 126h148l-122 -126h-77zM208 215v-215h-132v584h258q55 0 96.5 -14.5t69 -39.5t41.5 -58.5t14 -71.5q0 -59 -33 -105.5t-99 -66.5l137 -228h-140l-125 215h-87zM329 322q46 0 69 23t23 55t-23 55.5t-69 23.5h-121v-158z" />
    <glyph glyph-name="Rcaron.aalt" horiz-adv-x="593" 
d="M156 745h74l62 -63l62 63h74l-82 -126h-108zM208 216v-215h-132v584h258q55 0 96.5 -14.5t69 -39.5t41.5 -58.5t14 -71.5q0 -59 -33 -105.5t-99 -66.5l137 -228h-140l-125 215h-87zM329 323q46 0 69 23t23 55t-23 55.5t-69 23.5h-121v-158z" />
    <glyph glyph-name="uni0156.aalt" horiz-adv-x="593" 
d="M419 0l-125 215h-88v-215h-132v584h258q55 0 96.5 -14.5t69 -39.5t41.5 -58.5t14 -71.5q0 -59 -33 -105.5t-99 -66.5l137 -228h-139zM328 322q46 0 69 23t23 55t-23 55.5t-69 23.5h-121v-158zM341 -49v-103l-42 -73h-56l42 73h-42v103h98z" />
    <glyph glyph-name="S.aalt" horiz-adv-x="578" 
d="M170 179q5 -43 38.5 -62.5t81.5 -19.5q54 0 82.5 20.5t28.5 48.5t-26 42.5t-65 25.5t-84.5 21.5t-84.5 29.5t-65 50t-26 83q0 42 18 75t49.5 55t73.5 33.5t91 11.5q56 0 100 -13.5t75 -38t47.5 -59t17.5 -76.5h-128q-2 14 -9 28.5t-20 26.5t-32.5 19.5t-47.5 7.5
q-40 0 -67 -15.5t-27 -41.5t26 -41.5t65 -27t85 -23.5t85 -31.5t65 -51.5t26 -83q0 -45 -20 -79t-55 -57t-82.5 -34.5t-102.5 -11.5q-60 0 -106 13.5t-77.5 38.5t-48 59.5t-17.5 75.5z" />
    <glyph glyph-name="Sacute.aalt" horiz-adv-x="578" 
d="M243 619l51 126h148l-122 -126h-77zM171 179q5 -43 38.5 -62.5t81.5 -19.5q54 0 82.5 20.5t28.5 48.5t-26 42.5t-65 25.5t-84.5 21.5t-84.5 29.5t-65 50t-26 83q0 42 18 75t49.5 55t73.5 33.5t91 11.5q56 0 100 -13.5t75 -38t47.5 -59t17.5 -76.5h-128q-2 14 -9 28.5
t-20 26.5t-32.5 19.5t-47.5 7.5q-40 0 -67 -15.5t-27 -41.5t26 -41.5t65 -27t85 -23.5t85 -31.5t65 -51.5t26 -83q0 -45 -20 -79t-55 -57t-82.5 -34.5t-102.5 -11.5q-60 0 -106 13.5t-77.5 38.5t-48 59.5t-17.5 75.5z" />
    <glyph glyph-name="Scaron.aalt" horiz-adv-x="578" 
d="M145 745h74l62 -63l62 63h74l-82 -126h-108zM392 407q-2 14 -9 28.5t-20 26.5t-32.5 19.5t-47.5 7.5q-40 0 -67 -15.5t-27 -41.5q0 -27 26 -42t65 -26.5t85 -23.5t85 -31.5t65 -51.5t26 -83q0 -45 -20 -79t-55 -57t-82.5 -34.5t-102.5 -11.5q-60 0 -106 13.5t-77.5 38.5
t-48 59.5t-17.5 75.5h137q5 -43 38.5 -62.5t81.5 -19.5q54 0 82.5 20.5t28.5 48.5t-26 42.5t-65 25.5t-84.5 21.5t-84.5 29.5t-65 50t-26 83q0 42 18 75t49.5 55t73.5 33.5t91 11.5q56 0 100 -13.5t75 -38t47.5 -59t17.5 -76.5z" />
    <glyph glyph-name="Scedilla.c2sc" horiz-adv-x="578" 
d="M391 404q-2 14 -9 28.5t-20 26.5t-32.5 19.5t-47.5 7.5q-40 0 -67 -15.5t-27 -41.5q0 -27 26 -42t65 -26.5t85 -23.5t85 -31.5t65 -51.5t26 -83q0 -44 -19 -77t-52 -55.5t-78.5 -34.5t-98.5 -13l-9 -36q48 -1 73 -20t25 -54t-29 -57.5t-100 -22.5q-25 0 -46 3v52
q20 -7 46 -7q32 0 44.5 7.5t12.5 19.5q0 17 -19 23t-73 6l31 87q-104 8 -159 58.5t-57 127.5h137q5 -43 38.5 -62.5t81.5 -19.5q54 0 82.5 20.5t28.5 48.5q0 27 -26 42t-65 26t-84.5 21.5t-84.5 29.5t-65 50t-26 83q0 42 18 75t49.5 55t73.5 33.5t91 11.5q56 0 100 -13.5
t75 -38t47.5 -59t17.5 -76.5z" />
    <glyph glyph-name="uni0218.aalt" horiz-adv-x="578" 
d="M392 406q-2 14 -9 28.5t-20 26.5t-32.5 19.5t-47.5 7.5q-40 0 -67 -15.5t-27 -41.5t26 -41.5t65 -27t85 -23.5t85 -31.5t65 -51.5t26 -83q0 -45 -20 -79t-55 -57t-82.5 -34.5t-102.5 -11.5q-60 0 -106 13.5t-77.5 38.5t-48 59.5t-17.5 75.5h137q5 -43 38.5 -62.5
t81.5 -19.5q54 0 82.5 20.5t28.5 48.5q0 27 -26 42t-65 26t-84.5 21.5t-84.5 29.5t-65 50t-26 83q0 42 18 75t49.5 55t73.5 33.5t91 11.5q56 0 100 -13.5t75 -38t47.5 -59t17.5 -76.5zM330 -49v-103l-42 -73h-56l42 73h-42v103h98z" />
    <glyph glyph-name="germandbls.sc" horiz-adv-x="1156" 
d="M748 179q5 -43 38.5 -62.5t81.5 -19.5q54 0 82.5 20.5t28.5 48.5t-26 42.5t-65 25.5t-84.5 21.5t-84.5 29.5t-65 50t-26 83q0 42 18 75t49.5 55t73.5 33.5t91 11.5q56 0 100 -13.5t75 -38t47.5 -59t17.5 -76.5h-128q-2 14 -9 28.5t-20 26.5t-32.5 19.5t-47.5 7.5
q-40 0 -67 -15.5t-27 -41.5t26 -41.5t65 -27t85 -23.5t85 -31.5t65 -51.5t26 -83q0 -45 -20 -79t-55 -57t-82.5 -34.5t-102.5 -11.5q-60 0 -106 13.5t-77.5 38.5t-48 59.5t-17.5 75.5zM169 180q5 -43 38.5 -62.5t81.5 -19.5q54 0 82.5 20.5t28.5 48.5t-26 42.5t-65 25.5
t-84.5 21.5t-84.5 29.5t-65 50t-26 83q0 42 18 75t49.5 55t73.5 33.5t91 11.5q56 0 100 -13.5t75 -38t47.5 -59t17.5 -76.5h-128q-2 14 -9 28.5t-20 26.5t-32.5 19.5t-47.5 7.5q-40 0 -67 -15.5t-27 -41.5q0 -27 26 -42t65 -26.5t85 -23.5t85 -31.5t65 -51.5t26 -83
q0 -45 -20 -79t-55 -57t-82.5 -34.5t-102.5 -11.5q-60 0 -106 13.5t-77.5 38.5t-48 59.5t-17.5 75.5z" />
    <glyph glyph-name="T.aalt" horiz-adv-x="503" 
d="M317 479v-479h-131v479h-167v105h465v-105h-167z" />
    <glyph glyph-name="Tbar.aalt" horiz-adv-x="503" 
d="M317 330h74v-62h-74v-267h-131v267h-74v62h74v149h-167v105h465v-105h-166z" />
    <glyph glyph-name="Tcaron.aalt" horiz-adv-x="503" 
d="M116 745h74l62 -63l62 63h74l-82 -126h-108zM318 479v-479h-131v479h-167v105h465v-105h-167z" />
    <glyph glyph-name="uni0162.c2sc" horiz-adv-x="503" 
d="M251 -42q48 -2 73 -21.5t25 -54.5t-29 -57.5t-100 -22.5q-24 0 -46 3v52q20 -7 46 -7q32 0 44.5 7.5t12.5 19.5q0 16 -19 22.5t-72 6.5l36 94h-36v479h-167v105h465v-105h-166v-479h-52z" />
    <glyph glyph-name="uni021A.aalt" horiz-adv-x="503" 
d="M317 479v-479h-131v479h-167v105h465v-105h-167zM300 -50v-103l-42 -73h-56l42 73h-42v103h98z" />
    <glyph glyph-name="U.aalt" horiz-adv-x="623" 
d="M551 198q0 -42 -11.5 -79.5t-39.5 -65.5t-74 -44.5t-115 -16.5t-114.5 16.5t-73.5 44.5t-39.5 65.5t-11.5 79.5v386h131v-386q0 -21 5 -39t17 -32t33 -22t54 -8t54 8t33.5 22t17 32t4.5 39v386h131z" />
    <glyph glyph-name="Uacute.aalt" horiz-adv-x="623" 
d="M275 619l51 126h148l-122 -126h-77zM552 198q0 -42 -11.5 -79.5t-39.5 -65.5t-74 -44.5t-115 -16.5t-114.5 16.5t-73.5 44.5t-39.5 65.5t-11.5 79.5v386h131v-386q0 -21 5 -39t17 -32t33 -22t54 -8t54 8t33.5 22t17 32t4.5 39v386h131z" />
    <glyph glyph-name="Ucircumflex.aalt" horiz-adv-x="623" 
d="M177 620l82 126h108l82 -126h-74l-62 63l-62 -63h-74zM551 198q0 -42 -11.5 -79.5t-39.5 -65.5t-74 -44.5t-115 -16.5t-114.5 16.5t-73.5 44.5t-39.5 65.5t-11.5 79.5v386h131v-386q0 -21 5 -39t17 -32t33 -22t54 -8t54 8t33.5 22t17 32t4.5 39v386h131z" />
    <glyph glyph-name="Udieresis.aalt" horiz-adv-x="623" 
d="M174 638v94h101v-94h-101zM350 638v94h100v-94h-100zM550 198q0 -42 -11.5 -79.5t-39.5 -65.5t-74 -44.5t-115 -16.5t-114.5 16.5t-73.5 44.5t-39.5 65.5t-11.5 79.5v386h131v-386q0 -21 5 -39t17 -32t33 -22t54 -8t54 8t33.5 22t17 32t4.5 39v386h131z" />
    <glyph glyph-name="Ugrave.aalt" horiz-adv-x="623" 
d="M275 619l-122 126h148l51 -126h-77zM552 198q0 -42 -11.5 -79.5t-39.5 -65.5t-74 -44.5t-115 -16.5t-114.5 16.5t-73.5 44.5t-39.5 65.5t-11.5 79.5v386h131v-386q0 -21 5 -39t17 -32t33 -22t54 -8t54 8t33.5 22t17 32t4.5 39v386h131z" />
    <glyph glyph-name="Uhungarumlaut.aalt" horiz-adv-x="623" 
d="M283 619h-70l26 126h126zM416 619h-73l54 126h141zM551 198q0 -42 -11.5 -79.5t-39.5 -65.5t-74 -44.5t-115 -16.5t-114.5 16.5t-73.5 44.5t-39.5 65.5t-11.5 79.5v386h131v-386q0 -21 5 -39t17 -32t33 -22t54 -8t54 8t33.5 22t17 32t4.5 39v386h131z" />
    <glyph glyph-name="Umacron.aalt" horiz-adv-x="623" 
d="M199 643v62h227v-62h-227zM550 197q0 -42 -11.5 -79.5t-39.5 -65.5t-74 -44.5t-115 -16.5t-114.5 16.5t-73.5 44.5t-39.5 65.5t-11.5 79.5v386h131v-386q0 -21 5 -39t17 -32t33 -22t54 -8t54 8t33.5 22t17 32t4.5 39v386h131z" />
    <glyph glyph-name="Uogonek.aalt" horiz-adv-x="623" 
d="M550 199q0 -36 -8 -68t-26.5 -58.5t-49.5 -45.5t-76 -28q-85 -31 -85 -82q0 -20 12 -29.5t39 -9.5q10 0 17.5 1.5t15.5 4.5v-75q-17 -3 -36 -3q-114 0 -114 81q0 61 77 105h-5q-69 0 -114.5 16.5t-73.5 44.5t-39.5 65.5t-11.5 79.5v386h131v-386q0 -21 5 -39t17 -32
t33 -22t54 -8t54 8t33.5 22t17 32t4.5 39v386h131z" />
    <glyph glyph-name="Uring.aalt" horiz-adv-x="623" 
d="M313 799q51 0 79.5 -24.5t28.5 -69.5t-28.5 -69.5t-79.5 -24.5t-79.5 24.5t-28.5 69.5t28.5 69.5t79.5 24.5zM313 748q-52 0 -52 -42q0 -44 52 -44t52 44q0 42 -52 42zM550 197q0 -42 -11.5 -79.5t-39.5 -65.5t-74 -44.5t-115 -16.5t-114.5 16.5t-73.5 44.5t-39.5 65.5
t-11.5 79.5v386h131v-386q0 -21 5 -39t17 -32t33 -22t54 -8t54 8t33.5 22t17 32t4.5 39v386h131z" />
    <glyph glyph-name="V.aalt" horiz-adv-x="598" 
d="M364 0h-131l-229 584h133l151 -382q2 -5 5.5 -16t5.5 -22q2 11 5 22t5 16l151 382h133z" />
    <glyph glyph-name="W.aalt" horiz-adv-x="798" 
d="M665 0h-175l-84 366q-2 8 -4 20.5t-4 32.5q-2 -20 -4 -32.5t-4 -20.5l-84 -366h-174l-119 584h130l85 -455l96 455h150l96 -453l85 453h131z" />
    <glyph glyph-name="Wacute.aalt" horiz-adv-x="798" 
d="M362 619l51 126h148l-122 -126h-77zM666 0h-175l-84 366q-2 8 -4 20.5t-4 32.5q-2 -20 -4 -32.5t-4 -20.5l-84 -366h-174l-119 584h130l85 -455l96 455h150l96 -453l85 453h131z" />
    <glyph glyph-name="Wcircumflex.aalt" horiz-adv-x="798" 
d="M264 620l82 126h108l82 -126h-74l-62 63l-62 -63h-74zM665 0h-175l-84 366q-2 8 -4 20.5t-4 32.5q-2 -20 -4 -32.5t-4 -20.5l-84 -366h-174l-119 584h130l85 -455l96 455h150l96 -453l85 453h131z" />
    <glyph glyph-name="Wdieresis.aalt" horiz-adv-x="798" 
d="M261 638v94h101v-94h-101zM437 638v94h100v-94h-100zM665 0h-175l-84 366q-2 8 -4 20.5t-4 32.5q-2 -20 -4 -32.5t-4 -20.5l-84 -366h-174l-119 584h130l85 -455l96 455h150l96 -453l85 453h131z" />
    <glyph glyph-name="Wgrave.aalt" horiz-adv-x="798" 
d="M240 745h148l51 -126h-78zM666 0h-175l-84 366q-2 8 -4 20.5t-4 32.5q-2 -20 -4 -32.5t-4 -20.5l-84 -366h-174l-119 584h130l85 -455l96 455h150l96 -453l85 453h131z" />
    <glyph glyph-name="X.aalt" horiz-adv-x="570" 
d="M288 203l-135 -204h-147l205 297l-198 287h146l129 -195l128 195h146l-198 -287l204 -296h-146z" />
    <glyph glyph-name="Y.aalt" horiz-adv-x="548" 
d="M341 0h-132v238l-203 346h141l116 -197q5 -9 12 -26q4 14 11 26l116 197h141l-203 -346z" />
    <glyph glyph-name="Yacute.aalt" horiz-adv-x="548" 
d="M236 619l51 126h148l-122 -126h-77zM342 0h-132v238l-203 346h141l116 -197q5 -9 12 -26q4 14 11 26l116 197h141l-203 -346z" />
    <glyph glyph-name="Ycircumflex.aalt" horiz-adv-x="548" 
d="M138 620l82 126h108l82 -126h-74l-62 63l-62 -63h-74zM341 0h-132v238l-203 346h141l116 -197q5 -9 12 -26q4 14 11 26l116 197h141l-203 -346z" />
    <glyph glyph-name="Ydieresis.aalt" horiz-adv-x="548" 
d="M136 638v94h101v-94h-101zM312 638v94h100v-94h-100zM341 0h-132v238l-203 346h141l116 -197q5 -9 12 -26q4 14 11 26l116 197h141l-203 -346z" />
    <glyph glyph-name="Ygrave.aalt" horiz-adv-x="548" 
d="M114 745h148l51 -126h-78zM342 0h-132v238l-203 346h141l116 -197q5 -9 12 -26q4 14 11 26l116 197h141l-203 -346z" />
    <glyph glyph-name="Z.aalt" horiz-adv-x="534" 
d="M168 106h332v-106h-465v117l333 362h-334v105h465v-118z" />
    <glyph glyph-name="Zacute.aalt" horiz-adv-x="534" 
d="M229 619l51 126h148l-122 -126h-77zM169 106h332v-106h-465v117l333 362h-334v105h465v-118z" />
    <glyph glyph-name="Zcaron.aalt" horiz-adv-x="534" 
d="M131 745h74l62 -63l62 63h74l-82 -126h-108zM168 106h332v-106h-465v117l333 362h-334v105h465v-118z" />
    <glyph glyph-name="Zdotaccent.aalt" horiz-adv-x="534" 
d="M204 639v124h126v-124h-126zM169 106h332v-106h-465v117l333 362h-334v105h465v-118z" />
    <glyph glyph-name="uni0394.aalt" horiz-adv-x="599" 
d="M4 0l230 584h130l230 -584h-590zM310 383q-4 11 -6.5 20t-4.5 17q-2 -8 -4.5 -17t-6.5 -20l-109 -277h240z" />
    <glyph glyph-name="uni03A9.aalt" horiz-adv-x="633" 
d="M154 106q-50 45 -76.5 106.5t-26.5 133.5q0 56 17 101.5t51 78t83 50t114 17.5q64 0 113.5 -17.5t83.5 -50t51 -78t17 -101.5q0 -72 -26.5 -133.5t-76.5 -106.5h92v-106h-222v112q23 12 42 33t32 47.5t20 56.5t7 62q0 37 -7 69.5t-23 56.5t-41.5 38t-61.5 14t-61 -14
t-41 -38t-23 -56.5t-7 -69.5q0 -32 7 -62t20 -56.5t31.5 -47.5t41.5 -33v-112h-222v106h92z" />
    <glyph glyph-name="zero.oldstyle" horiz-adv-x="695" 
d="M347 549q80 0 136 -20.5t91.5 -57.5t51.5 -88.5t16 -112.5t-16 -112.5t-51.5 -88.5t-91.5 -57.5t-136 -20.5t-136 20.5t-91 57.5t-51 88.5t-16 112.5t16 112.5t51 88.5t91 57.5t136 20.5zM347 437q-81 0 -117.5 -46.5t-36.5 -121.5t36.5 -121.5t117.5 -46.5
q82 0 119 46.5t37 121.5t-37 121.5t-119 46.5z" />
    <glyph glyph-name="one.oldstyle" horiz-adv-x="456" 
d="M371 0h-139v389l-136 -100l-70 92l212 157h133v-538z" />
    <glyph glyph-name="two.oldstyle" horiz-adv-x="599" 
d="M568 0h-538v124q82 22 154.5 46.5t126.5 52.5t85 60t31 69q0 22 -10.5 38.5t-28 27t-40.5 15.5t-49 5q-40 0 -65.5 -10t-41 -26t-22.5 -34.5t-8 -36.5h-133q1 49 18.5 89t51 68.5t83.5 44.5t117 16q50 0 98 -11t85.5 -33.5t60.5 -57.5t23 -83q0 -51 -23 -90t-63.5 -69
t-97.5 -52.5t-124 -40.5h311z" />
    <glyph glyph-name="three.oldstyle" horiz-adv-x="639" 
d="M52 333q1 47 17 87t49 69t83 45.5t118 16.5q45 0 90 -10t81 -31.5t58.5 -56.5t22.5 -85q0 -57 -30 -95t-76 -59q29 -11 54.5 -27t44.5 -37.5t30 -50t11 -62.5q0 -56 -26 -95.5t-67.5 -64.5t-92.5 -36t-101 -11q-62 0 -113.5 14.5t-89.5 42.5t-61 68.5t-26 92.5h136
q4 -21 14.5 -40.5t29 -34.5t46 -23.5t66.5 -8.5q31 0 58 7.5t47 22t31 34.5t11 45q0 49 -40 76t-126 29v112q67 2 99 20t32 63q0 24 -10.5 40.5t-27.5 27t-38.5 15.5t-43.5 5q-35 0 -59.5 -9t-40 -24t-23 -34.5t-9.5 -39.5z" />
    <glyph glyph-name="four.oldstyle" horiz-adv-x="679" 
d="M531 1v-162h-139v162h-371v123l246 415h147l-263 -427h240v184h139v-184h129v-112z" />
    <glyph glyph-name="five.oldstyle" horiz-adv-x="668" 
d="M200 260q27 23 68.5 35t98.5 12q56 0 104.5 -16.5t84.5 -47.5t56.5 -75t20.5 -98q0 -66 -28 -112.5t-71.5 -75.5t-97.5 -42t-106 -13q-74 0 -129 19t-92 50t-56 70t-22 79h139q3 -20 14.5 -39t31.5 -34t48.5 -24t66.5 -9q31 0 61 7.5t53 23.5t37 42t14 64q0 33 -13 57.5
t-35 41t-50.5 24.5t-59.5 8q-50 0 -86.5 -15t-65.5 -47h-132l53 394h459v-112h-345z" />
    <glyph glyph-name="six.oldstyle" horiz-adv-x="686" 
d="M484 492q-4 18 -13.5 36t-25 32t-37.5 22.5t-51 8.5q-70 0 -116 -55.5t-51 -164.5l-1 -15q23 35 73 59.5t131 24.5q65 0 112 -18t77 -48t44.5 -68.5t14.5 -80.5q0 -48 -18.5 -90.5t-54.5 -74.5t-89 -51t-122 -19q-61 0 -116 17t-97 56.5t-67 104.5t-25 162q0 75 17.5 144
t54.5 121.5t95 83.5t139 31q51 0 95.5 -15t79.5 -43t57 -68.5t28 -91.5h-134zM356 101q38 0 65.5 9.5t45.5 26t26.5 38.5t8.5 46t-8.5 46t-26.5 38t-45.5 25.5t-65.5 9.5q-39 0 -66.5 -10t-45.5 -26.5t-26.5 -38.5t-8.5 -46q0 -49 37.5 -83.5t109.5 -34.5z" />
    <glyph glyph-name="seven.oldstyle" horiz-adv-x="577" 
d="M559 417q-57 -54 -101.5 -119.5t-75.5 -139.5t-47.5 -155t-16.5 -165h-141q0 89 21.5 173.5t57 160t82 140t96.5 114.5h-416v112h540z" />
    <glyph glyph-name="eight.oldstyle" horiz-adv-x="684" 
d="M501 389q74 -26 111.5 -75.5t37.5 -109.5q0 -59 -27.5 -99.5t-71.5 -66t-99 -36.5t-110 -11q-54 0 -109 11t-98.5 36.5t-71 66t-27.5 99.5q0 60 37.5 109t110.5 75q-50 25 -75.5 64.5t-25.5 87.5t23 80.5t60 52.5t83 29t92 9q45 0 91.5 -9t84.5 -29t62 -52.5t24 -80.5
t-26 -87.5t-77 -64.5zM344 605q-24 0 -48.5 -4.5t-44 -14t-31.5 -25.5t-12 -40q0 -38 35 -64t101 -26t101 26t35 64q0 24 -12.5 40t-32.5 25.5t-44 14t-48 4.5h1zM343 102q29 0 58 6.5t52.5 20.5t38.5 36t15 54q0 49 -41.5 82t-121.5 33t-121.5 -33t-41.5 -82
q0 -32 14.5 -54t38 -36t52.5 -20.5t58 -6.5h-1z" />
    <glyph glyph-name="nine.oldstyle" horiz-adv-x="686" 
d="M201 46q4 -18 13.5 -36t25 -32t37.5 -22.5t51 -8.5q70 0 116 55.5t51 164.5l1 15q-23 -35 -73 -59.5t-131 -24.5q-65 0 -112 18t-77 48t-44.5 68.5t-14.5 80.5q0 48 18.5 90.5t54.5 74.5t89 51t122 19q61 0 116 -17t97 -56.5t67 -104.5t25 -162q0 -75 -17.5 -144
t-54.5 -121.5t-95 -83.5t-139 -31q-51 0 -95.5 15t-79.5 43t-57 68.5t-28 91.5h134zM329 198q39 0 66.5 10t45.5 26.5t26.5 38.5t8.5 46q0 49 -37.5 83.5t-109.5 34.5q-38 0 -65.5 -10t-45.5 -26.5t-26.5 -38t-8.5 -45.5t8.5 -46t26.5 -38t45.5 -25.5t65.5 -9.5z" />
    <glyph glyph-name="zero.oldstyle.zero" horiz-adv-x="695" 
d="M347 549q80 0 136 -20.5t91.5 -57.5t51.5 -88.5t16 -112.5t-16 -112.5t-51.5 -88.5t-91.5 -57.5t-136 -20.5t-136 20.5t-91 57.5t-51 88.5t-16 112.5t16 112.5t51 88.5t91 57.5t136 20.5zM445 409q-37 28 -97 28q-81 0 -117.5 -46.5t-36.5 -121.5q0 -37 7 -64zM243 134
q39 -33 104 -33q82 0 119 46.5t37 121.5q0 42 -12 75z" />
    <glyph glyph-name="zero.sinf" horiz-adv-x="455" 
d="M228 310q56 0 93 -19t59.5 -51t32 -75t9.5 -92t-9.5 -92t-32 -75.5t-59.5 -51t-93 -18.5t-93.5 18.5t-60 51t-32 75.5t-9.5 92t9.5 92t32 75t60 51t93.5 19zM228 221q-24 0 -39.5 -11.5t-24.5 -32t-13 -47.5t-4 -57q0 -31 4 -58t13 -47.5t24.5 -32t39.5 -11.5t40 11.5
t25.5 32t13.5 47.5t4 58t-4 58t-13.5 47t-25.5 31.5t-40 11.5z" />
    <glyph glyph-name="one.sinf" horiz-adv-x="317" 
d="M260 -157h-111v349l-84 -61l-54 69l142 103h108z" />
    <glyph glyph-name="two.sinf" horiz-adv-x="403" 
d="M23 159q1 73 48.5 111.5t132.5 38.5q35 0 67.5 -8.5t57.5 -25t40 -41.5t15 -59q0 -42 -20.5 -78t-52.5 -66.5t-70 -55.5t-73 -44h215v-89h-360v98q31 16 73.5 40.5t81.5 55t66 64.5t27 70q0 26 -18.5 38.5t-50.5 12.5q-36 0 -53 -17t-20 -44z" />
    <glyph glyph-name="three.sinf" horiz-adv-x="419" 
d="M33 159q0 72 46.5 111t131.5 39q29 0 58.5 -6.5t53.5 -21t39 -37.5t15 -56q0 -36 -19 -60.5t-48 -38.5q38 -15 63.5 -43.5t25.5 -73.5q0 -38 -17.5 -64t-44.5 -42t-60.5 -23.5t-65.5 -7.5q-89 0 -140.5 40.5t-53.5 109.5h109q3 -23 21.5 -42t63.5 -19q35 0 56.5 17
t21.5 42q0 26 -20.5 41.5t-68.5 16.5v82q70 2 70 51q0 26 -20.5 37t-43.5 11q-35 0 -52 -16.5t-19 -45.5z" />
    <glyph glyph-name="four.sinf" horiz-adv-x="456" 
d="M367 -58v-101h-111v101h-241v95l156 265h117l-169 -271h136v103h111v-103h76v-88z" />
    <glyph glyph-name="five.sinf" horiz-adv-x="445" 
d="M149 119q14 13 39.5 22.5t63.5 9.5q36 0 67 -10.5t54 -30t36 -48.5t13 -66q0 -44 -18.5 -74.5t-48 -50t-65 -28t-69.5 -8.5q-47 0 -83 12t-61 32t-39 47.5t-17 59.5h112q7 -26 28 -43.5t61 -17.5q17 0 33 4.5t28.5 13.5t20 23.5t7.5 35.5q0 37 -26.5 54.5t-59.5 17.5
q-27 0 -47.5 -8t-35.5 -27h-106l37 264h304v-89h-214z" />
    <glyph glyph-name="six.sinf" horiz-adv-x="455" 
d="M302 163q-2 7 -6 16.5t-12 18t-20 14t-29 5.5q-23 0 -39 -8.5t-26 -22.5t-15.5 -33.5t-7.5 -40.5q-1 -5 -1.5 -11t-0.5 -12q13 20 42.5 33t76.5 13q40 0 69.5 -11.5t49 -31.5t29 -46.5t9.5 -56.5t-12 -57.5t-35.5 -48.5t-59 -33.5t-81.5 -12.5q-40 0 -76 11t-63.5 38
t-44 71.5t-16.5 111.5q0 46 11.5 89.5t36.5 77.5t64 54.5t95 20.5q31 0 60 -10t52.5 -29.5t38 -47.5t17.5 -64zM234 -72q40 0 59.5 19t19.5 45t-19.5 45t-59.5 19q-42 0 -60.5 -19t-18.5 -45q0 -27 20 -45.5t58 -18.5h1z" />
    <glyph glyph-name="seven.sinf" horiz-adv-x="383" 
d="M370 205q-72 -69 -111 -161t-39 -201h-118q0 57 15 111.5t39 102.5t54 88.5t60 69.5h-257v88h357v-98z" />
    <glyph glyph-name="eight.sinf" horiz-adv-x="448" 
d="M336 99q46 -17 70 -49.5t24 -70.5q0 -39 -18.5 -66.5t-47.5 -44.5t-65.5 -24.5t-73.5 -7.5t-73.5 7.5t-65.5 24.5t-47 44.5t-18 66.5q0 38 23.5 70t69.5 50q-30 17 -46 42t-16 55q0 32 15 54t39.5 35.5t55 19.5t61.5 6q30 0 61 -6t56 -19.5t41 -35.5t16 -54
q0 -30 -15.5 -55t-46.5 -42h1zM225 231q-14 0 -27.5 -2.5t-24.5 -8.5t-18 -15t-7 -22q0 -22 20.5 -37t57.5 -15q36 0 56 15t20 37q0 13 -7 22t-18.5 15t-25 8.5t-26.5 2.5zM223 -77q16 0 33 3.5t30.5 11.5t22 20.5t8.5 30.5q0 29 -23.5 48t-69.5 19t-70 -19t-24 -48
q0 -18 8.5 -30.5t22 -20.5t30.5 -11.5t34 -3.5h-2z" />
    <glyph glyph-name="nine.sinf" horiz-adv-x="455" 
d="M153 -17q1 -8 5.5 -17t12.5 -17.5t20 -14t29 -5.5q23 0 39 8.5t26 22.5t15.5 33.5t7.5 40.5q1 5 1.5 11t0.5 12q-13 -20 -42.5 -33t-76.5 -13q-40 0 -69.5 11.5t-49 32t-29 47.5t-9.5 58q0 29 12 56t35.5 47.5t58.5 33t82 12.5q40 0 76 -11t63.5 -38t44 -71.5
t16.5 -111.5q0 -46 -11.5 -89.5t-36.5 -77.5t-65 -54.5t-96 -20.5q-30 0 -59 10t-52 29.5t-37.5 47.5t-17.5 64zM221 90q42 0 60.5 19t18.5 45q0 27 -20 45.5t-58 18.5q-40 0 -59.5 -19t-19.5 -45t19.5 -45t59.5 -19h-1z" />
    <glyph glyph-name="zero.c2sc.zero" horiz-adv-x="569" 
d="M285 592q72 0 121 -23.5t78 -64t41.5 -95t12.5 -116.5t-12.5 -117t-41.5 -95.5t-78 -64t-121 -23.5q-73 0 -121.5 23.5t-78 64t-41.5 95.5t-12 117t12 116.5t41.5 95t78 64t121.5 23.5zM378 433q-14 25 -37 39.5t-57 14.5q-35 0 -58.5 -15.5t-37 -42t-19 -62t-5.5 -75.5
q0 -11 0.5 -22t1.5 -22zM187 159q14 -29 37.5 -46t60.5 -17q35 0 58 15.5t37 42t20 62t6 76.5q0 30 -3 57z" />
    <glyph glyph-name="zero.tnum" 
d="M344 710q85 0 141.5 -28.5t91 -77t49 -114t14.5 -140.5t-14.5 -140.5t-49 -114t-91 -77t-141.5 -28.5q-84 0 -140.5 28.5t-90.5 77t-48 114t-14 140.5t14 140.5t48 114t90.5 77t140.5 28.5zM344 598q-44 0 -73.5 -20t-47 -53.5t-25 -79t-7.5 -96.5t7.5 -96.5t25 -79.5
t47 -53.5t73.5 -19.5q45 0 75 20t48 53.5t25.5 79t7.5 96.5t-7.5 96.5t-25.5 79t-48 53.5t-75 20z" />
    <glyph glyph-name="one.tnum" 
d="M615 -1h-539v112h201v440l-136 -99l-70 93l212 155h133v-588h199v-113z" />
    <glyph glyph-name="two.tnum" 
d="M76 490q4 105 75 161.5t196 56.5q55 0 105 -13t87 -38.5t59 -64t22 -89.5q0 -68 -35 -126.5t-88 -108t-115.5 -89t-118.5 -69.5h357v-112h-545v121q34 17 77 41t88 52.5t88 61.5t77 69t54.5 74.5t20.5 78.5q0 51 -37.5 76.5t-98.5 25.5q-35 0 -59.5 -8.5t-40.5 -23
t-25 -33.5t-12 -41z" />
    <glyph glyph-name="three.tnum" 
d="M80 494q1 47 17 87t49 69t83 45.5t118 16.5q45 0 90 -10t81.5 -31.5t59 -56.5t22.5 -85q0 -57 -30 -95t-76 -59q29 -11 54.5 -27t44.5 -37.5t30 -50t11 -62.5q0 -56 -26 -95.5t-67.5 -64.5t-92.5 -36t-101 -11q-62 0 -114 14.5t-90 42.5t-61 68.5t-26 92.5h137
q4 -21 14.5 -40.5t28.5 -34.5t45 -23.5t66 -8.5q64 0 106 29t42 80q0 49 -39.5 76t-126.5 29v112q67 2 99.5 20t32.5 63q0 24 -10.5 40.5t-27.5 27t-38.5 15.5t-43.5 5q-35 0 -59 -9t-39.5 -24t-23 -34.5t-9.5 -39.5z" />
    <glyph glyph-name="four.tnum" 
d="M538 163v-162h-139v162h-371v123l246 415h147l-262 -427h239v184h139v-184h129v-112z" />
    <glyph glyph-name="five.tnum" 
d="M212 421q27 23 68.5 35t98.5 12q56 0 104.5 -16.5t84.5 -47.5t56.5 -75t20.5 -98q0 -66 -28 -112.5t-71.5 -75.5t-97.5 -42t-106 -13q-74 0 -129 19t-92 50t-56 70t-22 79h139q3 -20 14.5 -39t31.5 -34t48.5 -24t66.5 -9q31 0 61 7.5t53 23.5t37 42t14 64q0 33 -13 57.5
t-35 41t-50.5 24.5t-59.5 8q-50 0 -86.5 -15t-65.5 -47h-132l53 394h459v-112h-345z" />
    <glyph glyph-name="six.tnum" 
d="M477 492q-4 18 -13.5 36t-25 32t-37.5 22.5t-51 8.5q-70 0 -116 -55.5t-51 -164.5l-1 -15q23 35 73 59.5t131 24.5q65 0 112 -18t77 -48t44.5 -68.5t14.5 -80.5q0 -48 -18.5 -90.5t-54.5 -74.5t-89 -51t-122 -19q-61 0 -116 17t-97 56.5t-67 104.5t-25 162q0 75 17.5 144
t54.5 121.5t95 83.5t139 31q51 0 95.5 -15t79.5 -43t57 -68.5t28 -91.5h-134zM349 101q38 0 65.5 9.5t45.5 26t26.5 38.5t8.5 46t-8.5 46t-26.5 38t-45.5 25.5t-65.5 9.5q-39 0 -66.5 -10t-45.5 -26.5t-26.5 -38.5t-8.5 -46q0 -49 37.5 -83.5t109.5 -34.5z" />
    <glyph glyph-name="seven.tnum" 
d="M616 579q-57 -54 -101.5 -119.5t-75.5 -139.5t-47.5 -155t-16.5 -165h-141q0 89 21.5 173.5t57 160t82 140t96.5 114.5h-416v112h540z" />
    <glyph glyph-name="eight.tnum" 
d="M504 389q74 -26 111.5 -75.5t37.5 -109.5q0 -59 -27.5 -99.5t-71.5 -66t-99 -36.5t-110 -11q-54 0 -109 11t-98.5 36.5t-71 66t-27.5 99.5q0 60 37.5 109t110.5 75q-50 25 -75.5 64.5t-25.5 87.5t23 80.5t60 52.5t83 29t92 9q45 0 91.5 -9t84.5 -29t62 -52.5t24 -80.5
t-26 -87.5t-77 -64.5zM347 605q-24 0 -48.5 -4.5t-44 -14t-31.5 -25.5t-12 -40q0 -38 35 -64t101 -26t101 26t35 64q0 24 -12.5 40t-32.5 25.5t-44 14t-48 4.5h1zM346 102q29 0 58 6.5t52.5 20.5t38.5 36t15 54q0 49 -41.5 82t-121.5 33t-121.5 -33t-41.5 -82
q0 -32 14.5 -54t38 -36t52.5 -20.5t58 -6.5h-1z" />
    <glyph glyph-name="nine.tnum" 
d="M211 208q4 -18 13.5 -36t25 -32t37.5 -22.5t51 -8.5q70 0 116 55.5t51 164.5l1 15q-23 -35 -73 -59.5t-131 -24.5q-65 0 -112 18t-77 48t-44.5 68.5t-14.5 80.5q0 48 18.5 90.5t54.5 74.5t89 51t122 19q61 0 116 -17t97 -56.5t67 -104.5t25 -162q0 -75 -17.5 -144
t-54.5 -121.5t-95 -83.5t-139 -31q-51 0 -95.5 15t-79.5 43t-57 68.5t-28 91.5h134zM339 360q39 0 66.5 10t45.5 26.5t26.5 38.5t8.5 46q0 49 -37.5 83.5t-109.5 34.5q-38 0 -65.5 -10t-45.5 -26.5t-26.5 -38t-8.5 -45.5t8.5 -46t26.5 -38t45.5 -25.5t65.5 -9.5z" />
    <glyph glyph-name="zero.tnum.zero" 
d="M344 710q85 0 141.5 -28.5t91 -77t49 -114t14.5 -140.5t-14.5 -140.5t-49 -114t-91 -77t-141.5 -28.5q-84 0 -140.5 28.5t-90.5 77t-48 114t-14 140.5t14 140.5t48 114t90.5 77t140.5 28.5zM455 545q-18 26 -45.5 40t-65.5 14q-44 0 -73.5 -20t-47 -53.5t-25 -79
t-7.5 -96.5q0 -47 6 -89zM232 160q18 -27 45.5 -42.5t66.5 -15.5q45 0 75 20t48 53.5t25.5 79t7.5 96.5q0 25 -1.5 48.5t-5.5 45.5z" />
    <glyph glyph-name="zero.tnum.oldstyle" 
d="M345 549q80 0 136 -20.5t91.5 -57.5t51.5 -88.5t16 -112.5t-16 -112.5t-51.5 -88.5t-91.5 -57.5t-136 -20.5t-136 20.5t-91 57.5t-51 88.5t-16 112.5t16 112.5t51 88.5t91 57.5t136 20.5zM345 437q-81 0 -117 -46.5t-36 -121.5t36 -121.5t117 -46.5q82 0 119 46.5
t37 121.5t-37 121.5t-119 46.5z" />
    <glyph glyph-name="one.tnum.oldstyle" 
d="M611 0h-539v112h208v278l-138 -100l-70 92l215 157h133v-427h193z" />
    <glyph glyph-name="two.tnum.oldstyle" 
d="M615 0h-538v124q82 22 154.5 46.5t126.5 52.5t85 60t31 69q0 22 -10.5 38.5t-28 27t-40.5 15.5t-49 5q-40 0 -65.5 -10t-41 -26t-22.5 -34.5t-8 -36.5h-133q1 49 18.5 89t51 68.5t83.5 44.5t117 16q50 0 98 -11t85.5 -33.5t60.5 -57.5t23 -83q0 -51 -23 -90t-63.5 -69
t-97.5 -52.5t-124 -40.5h311z" />
    <glyph glyph-name="three.tnum.oldstyle" 
d="M81 330q1 47 17 87t49 69t83 45.5t118 16.5q45 0 90 -10t81.5 -31.5t59 -56.5t22.5 -85q0 -57 -30 -94.5t-76 -58.5q29 -10 55 -26t45 -37.5t30 -50t11 -62.5q0 -56 -26 -95.5t-67.5 -64.5t-92.5 -36t-101 -11q-62 0 -114 14.5t-90 42.5t-61 68.5t-26 92.5h136
q4 -21 14.5 -40.5t29 -34.5t46 -23.5t66.5 -8.5q31 0 58 7.5t46.5 22t30.5 34.5t11 45q0 49 -39.5 76t-125.5 28v112q66 2 98.5 20.5t32.5 63.5q0 24 -10.5 40.5t-27.5 27t-38.5 15.5t-43.5 5q-35 0 -59.5 -9t-40 -24t-23.5 -34t-10 -39z" />
    <glyph glyph-name="four.tnum.oldstyle" 
d="M538 0v-162h-139v162h-371v122l246 416h147l-263 -427h240v184h139v-184h129v-112z" />
    <glyph glyph-name="five.tnum.oldstyle" 
d="M212 261q27 23 68.5 35t98.5 12q56 0 104.5 -16.5t84.5 -47.5t56.5 -75t20.5 -98q0 -66 -28 -112.5t-71.5 -75.5t-97.5 -42t-106 -13q-74 0 -129 19t-92 49.5t-56 69.5t-22 80h139q3 -20 14.5 -39.5t31.5 -34.5t48.5 -24t66.5 -9q31 0 61 7.5t53 24t37 42.5t14 63
q0 33 -13 58t-35 41.5t-50.5 24.5t-59.5 8q-50 0 -86.5 -15.5t-65.5 -47.5h-132l53 394h459v-112h-345z" />
    <glyph glyph-name="six.tnum.oldstyle" 
d="M477 492q-4 18 -13.5 36t-25 32t-37.5 22.5t-51 8.5q-70 0 -116 -55.5t-51 -164.5l-1 -15q23 35 73 59.5t131 24.5q65 0 112 -18t77 -48t44.5 -68.5t14.5 -80.5q0 -48 -18.5 -90.5t-54.5 -74.5t-89 -51t-122 -19q-61 0 -116 17t-97 56.5t-67 104.5t-25 162q0 75 17.5 144
t54.5 121.5t95 83.5t139 31q51 0 95.5 -15t79.5 -43t57 -68.5t28 -91.5h-134zM349 101q38 0 65.5 9.5t45.5 26t26.5 38.5t8.5 46t-8.5 46t-26.5 38t-45.5 25.5t-65.5 9.5q-39 0 -66.5 -10t-45.5 -26.5t-26.5 -38.5t-8.5 -46q0 -49 37.5 -83.5t109.5 -34.5z" />
    <glyph glyph-name="seven.tnum.oldstyle" 
d="M616 416q-57 -54 -101.5 -119.5t-75.5 -139.5t-47.5 -155t-16.5 -165h-141q0 87 21.5 171t57 160t82 141.5t96.5 116.5h-416v112h541v-122z" />
    <glyph glyph-name="eight.tnum.oldstyle" 
d="M504 389q74 -26 111.5 -75.5t37.5 -109.5q0 -59 -27.5 -99.5t-71.5 -66t-99 -36.5t-110 -11q-54 0 -109 11t-98.5 36.5t-71 66t-27.5 99.5q0 60 37.5 109t110.5 75q-50 25 -75.5 64.5t-25.5 87.5t23 80.5t60 52.5t83 29t92 9q45 0 91.5 -9t84.5 -29t62 -52.5t24 -80.5
t-26 -87.5t-77 -64.5zM347 605q-24 0 -48.5 -4.5t-44 -14t-31.5 -25.5t-12 -40q0 -38 35 -64t101 -26t101 26t35 64q0 24 -12.5 40t-32.5 25.5t-44 14t-48 4.5h1zM346 102q29 0 58 6.5t52.5 20.5t38.5 36t15 54q0 49 -41.5 82t-121.5 33t-121.5 -33t-41.5 -82
q0 -32 14.5 -54t38 -36t52.5 -20.5t58 -6.5h-1z" />
    <glyph glyph-name="nine.tnum.oldstyle" 
d="M211 47q4 -18 13.5 -36t25 -32t37.5 -22.5t51 -8.5q70 0 116 55.5t51 164.5l1 15q-23 -35 -73 -59.5t-131 -24.5q-65 0 -112 18t-77 48t-44.5 68.5t-14.5 80.5q0 48 18.5 90.5t54.5 74.5t89 51t122 19q61 0 116 -17t97 -56.5t67 -104.5t25 -162q0 -75 -17.5 -144
t-54.5 -121.5t-95 -83.5t-139 -31q-51 0 -95.5 15t-79.5 43t-57 68.5t-28 91.5h134zM339 199q39 0 66.5 10t45.5 26.5t26.5 38.5t8.5 46q0 49 -37.5 83.5t-109.5 34.5q-38 0 -65.5 -10t-45.5 -26.5t-26.5 -38t-8.5 -45.5t8.5 -46t26.5 -38t45.5 -25.5t65.5 -9.5z" />
    <glyph glyph-name="zero.tnum.oldstyle.zero" 
d="M345 549q80 0 136 -20.5t91.5 -57.5t51.5 -88.5t16 -112.5t-16 -112.5t-51.5 -88.5t-91.5 -57.5t-136 -20.5t-136 20.5t-91 57.5t-51 88.5t-16 112.5t16 112.5t51 88.5t91 57.5t136 20.5zM445 408q-37 29 -100 29q-81 0 -117 -46.5t-36 -121.5q0 -36 9 -66zM242 133
q37 -31 102 -31q82 0 119 46.5t37 121.5q0 42 -10 72z" />
    <glyph glyph-name="zero.zero" horiz-adv-x="694" 
d="M346 710q85 0 141.5 -28.5t90.5 -77t48.5 -114t14.5 -140.5t-14.5 -140.5t-48.5 -114t-90.5 -77t-141.5 -28.5q-84 0 -140.5 28.5t-90.5 77t-48.5 114t-14.5 140.5t14.5 140.5t48.5 114t90.5 77t140.5 28.5zM456 544q-18 26 -45.5 40t-65.5 14q-44 0 -73.5 -20t-47 -53.5
t-24.5 -79t-7 -96.5q0 -48 6 -88zM234 159q18 -27 45.5 -42.5t66.5 -15.5q45 0 75 20t47.5 53.5t25 79t7.5 96.5q0 25 -1.5 48.5t-5.5 45.5z" />
    <glyph glyph-name="zero.dnom" horiz-adv-x="455" 
d="M228 468q56 0 93 -19t59.5 -51t32 -75t9.5 -92t-9.5 -92t-32 -75.5t-59.5 -51t-93 -18.5t-93.5 18.5t-60 51t-32 75.5t-9.5 92t9.5 92t32 75t60 51t93.5 19zM228 379q-24 0 -39.5 -11.5t-24.5 -32t-13 -47.5t-4 -57q0 -31 4 -58t13 -47.5t24.5 -32t39.5 -11.5t40 11.5
t25.5 32t13.5 47.5t4 58t-4 58t-13.5 47t-25.5 31.5t-40 11.5z" />
    <glyph glyph-name="one.dnom" horiz-adv-x="317" 
d="M260 0h-111v349l-84 -61l-54 69l142 103h108z" />
    <glyph glyph-name="two.dnom" horiz-adv-x="403" 
d="M23 317q1 73 48.5 111.5t132.5 38.5q35 0 67.5 -8.5t57.5 -25t40 -41.5t15 -59q0 -42 -20.5 -78t-52.5 -66.5t-70 -55.5t-73 -44h215v-89h-360v98q31 16 73.5 40.5t81.5 55t66 64.5t27 70q0 26 -18.5 38.5t-50.5 12.5q-36 0 -53 -17t-20 -44z" />
    <glyph glyph-name="three.dnom" horiz-adv-x="419" 
d="M33 317q0 72 46.5 111t131.5 39q29 0 58.5 -6.5t53.5 -21t39 -37.5t15 -56q0 -36 -19 -60.5t-48 -38.5q38 -15 63.5 -43.5t25.5 -73.5q0 -38 -17.5 -64t-44.5 -42t-60.5 -23.5t-65.5 -7.5q-89 0 -140.5 40.5t-53.5 109.5h109q3 -23 21.5 -42t63.5 -19q35 0 56.5 17
t21.5 42q0 26 -20.5 41.5t-68.5 16.5v82q70 2 70 51q0 26 -20.5 37t-43.5 11q-35 0 -52 -16.5t-19 -45.5z" />
    <glyph glyph-name="four.dnom" horiz-adv-x="456" 
d="M367 100v-101h-111v101h-241v95l156 265h117l-169 -271h136v103h111v-103h76v-88z" />
    <glyph glyph-name="five.dnom" horiz-adv-x="445" 
d="M149 276q14 13 39.5 22.5t63.5 9.5q36 0 67 -10.5t54 -30t36 -48.5t13 -66q0 -44 -18.5 -74.5t-48 -50t-65 -28t-69.5 -8.5q-47 0 -83 12t-61 32t-39 47.5t-17 59.5h112q7 -26 28 -43.5t61 -17.5q17 0 33 4.5t28.5 13.5t20 23.5t7.5 35.5q0 37 -26.5 54.5t-59.5 17.5
q-27 0 -47.5 -8t-35.5 -27h-106l37 264h304v-89h-214z" />
    <glyph glyph-name="six.dnom" horiz-adv-x="455" 
d="M302 321q-2 7 -6 16.5t-12 18t-20 14t-29 5.5q-23 0 -39 -8.5t-26 -22.5t-15.5 -33.5t-7.5 -40.5q-1 -5 -1.5 -11t-0.5 -12q13 20 42.5 33t76.5 13q40 0 69.5 -11.5t49 -31.5t29 -46.5t9.5 -56.5t-12 -57.5t-35.5 -48.5t-59 -33.5t-81.5 -12.5q-40 0 -76 11t-63.5 38
t-44 71.5t-16.5 111.5q0 46 11.5 89.5t36.5 77.5t64 54.5t95 20.5q31 0 60 -10t52.5 -29.5t38 -47.5t17.5 -64zM234 86q40 0 59.5 19t19.5 45t-19.5 45t-59.5 19q-42 0 -60.5 -19t-18.5 -45q0 -27 20 -45.5t58 -18.5h1z" />
    <glyph glyph-name="seven.dnom" horiz-adv-x="383" 
d="M370 362q-72 -69 -111 -161t-39 -201h-118q0 57 15 111.5t39 102.5t54 88.5t60 69.5h-257v88h357v-98z" />
    <glyph glyph-name="eight.dnom" horiz-adv-x="448" 
d="M336 256q46 -17 70 -49.5t24 -70.5q0 -39 -18.5 -66.5t-47.5 -44.5t-65.5 -24.5t-73.5 -7.5t-73.5 7.5t-65.5 24.5t-47 44.5t-18 66.5q0 38 23.5 70t69.5 50q-30 17 -46 42t-16 55q0 32 15 54t39.5 35.5t55 19.5t61.5 6q30 0 61 -6t56 -19.5t41 -35.5t16 -54
q0 -30 -15.5 -55t-46.5 -42h1zM225 388q-14 0 -27.5 -2.5t-24.5 -8.5t-18 -15t-7 -22q0 -22 20.5 -37t57.5 -15q36 0 56 15t20 37q0 13 -7 22t-18.5 15t-25 8.5t-26.5 2.5zM223 80q16 0 33 3.5t30.5 11.5t22 20.5t8.5 30.5q0 29 -23.5 48t-69.5 19t-70 -19t-24 -48
q0 -18 8.5 -30.5t22 -20.5t30.5 -11.5t34 -3.5h-2z" />
    <glyph glyph-name="nine.dnom" horiz-adv-x="455" 
d="M153 140q1 -8 5.5 -17t12.5 -17.5t20 -14t29 -5.5q23 0 39 8.5t26 22.5t15.5 33.5t7.5 40.5q1 5 1.5 11t0.5 12q-13 -20 -42.5 -33t-76.5 -13q-40 0 -69.5 11.5t-49 32t-29 47.5t-9.5 58q0 29 12 56t35.5 47.5t58.5 33t82 12.5q40 0 76 -11t63.5 -38t44 -71.5
t16.5 -111.5q0 -46 -11.5 -89.5t-36.5 -77.5t-65 -54.5t-96 -20.5q-30 0 -59 10t-52 29.5t-37.5 47.5t-17.5 64zM221 248q42 0 60.5 19t18.5 45q0 27 -20 45.5t-58 18.5q-40 0 -59.5 -19t-19.5 -45t19.5 -45t59.5 -19h-1z" />
    <glyph glyph-name="zero.numr" horiz-adv-x="455" 
d="M228 708q56 0 93 -19t59.5 -51t32 -75t9.5 -92t-9.5 -92t-32 -75.5t-59.5 -51t-93 -18.5t-93.5 18.5t-60 51t-32 75.5t-9.5 92t9.5 92t32 75t60 51t93.5 19zM228 619q-24 0 -39.5 -11.5t-24.5 -32t-13 -47.5t-4 -57q0 -31 4 -58t13 -47.5t24.5 -32t39.5 -11.5t40 11.5
t25.5 32t13.5 47.5t4 58t-4 58t-13.5 47t-25.5 31.5t-40 11.5z" />
    <glyph glyph-name="one.numr" horiz-adv-x="317" 
d="M260 240h-111v349l-84 -61l-54 69l142 103h108z" />
    <glyph glyph-name="two.numr" horiz-adv-x="403" 
d="M23 556q1 73 48.5 111.5t132.5 38.5q35 0 67.5 -8.5t57.5 -25t40 -41.5t15 -59q0 -42 -20.5 -78t-52.5 -66.5t-70 -55.5t-73 -44h215v-89h-360v98q31 16 73.5 40.5t81.5 55t66 64.5t27 70q0 26 -18.5 38.5t-50.5 12.5q-36 0 -53 -17t-20 -44z" />
    <glyph glyph-name="three.numr" horiz-adv-x="419" 
d="M33 557q0 72 46.5 111t131.5 39q29 0 58.5 -6.5t53.5 -21t39 -37.5t15 -56q0 -36 -19 -60.5t-48 -38.5q38 -15 63.5 -43.5t25.5 -73.5q0 -38 -17.5 -64t-44.5 -42t-60.5 -23.5t-65.5 -7.5q-89 0 -140.5 40.5t-53.5 109.5h109q3 -23 21.5 -42t63.5 -19q35 0 56.5 17
t21.5 42q0 26 -20.5 41.5t-68.5 16.5v82q70 2 70 51q0 26 -20.5 37t-43.5 11q-35 0 -52 -16.5t-19 -45.5z" />
    <glyph glyph-name="four.numr" horiz-adv-x="456" 
d="M367 339v-101h-111v101h-241v95l156 265h117l-169 -271h136v103h111v-103h76v-88z" />
    <glyph glyph-name="five.numr" horiz-adv-x="445" 
d="M149 516q14 13 39.5 22.5t63.5 9.5q36 0 67 -10.5t54 -30t36 -48.5t13 -66q0 -44 -18.5 -74.5t-48 -50t-65 -28t-69.5 -8.5q-47 0 -83 12t-61 32t-39 47.5t-17 59.5h112q7 -26 28 -43.5t61 -17.5q17 0 33 4.5t28.5 13.5t20 23.5t7.5 35.5q0 37 -26.5 54.5t-59.5 17.5
q-27 0 -47.5 -8t-35.5 -27h-106l37 264h304v-89h-214z" />
    </font>
</defs>
</svg>
